<svg xmlns="http://www.w3.org/2000/svg" width="227" height="50" fill="none" viewBox="0 0 227 50"><!-- Original logo design by Alta Group. All rights reserved. This SVG has been modified for layout consistency by Polako Finance. No claim of ownership or endorsement is implied. --><path fill="#d51f26" d="M211.792 17.33h-8.691v15.331h2.044v-6.13h6.647a4.6 4.6 0 0 0 4.596-4.596 4.6 4.6 0 0 0-4.596-4.596m0 7.156h-6.647v-5.113h6.647a2.55 2.55 0 0 1 2.553 2.553 2.55 2.55 0 0 1-2.553 2.552M175.001 17.33a7.664 7.664 0 0 0-7.666 7.666 7.664 7.664 0 0 0 7.666 7.665 7.663 7.663 0 0 0 7.665-7.665 7.663 7.663 0 0 0-7.665-7.665m0 13.288a5.625 5.625 0 0 1-5.622-5.622 5.625 5.625 0 0 1 5.622-5.622 5.625 5.625 0 0 1 5.621 5.622 5.625 5.625 0 0 1-5.621 5.622M164.266 21.935a4.594 4.594 0 0 0-4.596-4.596h-8.691v15.33h2.043v-6.13h5.056l3.783 6.13h2.405l-3.825-6.204a4.59 4.59 0 0 0 3.825-4.53m-4.596 2.552h-6.648v-5.113h6.648a2.55 2.55 0 0 1 2.552 2.552 2.55 2.55 0 0 1-2.552 2.553M197.996 25.513a5.113 5.113 0 0 1-10.225 0v-8.174h-2.044v8.174a7.158 7.158 0 0 0 14.313 0v-8.174h-2.044zM141.787 24.487v2.044h3.874a5.62 5.62 0 0 1-5.408 4.087 5.625 5.625 0 0 1-5.622-5.622 5.625 5.625 0 0 1 5.622-5.622c1.912 0 3.603.96 4.62 2.421l1.683-1.165c-1.387-1.995-3.685-3.308-6.303-3.308a7.664 7.664 0 0 0-7.666 7.666 7.664 7.664 0 0 0 7.666 7.665 7.664 7.664 0 0 0 7.665-7.665c0-.173-.016-.345-.025-.51h-6.106zM83.411 17.33h-2.946v15.331h14.74v-2.946H83.41zM58.643 32.662h3.405l5.442-9.43 5.44 9.43h3.407l-8.847-15.33zm53.657-15.33H95.205v2.946h7.074V32.66h2.946V20.277h7.075zm8.256 0-8.847 15.33h3.406l5.441-9.43 5.441 9.43h3.406zM10 48s10.644-15.454 26.09-25.762l.443-20.23z"/><path fill="#d51f26" d="M10 48s15.61-15.33 44.227-15.33l-17.686-9.636C21.088 33.342 10.008 48 10.008 48M36.935 22.23 54.22 32.661 36.533 2z"/></svg>