<svg xmlns="http://www.w3.org/2000/svg" width="189" height="50" fill="none" viewBox="0 0 189 50"><!-- Original logo design by AltaPay. All rights reserved. This SVG was created by Polako Finance. No claim of ownership or endorsement is implied. --><path fill="url(#a)" d="M36.366 2 10 48c10.968-12.267 17.227-19.524 26.366-25.524z"/><path fill="url(#b)" d="M53.756 32.854C33.958 33.787 24.626 37.563 10 48c10.968-12.267 17.227-19.524 26.366-25.524z"/><path fill="url(#c)" d="M53.757 32.854 36.367 2.14v20.336z"/><path fill="#000" d="m177.687 43.057-1.9-4.516h.575l1.927 4.516zm-3.848 0 1.928-4.516h.581l-1.9 4.516zm.913-1.284v-.49h2.631v.49zM171.529 43.134q-.676 0-1.197-.297a2.2 2.2 0 0 1-.819-.826 2.43 2.43 0 0 1-.297-1.212q0-.684.291-1.207.297-.529.811-.825a2.3 2.3 0 0 1 1.19-.304q.426 0 .818.149.393.141.704.406.31.258.48.6l-.494.239a1.5 1.5 0 0 0-.372-.471 1.8 1.8 0 0 0-.527-.31 1.6 1.6 0 0 0-.609-.116 1.67 1.67 0 0 0-1.501.884 2 2 0 0 0-.216.955q0 .541.223.961.224.42.615.658.399.232.9.232.324 0 .615-.122a1.83 1.83 0 0 0 .893-.852l.5.239q-.176.354-.487.632a2.2 2.2 0 0 1-.703.432 2.2 2.2 0 0 1-.818.155M166.299 43.057l1.934-4.516h.602l-1.961 4.516zm-.061 0-1.961-4.516h.602l1.927 4.516zM161.67 43.134a2.43 2.43 0 0 1-1.211-.297 2.13 2.13 0 0 1-.825-.826 2.43 2.43 0 0 1-.297-1.212q0-.69.291-1.213.297-.53.818-.826a2.4 2.4 0 0 1 1.204-.297q.683 0 1.203.304.528.296.819.825.29.523.29 1.207t-.29 1.212a2.1 2.1 0 0 1-.812.826 2.34 2.34 0 0 1-1.19.297m0-.497q.507 0 .893-.232.385-.24.601-.651.224-.414.224-.955a1.96 1.96 0 0 0-.224-.949 1.674 1.674 0 0 0-1.514-.89q-.508 0-.9.239a1.63 1.63 0 0 0-.615.651 1.96 1.96 0 0 0-.223.949q0 .542.223.955t.622.651q.399.232.913.232M154.418 43.057V38.54H155l2.819 3.625v-3.625h.575v4.516h-.575l-2.826-3.645v3.645zM149.753 43.134a2.7 2.7 0 0 1-1.278-.297 2.27 2.27 0 0 1-.872-.826 2.33 2.33 0 0 1-.311-1.206q0-.69.311-1.213a2.2 2.2 0 0 1 .872-.825q.555-.304 1.278-.304.378 0 .737.123.359.116.656.322t.48.471l-.453.297a1.4 1.4 0 0 0-.365-.367 1.8 1.8 0 0 0-.507-.259 1.96 1.96 0 0 0-1.522.148q-.426.233-.669.646a1.85 1.85 0 0 0-.244.961q0 .53.237.949.243.412.669.651a2 2 0 0 0 .981.239q.46 0 .811-.18.358-.188.562-.51.203-.33.203-.755l.547-.039q0 .594-.27 1.039-.27.438-.751.69-.48.245-1.102.245m.412-1.91v-.47h1.711v.425l-.27.045zM144.374 43.134q-.682 0-1.21-.297a2.1 2.1 0 0 1-.825-.826 2.43 2.43 0 0 1-.297-1.212q0-.69.29-1.213a2.14 2.14 0 0 1 .819-.826 2.4 2.4 0 0 1 1.203-.297q.684 0 1.204.304.528.296.818.825.291.523.291 1.207t-.291 1.212a2.1 2.1 0 0 1-.811.826q-.514.297-1.191.297m0-.497q.508 0 .893-.232.386-.24.602-.651.223-.414.223-.955a1.96 1.96 0 0 0-.223-.949 1.675 1.675 0 0 0-1.515-.89q-.507 0-.899.239a1.63 1.63 0 0 0-.616.651 2 2 0 0 0-.223.949q0 .542.223.955.224.412.623.651.399.232.912.232M138.631 41.508l-.237-.496 2.489-2.471h.717zm-.399 1.549V38.54h.548v4.516zm2.759 0-1.941-2.297.372-.348 2.265 2.645zM135.593 43.134q-.393 0-.697-.077a2 2 0 0 1-.527-.226 1.6 1.6 0 0 1-.365-.323 1.3 1.3 0 0 1-.21-.38l.548-.181q.101.284.405.497.312.206.758.206.547 0 .859-.206.31-.206.311-.549 0-.315-.278-.51a2.1 2.1 0 0 0-.73-.309l-.521-.129a2.4 2.4 0 0 1-.588-.226 1.3 1.3 0 0 1-.426-.387 1 1 0 0 1-.155-.568q0-.612.412-.954.42-.349 1.204-.349.467 0 .804.149.339.141.548.367.216.22.304.478l-.541.18a1 1 0 0 0-.432-.503 1.4 1.4 0 0 0-.737-.187q-.454 0-.724.213a.68.68 0 0 0-.264.568q0 .309.21.477a1.4 1.4 0 0 0 .548.239l.52.122q.69.156 1.055.517.372.354.372.767 0 .355-.189.652a1.3 1.3 0 0 1-.561.464q-.366.168-.913.168M128.841 43.057V38.54h.582l2.82 3.625v-3.625h.575v4.516h-.575l-2.827-3.645v3.645zM125.606 43.134q-.682 0-1.21-.297a2.1 2.1 0 0 1-.825-.826 2.44 2.44 0 0 1-.298-1.212q0-.69.291-1.213.298-.53.818-.826a2.4 2.4 0 0 1 1.204-.297q.683 0 1.204.304.527.296.818.825.291.523.291 1.207t-.291 1.212a2.1 2.1 0 0 1-.811.826q-.514.297-1.191.297m0-.497q.508 0 .893-.232.386-.24.602-.651.223-.414.223-.955a1.96 1.96 0 0 0-.223-.949 1.675 1.675 0 0 0-1.515-.89q-.507 0-.899.239a1.63 1.63 0 0 0-.616.651 2 2 0 0 0-.223.949q0 .542.223.955.224.412.623.651.398.232.912.232M119.358 43.057V38.54h1.542q.46 0 .811.174.359.174.555.484.203.31.203.71t-.217.71q-.216.309-.588.49a1.96 1.96 0 0 1-.839.173h-.892v1.775zm2.671 0-1.136-1.852.453-.284 1.312 2.136zm-2.096-2.278h1.048a.96.96 0 0 0 .46-.11.9.9 0 0 0 .324-.309.8.8 0 0 0 .129-.452.78.78 0 0 0-.284-.625q-.277-.245-.724-.245h-.953zM116.58 43.057v-4.02h-1.508v-.496h3.584v.497h-1.508v4.019zM111.898 41.508l-.236-.496 2.488-2.471h.717zm-.398 1.549V38.54h.547v4.516zm2.759 0-1.941-2.297.372-.348 2.265 2.645zM107.498 43.057V38.54h2.799v.497h-2.225v1.458h2.029v.49h-2.029v1.574h2.239v.497zM103.984 43.057V38.54h.575v4.019h2.232v.497zM99.983 43.057V38.54h2.799v.497h-2.224v1.458h2.028v.49h-2.028v1.574h2.238v.497zM97.015 43.057l-1.9-4.516h.575l1.927 4.516zm-3.847 0 1.927-4.516h.581l-1.9 4.516zm.912-1.284v-.49h2.63v.49zM90.959 43.134q-.244 0-.453-.07a1.4 1.4 0 0 1-.366-.175 1.4 1.4 0 0 1-.466-.561l.433-.24q.142.24.344.395.21.154.514.154.244 0 .474-.11a.86.86 0 0 0 .385-.367q.15-.258.149-.677V38.54h.568v3.154q0 .356-.135.626-.129.27-.359.452a1.5 1.5 0 0 1-.507.27q-.284.09-.581.091M88.42 43.057V38.54h.574v4.516zM85.54 43.134q-.676 0-1.196-.297a2.2 2.2 0 0 1-.818-.826 2.43 2.43 0 0 1-.298-1.212q0-.684.29-1.207.3-.529.812-.825a2.3 2.3 0 0 1 1.19-.304q.427 0 .819.149.392.141.703.406.31.258.48.6l-.494.239a1.5 1.5 0 0 0-.372-.471 1.8 1.8 0 0 0-.527-.31 1.6 1.6 0 0 0-.609-.116 1.67 1.67 0 0 0-1.5.884 2 2 0 0 0-.217.955q0 .541.223.961t.615.658q.399.232.9.232.324 0 .615-.122.29-.13.52-.349.238-.22.373-.503l.5.239a2.1 2.1 0 0 1-.487.632 2.2 2.2 0 0 1-.703.432 2.2 2.2 0 0 1-.818.155M80.51 43.153q-.535 0-.947-.212a1.63 1.63 0 0 1-.636-.6 1.7 1.7 0 0 1-.23-.89v-2.91h.575v2.91q0 .354.156.632.162.27.446.425.285.15.65.149.371 0 .655-.149.291-.155.446-.425.163-.278.163-.633v-2.91h.568v2.91q0 .504-.23.89-.23.381-.65.6-.419.213-.966.213M75.987 43.057v-4.02h-1.508v-.496h3.584v.497h-1.508v4.019zM73.198 43.057V38.54h.575v4.516zM70.42 43.057v-4.02h-1.508v-.496h3.584v.497h-1.508v4.019zM66.828 43.134a2.8 2.8 0 0 1-.697-.077 2 2 0 0 1-.527-.226 1.6 1.6 0 0 1-.366-.323 1.3 1.3 0 0 1-.21-.38l.549-.181q.1.284.405.497.311.206.758.206.547 0 .859-.206.31-.206.31-.549 0-.315-.277-.51a2.1 2.1 0 0 0-.73-.309l-.52-.129a2.4 2.4 0 0 1-.59-.226 1.3 1.3 0 0 1-.425-.387 1 1 0 0 1-.156-.568q0-.612.413-.954.419-.349 1.204-.349.466 0 .804.149.339.141.548.367.216.22.304.478l-.54.18a1 1 0 0 0-.433-.503 1.4 1.4 0 0 0-.737-.187q-.454 0-.724.213a.68.68 0 0 0-.264.568q0 .309.21.477.21.161.548.239l.52.122q.69.156 1.055.517.372.354.372.767 0 .355-.19.652a1.3 1.3 0 0 1-.56.464q-.366.168-.913.168M60.076 43.057V38.54h.581l2.82 3.625v-3.625h.575v4.516h-.575l-2.826-3.645v3.645zM58.24 43.057V38.54h.575v4.516zM164.965 17.147h-3.225l7.152 9.536v6.17h2.525v-6.17l6.872-9.536h-2.946l-5.189 7.012zM164.264 32.854h-2.805l-2.104-3.646h-8.975l-2.244 3.646h-2.665l9.397-15.707zm-12.622-5.89h6.451l-3.225-5.61zM143.508 17.147c.28 0 3.366 1.121 3.366 4.628 0 3.506-3.086 4.347-3.366 4.347h-7.854v6.732h-2.524V17.147zm-7.854 2.243v4.208h7.854c.14 0 1.122-.561 1.122-2.104s-.982-2.103-1.122-2.104z"/><path fill="#d20000" d="m119.667 17.147-8.695 15.707h3.366l5.329-9.396 5.61 9.396h3.365zM94.704 17.147v3.225h6.872v12.482h3.085V20.372h6.872v-3.226zM79.838 17.147v15.707h14.866v-3.086h-11.78V17.146zM66.935 17.147 58.24 32.854h3.366l5.33-9.396 5.61 9.396h3.365z"/><defs><linearGradient id="a" x1="27.25" x2="35.244" y1="17.707" y2="23.317" gradientUnits="userSpaceOnUse"><stop offset=".12" stop-color="#d20000"/><stop offset=".87" stop-color="#770606"/></linearGradient><linearGradient id="b" x1="16.591" x2="50.25" y1="41.549" y2="31.171" gradientUnits="userSpaceOnUse"><stop offset=".365" stop-color="#d20000"/><stop offset="1" stop-color="#640000"/></linearGradient><linearGradient id="c" x1="34.263" x2="52.775" y1="5.506" y2="31.171" gradientUnits="userSpaceOnUse"><stop offset=".37" stop-color="#c20000"/><stop offset="1" stop-color="#690000"/></linearGradient></defs></svg>
