<svg xmlns="http://www.w3.org/2000/svg" width="227" height="50" fill="none" viewBox="0 0 227 50"><!-- Original logo design by Alta Group. All rights reserved. This SVG has been modified for layout consistency by Polako Finance. No claim of ownership or endorsement is implied. --><mask id="a" width="27" height="46" x="10" y="2" maskUnits="userSpaceOnUse" style="mask-type:luminance"><path fill="#fff" d="M10 48s11.087-15.238 26.54-25.548V2z"/></mask><g mask="url(#a)"><path fill="url(#b)" d="M16.235-9.27-9.533 37.16l39.81 22.094 25.768-46.429z"/></g><mask id="c" width="45" height="26" x="10" y="22" maskUnits="userSpaceOnUse" style="mask-type:luminance"><path fill="#fff" d="M10 48s15.61-15.336 44.232-15.336L36.54 22.445C21.087 32.755 10 47.993 10 47.993"/></mask><g mask="url(#c)"><path fill="url(#d)" d="M54.232 22.445H10v25.548h44.232z"/></g><mask id="e" width="19" height="31" x="36" y="2" maskUnits="userSpaceOnUse" style="mask-type:luminance"><path fill="#fff" d="m36.54 22.452 17.691 10.212L36.54 2z"/></mask><g mask="url(#e)"><path fill="url(#f)" d="M54.231 2H36.54v30.664h17.691z"/></g><path fill="#010101" d="M211.834 17.33h-8.692v15.335h2.043V26.53h6.643a4.604 4.604 0 0 0 4.601-4.6c0-2.539-2.063-4.6-4.601-4.6m0 7.151h-6.643v-5.11h6.643a2.558 2.558 0 0 1 0 5.117M175.036 17.33a7.668 7.668 0 1 0 0 15.335 7.668 7.668 0 1 0 0-15.336m0 13.286a5.626 5.626 0 0 1-5.625-5.626 5.62 5.62 0 0 1 5.625-5.618 5.624 5.624 0 0 1 5.625 5.618 5.63 5.63 0 0 1-5.625 5.626M164.301 21.93c0-2.539-2.062-4.6-4.601-4.6h-8.692v15.335h2.042V26.53h5.058l3.785 6.135h2.401l-3.83-6.206a4.595 4.595 0 0 0 3.83-4.53m-4.6 2.559h-6.644v-5.11h6.644a2.558 2.558 0 0 1 0 5.116M198.032 25.512a5.109 5.109 0 1 1-10.219 0v-8.177h-2.042v8.177a7.157 7.157 0 0 0 7.158 7.159 7.16 7.16 0 0 0 7.159-7.159v-8.177h-2.043v8.177zM141.813 24.488v2.042h3.87a5.624 5.624 0 0 1-5.403 4.092 5.626 5.626 0 0 1-5.626-5.625 5.62 5.62 0 0 1 5.626-5.619c1.918 0 3.608.96 4.62 2.421l1.683-1.162a7.65 7.65 0 0 0-6.303-3.302 7.667 7.667 0 0 0-7.668 7.668 7.667 7.667 0 0 0 7.668 7.668 7.667 7.667 0 0 0 7.667-7.668c0-.17-.013-.34-.026-.509h-6.108z"/><path fill="#d02027" d="M83.427 17.33h-2.95v15.335H95.22v-2.95H83.421V17.329zM58.655 32.664h3.407l5.442-9.437 5.443 9.437h3.406l-8.849-15.336zm53.668-15.336H95.219v2.95h7.074v12.386h2.95V20.279h7.08zm8.255 0-8.849 15.336h3.407l5.442-9.437 5.443 9.437h3.406z"/><defs><linearGradient id="b" x1="33.208" x2="13.226" y1="30.277" y2="19.188" gradientUnits="userSpaceOnUse"><stop stop-color="#620d0e"/><stop offset=".44" stop-color="#d02027"/><stop offset="1" stop-color="#d02027"/></linearGradient><linearGradient id="d" x1="9.582" x2="47.836" y1="35.292" y2="35.292" gradientUnits="userSpaceOnUse"><stop stop-color="#d02027"/><stop offset=".57" stop-color="#d02027"/><stop offset=".63" stop-color="#bd1c22"/><stop offset=".8" stop-color="#8c1417"/><stop offset=".93" stop-color="#6d0e10"/><stop offset="1" stop-color="#620d0e"/></linearGradient><linearGradient id="f" x1="28.572" x2="52.854" y1="17.568" y2="17.568" gradientUnits="userSpaceOnUse"><stop stop-color="#d02027"/><stop offset=".25" stop-color="#d02027"/><stop offset="1" stop-color="#620d0e"/></linearGradient></defs></svg>