<svg xmlns="http://www.w3.org/2000/svg" width="196.62" height="50" fill="none" viewBox="11.00 10.00 117.97 30.00"><!-- Original logo design by American Express. All rights reserved. This SVG has been modified for layout consistency by Polako Finance. No claim of ownership or endorsement is implied. --><path fill="#474c55" d="m50.653 28.99 1.966-1.041c.884 1.73 2.24 2.575 4.07 2.575 1.788 0 3.007-.57 3.007-1.927 0-1.277-.924-1.867-3.342-2.594-2.85-.846-5.15-1.613-5.15-4.424 0-2.516 2.044-4.168 5.052-4.168 2.91 0 4.62 1.435 5.524 3.185l-1.809 1.258c-.884-1.474-2.123-2.162-3.735-2.162-1.632 0-2.575.59-2.575 1.67 0 1.377 1.061 1.83 3.46 2.557 2.791.825 5.013 1.73 5.013 4.521 0 2.418-2.045 4.306-5.564 4.306-2.91 0-4.993-1.514-5.917-3.755M63.274 29.915c0-2.3 1.946-3.834 6.9-4.384v-.315c0-1.061-.55-1.514-1.73-1.514-1.474 0-2.673.728-3.558 1.435l-1.2-1.533c1.141-1.042 2.91-1.927 5.112-1.927 2.831 0 3.814 1.357 3.814 3.834v4.364c0 1.278.079 2.065.295 2.595H70.43c-.138-.432-.236-.766-.236-1.356-1.081 1.1-2.34 1.514-3.912 1.514-1.73 0-3.008-.964-3.008-2.713m6.9-.413v-2.34c-2.929.394-4.482 1.121-4.482 2.28 0 .846.57 1.279 1.475 1.279 1.258 0 2.24-.472 3.007-1.22M75.993 32.47v-8.65h-1.828v-1.965h1.828v-1.082c0-1.769.747-3.145 3.421-3.145.452 0 1.278.079 1.455.098v1.907a4.6 4.6 0 0 0-.846-.078c-.884 0-1.592.235-1.592 1.376v.943h2.32v1.966h-2.32v8.65h-2.438zM81.636 27.163c0-4.03 2.85-5.505 5.032-5.505 2.38 0 4.64 1.415 4.64 5.74v.57h-7.235c.099 1.927 1.278 2.753 2.831 2.753 1.377 0 2.183-.452 2.969-1.239l1.297 1.278c-1.1 1.22-2.555 1.927-4.442 1.927-2.635 0-5.092-1.612-5.092-5.524m7.43-1.023c-.137-1.612-.943-2.477-2.417-2.477-1.2 0-2.3.688-2.536 2.477z"/><path fill="#878a8f" d="M93.51 32.47V17.688h1.77v7.627l6.664-7.627h2.123l-5.072 5.622 5.76 9.162h-2.005l-4.915-7.825-2.555 2.831v4.994zM105.266 27.182c0-3.833 2.556-5.485 4.758-5.485 2.496 0 4.384 1.75 4.384 5.564v.354h-7.432c.059 2.379 1.436 3.656 3.166 3.656 1.513 0 2.378-.61 3.165-1.71l1.002.885c-.983 1.395-2.319 2.24-4.285 2.24-2.497 0-4.758-1.828-4.758-5.504m7.51-.884c-.138-1.868-1.042-3.146-2.772-3.146-1.415 0-2.752.983-2.988 3.145zM115.194 36.265l.393-1.376c.295.078.826.177 1.553.177 1.081 0 1.593-.452 2.005-1.494l.394-1.042-4.07-10.597h1.809l3.086 8.532h.04l3.086-8.532h1.73l-4.502 11.737c-.727 1.848-1.533 2.85-3.578 2.85-.924 0-1.494-.117-1.946-.255M125.83 23.427c0-.904.688-1.592 1.592-1.592.885 0 1.553.688 1.553 1.573 0 .904-.688 1.592-1.592 1.592-.885 0-1.553-.688-1.553-1.573m2.811 0c0-.727-.531-1.297-1.258-1.297-.708 0-1.239.55-1.239 1.278 0 .727.531 1.277 1.258 1.277.708 0 1.239-.53 1.239-1.258m-1.868-.904h.669c.412 0 .668.177.668.57 0 .275-.118.413-.314.492l.334.648h-.433l-.314-.609h-.197v.61h-.413zm.629.806c.177 0 .295-.059.295-.216s-.098-.216-.295-.216h-.216v.432z"/><path fill="#fff" d="M40.98 40H11.02V10.04h29.96V40"/><path fill="#0079c2" d="m30.07 31.31-.728-.904v.905H27.2v-1.298c-.275.079-.59.138-.943.138h-.335v1.14h-3.145l-.53-.747-.512.747h-5.17V26.18h5.17l.53.747.532-.747H40.98V10H11.02v11.835l1.002-2.34h2.045l.59 1.318v-1.318h2.496l.374 1.121.373-1.12h11.01v.51c.432-.353.963-.51 1.572-.51h3.342l.59 1.317v-1.318h1.966l.649 1.042v-1.042h2.241v5.112h-2.084l-.629-1.003v1.003H33.51l-.295-.767h-.708l-.295.767h-1.789c-.491 0-1.061-.098-1.513-.472v.472h-3.008l-.728-.904v.904H13.713l-.295-.767h-.708l-.295.767H11V39.96h29.98v-8.965a2.15 2.15 0 0 1-1.14.315z"/><path fill="#0d79bf" d="M40.98 27.005v-.02h-1.808c-.767 0-1.22.472-1.22 1.102 0 .668.433 1.041 1.102 1.041h.806c.196 0 .354.118.354.315s-.138.314-.354.314H38.05v.748h1.79c.589 0 .982-.276 1.14-.708.039-.118.078-.256.078-.413a1 1 0 0 0-.079-.433c-.157-.373-.51-.59-1.022-.59h-.826c-.196 0-.334-.137-.334-.314 0-.196.138-.314.334-.314h1.514zm-5.426 1.062c0-.197.138-.315.335-.315h1.513l.335-.747h-1.829c-.766 0-1.219.472-1.219 1.101 0 .669.433 1.042 1.101 1.042h.806c.197 0 .354.118.354.315 0 .196-.137.314-.354.314h-1.808v.747h1.789c.766 0 1.219-.472 1.219-1.12 0-.65-.413-1.023-1.101-1.023h-.826c-.177 0-.315-.118-.315-.314m-4.05 2.457h2.832v-.747H32.35v-.649h1.927v-.727H32.35v-.629h1.986v-.747h-2.831zm-.196 0-1.18-1.297c.59-.118.964-.55.964-1.12 0-.67-.472-1.121-1.22-1.121h-1.926v3.538h.846v-1.258h.393l1.042 1.258zm-1.514-2.005h-.983v-.786h.983c.295 0 .452.177.452.393-.02.236-.157.393-.452.393m-2.3-.354c0-.708-.472-1.18-1.219-1.18H24.33v3.54h.845v-1.16h1.062c.786 0 1.258-.512 1.258-1.2m-.865.02c0 .236-.157.432-.452.432h-1.022v-.865h1.022c.314 0 .452.177.452.433m-2.457 2.34-1.416-1.79 1.416-1.75H23.13l-.865 1.121-.865-1.12h-1.062l1.416 1.769-1.416 1.77h1.042l.865-1.141.865 1.14zm-6.802 0h2.83v-.748h-1.985v-.649h1.927v-.727h-1.927v-.629h1.986v-.747H17.37zM38.464 23.86V20.32h-.826v1.868l.02.432h-.02l-.236-.393-1.238-1.907h-1.042v3.539h.825v-1.966l-.02-.413h.02l.236.393 1.298 1.986zm-4.483 0h.964L33.43 20.32h-1.12l-1.514 3.539h.904l.295-.747h1.671zm-.59-1.435h-1.12l.334-.826.217-.55h.02l.216.55zm-2.948-1.337h.924v-.767h-.983c-1.101 0-1.69.727-1.69 1.73v.059c0 1.062.609 1.73 1.63 1.73h.06l.354-.747h-.256c-.57 0-.924-.354-.924-.983v-.059c-.02-.55.275-.963.885-.963m-3.106 2.772h.845V20.32h-.845v3.539m-.216 0-1.18-1.298c.59-.118.963-.55.963-1.12 0-.669-.472-1.121-1.219-1.121H23.76v3.539h.845v-1.258h.393l1.042 1.258zm-1.514-2.005h-.983v-.787h.983c.295 0 .452.177.452.393-.02.216-.157.394-.452.394m-5.25 2.005h2.832v-.747h-1.966v-.65h1.926v-.727h-1.926v-.629h1.966v-.747h-2.831zm-1.474 0h.826V20.32h-1.376l-.688 2.045-.118.393h-.02l-.118-.393-.688-2.045h-1.376v3.539h.826v-2.32l-.02-.53h.02l.177.53.806 2.32h.766l.806-2.32.177-.53h.02l-.02.53zm-4.679 0h.964l-1.514-3.539h-1.12L11.02 23.86h.904l.295-.747h1.67zm-.57-1.435h-1.12l.334-.826.216-.55h.02l.216.55z"/></svg>