<svg xmlns="http://www.w3.org/2000/svg" width="60" height="50" fill="none" viewBox="0 0 60 50"><!-- Original logo design by American Express. All rights reserved. This SVG has been modified for layout consistency by Polako Finance. No claim of ownership or endorsement is implied. --><path fill="#fff" d="M10 5v40h40V5H10"/><path fill="#006fcf" d="m42.864 14.816 1.28-3.48H50V5H10v40h40v-6.32h-5.52l-2.04-2.384-2.12 2.384H24.64V25.976h-5.176l6.464-14.64h6.296l1.52 3.32v-3.32h7.816zm-4.416 2.304-.016-1.4.536 1.4 2.6 6.944h2.584l2.616-6.944.504-1.384v8.336h2.72V13.408h-4.52l-2.056 5.416-.544 1.464-.56-1.464-2.064-5.416h-4.52v10.664h2.72V17.12m-5.856 6.944h3.136L31.032 13.4h-3.64l-4.72 10.664h3.096l.824-2.056h5.176zm-3.944-7.056.536-1.336.536 1.336 1.104 2.696h-3.28zm-1.824 8.976v10.624h8.904v-2.304h-6.184v-1.856h6.064v-2.296h-6.064v-1.864h6.184v-2.304zM45.64 36.608h3.536l-4.984-5.336 4.984-5.296h-3.48l-3.216 3.456-3.2-3.456h-3.544l4.976 5.336-4.976 5.296h3.44l3.24-3.464zm1.344-5.344L50 34.328v-6.096l-3.016 3.024z"/></svg>
