<svg xmlns="http://www.w3.org/2000/svg" width="60" height="50" fill="none" viewBox="0 0 60 50"><!-- Original logo design by American Express. All rights reserved. This SVG has been modified for layout consistency by Polako Finance. No claim of ownership or endorsement is implied. --><path fill="#fff" d="M12 7v36h36V7H12"/><path fill="#006fcf" d="m41.578 15.834 1.152-3.132H48V7H12v36h36v-5.688h-4.968l-1.836-2.146-1.908 2.146H25.176V25.878h-4.658l5.817-13.176h5.667l1.368 2.988v-2.988h7.034zm-3.975 2.074-.014-1.26.482 1.26 2.34 6.25h2.326l2.354-6.25.454-1.246v7.503h2.448v-9.598h-4.068l-1.85 4.875-.49 1.317-.504-1.317-1.858-4.875h-4.068v9.598h2.448v-6.257m-5.27 6.25h2.822L30.93 14.56h-3.276l-4.248 9.598h2.786l.742-1.85h4.658zm-3.55-6.35.483-1.203.482 1.202.994 2.427H27.79zm-1.641 8.078v9.561h8.013v-2.073H29.59v-1.67h5.457v-2.067H29.59v-1.678h5.565v-2.073zm16.934 9.561h3.182l-4.485-4.802 4.485-4.767h-3.132l-2.894 3.11-2.88-3.11h-3.19l4.479 4.803-4.479 4.766h3.096l2.916-3.117zm1.21-4.81L48 33.396V27.91l-2.714 2.721z"/></svg>