<svg xmlns="http://www.w3.org/2000/svg" width="66" height="50" fill="none" viewBox="0 0 66 50"><path fill="#fff" d="M15.266 5h39.657v39.806H15.266z"/><!-- Original logo design by American Express. All rights reserved. This SVG has been modified for layout consistency by Polako Finance. No claim of ownership or endorsement is implied. --><path fill="#1790cd" d="M12.718 43.982h-.349a2 2 0 0 1-.052-.466c0-.128-.02-.259-.259-.259h-.513v.725h-.307v-1.768h.82c.281 0 .594.1.594.492 0 .223-.093.33-.191.398.08.046.15.122.16.322l.012.306c.003.089.012.106.085.147zm-.38-1.252c0-.222-.153-.241-.264-.241h-.529v.492h.49c.162 0 .303-.038.303-.25m1.452.387c0-1.047-.85-1.885-1.896-1.885a1.884 1.884 0 1 0 0 3.768 1.886 1.886 0 0 0 1.896-1.883m-.287 0c0 .889-.682 1.608-1.609 1.608-.925 0-1.607-.72-1.607-1.608s.679-1.608 1.607-1.608c.93 0 1.608.72 1.608 1.608"/><path fill="url(#a)" d="M54.923 26.678h-2.066c-.617 0-1.08.143-1.398.374v-.374h-3.047c-.483 0-1.065.117-1.335.374v-.374h-5.444v.374c-.436-.308-1.165-.374-1.509-.374H36.53v.374c-.344-.331-1.099-.374-1.561-.374h-4.03l-.922.997-.857-.997h-6.009v6.506h5.897l.946-1.013.895 1.01 3.63.003V31.65h.361c.48 0 1.049-.011 1.544-.224v1.758h3.007v-1.703h.147c.183-.002.197.014.197.188v1.515h9.103c.573 0 1.19-.148 1.523-.412v.412h2.885c.599 0 1.19-.087 1.637-.298v11.92H15.266V25.159h1.903l.43-1.043h.96l.43 1.043h3.747v-.793l.336.795h1.94l.338-.808v.806h9.308l-.002-1.703h.182c.134 0 .166.016.166.223v1.48h4.815l-.001-.404c.383.209.986.404 1.788.404h2.025l.437-1.043h.96l.431 1.043h3.892v-.988l.599.988h3.126v-6.506h-3.092v.767l-.443-.767h-3.178v.767l-.39-.767h-4.291c-.723 0-1.36.097-1.864.374v-.374H36.86v.374c-.336-.284-.774-.374-1.263-.374h-10.82l-.732 1.678-.74-1.678H19.9v.767l-.385-.767h-2.906l-1.343 3.086V5h39.657zm-2.835-2.437H50.5l-2.11-3.5.002 3.5h-2.269l-.429-1.045h-2.32l-.428 1.045H41.65c-.548 0-1.233-.127-1.621-.52-.392-.399-.59-.93-.59-1.78 0-.693.122-1.326.598-1.823.358-.37.928-.546 1.696-.546h1.066v1l-1.044-.001c-.411 0-.643.062-.861.28-.196.194-.327.566-.327 1.057 0 .497.098.854.317 1.094.164.181.474.238.774.238h.5l1.57-3.668h1.661l1.89 4.415v-4.415h1.702l1.96 3.25v-3.25h1.148zm-14.336 0h1.14v-4.67h-1.14zm-1.216-4.443c-.36-.206-.778-.226-1.343-.226h-2.568v4.669h1.114v-1.7h1.197c.405 0 .65.036.81.205.206.22.183.627.183.905v.59h1.122v-.927c0-.405-.029-.62-.185-.846-.095-.136-.304-.303-.55-.396.294-.115.795-.499.795-1.239 0-.522-.216-.829-.575-1.035m-4.683 3.467-2.609.003v-.925l2.546.002v-.96h-2.546v-.84h2.61v-.973H28.13v4.669h3.723zm-4.555-3.693h-1.856L24.1 22.738l-1.454-3.166h-1.824l.001 4.416-1.89-4.416h-1.661l-1.997 4.669h1.216l.427-1.045h2.32l.43 1.045h2.268v-3.66l1.621 3.66h.98l1.617-3.656v3.656h1.144zm17.995 2.652-.76-1.855-.76 1.855zm-9.649-.738c-.15.09-.331.097-.546.097H33.74v-1.039h1.375c.197 0 .398.006.53.08.14.078.23.222.23.419 0 .2-.088.361-.23.444m-18.326.738.759-1.855.76 1.855zm37.848 8.57c0 .993-.623 1.47-1.752 1.47h-2.153v-1h2.145c.207 0 .355-.03.449-.114a.41.41 0 0 0 .13-.305.4.4 0 0 0-.135-.31c-.084-.07-.197-.099-.389-.104-1.041-.028-2.351.034-2.351-1.447 0-.67.424-1.39 1.597-1.39h2.222v1.003h-2.034c-.2 0-.335.006-.444.08-.118.076-.165.187-.165.337 0 .174.1.295.244.346.114.039.242.049.428.052l.598.015c.619.015 1.023.117 1.274.376.221.232.336.505.336.991m-4.692-.99c-.251-.258-.659-.362-1.277-.377l-.597-.015a1.4 1.4 0 0 1-.428-.052.35.35 0 0 1-.243-.346c0-.15.047-.26.164-.338.11-.072.245-.079.447-.079h2.044v-1.002h-2.233c-1.173 0-1.598.718-1.598 1.389 0 1.482 1.31 1.419 2.35 1.447.191.005.307.034.389.104.079.067.137.17.137.31a.41.41 0 0 1-.132.305c-.094.085-.24.113-.449.113h-2.164v1h2.172c1.129 0 1.752-.476 1.752-1.469 0-.486-.113-.759-.334-.99m-4.253 1.49-2.609-.003v-.921h2.548v-.962l-2.548.002v-.841h2.61v-.974h-3.724v4.669h3.723zm-4.915-3.472c-.361-.207-.778-.227-1.341-.227h-2.57v4.669h1.113v-1.697l1.2-.002c.405 0 .648.037.809.204.207.221.181.627.181.905v.59h1.124v-.925c-.001-.406-.028-.62-.186-.846-.093-.137-.303-.305-.546-.398.29-.115.79-.497.79-1.239 0-.52-.216-.827-.574-1.034m-6.31-.227h-3.564l-1.422 1.533-1.367-1.533h-4.49v4.669h4.42l1.425-1.54 1.372 1.54h2.17V30.7h1.386c.974 0 1.94-.27 1.94-1.562 0-1.291-.991-1.544-1.87-1.544m5.42 1.918c-.152.086-.333.093-.548.093l-1.36.001V28.57h1.376c.197 0 .398.006.532.079a.46.46 0 0 1 .227.42c0 .2-.087.361-.227.445m-5.433.23H33.54V28.57h1.456c.4 0 .674.166.674.57 0 .4-.262.604-.687.604m-4.265.197 1.708-1.838v3.736zm-2.71 1.351H25.27v-.921h2.441v-.962l-2.441.002v-.841h2.787l1.223 1.357z"/><defs><radialGradient id="a" cx="0" cy="0" r="1" gradientTransform="rotate(46.984 -1.692 30.492)scale(44.2702 40.6795)" gradientUnits="userSpaceOnUse"><stop stop-color="#7fd3f3"/><stop offset="1" stop-color="#017cc2"/></radialGradient></defs></svg>
