<svg xmlns="http://www.w3.org/2000/svg" width="66" height="50" fill="none" viewBox="0 0 66 50"><!-- Original logo design by American Express. All rights reserved. This SVG has been modified for layout consistency by Polako Finance. No claim of ownership or endorsement is implied. --><path fill="#fff" d="M17.74 7h35.69v35.825H17.74z"/><path fill="#1790cd" d="M15.446 42.084h-.314a2 2 0 0 1-.047-.42c0-.115-.018-.233-.233-.233h-.461v.653h-.277v-1.592h.738c.253 0 .534.09.534.444 0 .2-.083.297-.171.358.072.04.135.11.143.29l.011.275c.003.08.012.095.077.132zm-.342-1.127c0-.2-.138-.217-.237-.217h-.476v.443h.44c.146 0 .273-.034.273-.226m1.307.348c0-.942-.765-1.696-1.706-1.696a1.696 1.696 0 1 0 0 3.39c.941 0 1.706-.752 1.706-1.694m-.259 0c0 .8-.614 1.448-1.447 1.448a1.426 1.426 0 0 1-1.447-1.448c0-.8.611-1.447 1.447-1.447s1.447.647 1.447 1.447"/><path fill="url(#a)" d="M53.43 26.51h-1.859c-.555 0-.971.13-1.258.337v-.337H47.57c-.435 0-.959.105-1.202.337v-.337h-4.9v.337c-.391-.277-1.048-.337-1.357-.337h-3.235v.337c-.31-.299-.989-.337-1.405-.337h-3.626l-.83.898-.771-.898h-5.409v5.856h5.308l.85-.912.806.909 3.267.003v-1.381h.326c.431 0 .943-.01 1.389-.202v1.583h2.706v-1.533h.132c.165-.002.178.013.178.169v1.364h8.192c.516 0 1.071-.134 1.371-.371v.37h2.597c.538 0 1.07-.078 1.473-.268v10.728H17.739V25.143h1.713l.387-.939h.864l.387.94h3.373v-.715l.302.716h1.746l.304-.727v.725h8.377l-.001-1.532h.163c.121 0 .15.014.15.2v1.332h4.334l-.002-.363c.345.187.888.363 1.61.363h1.822l.394-.939h.863l.388.94h3.503v-.89l.539.89h2.814v-5.856h-2.783v.69l-.4-.69h-2.859v.69l-.35-.69h-3.863c-.65 0-1.223.087-1.678.337v-.337h-2.662v.337c-.303-.256-.696-.337-1.136-.337H26.3l-.66 1.51-.666-1.51H21.91v.69l-.347-.69h-2.615l-1.209 2.777V7h35.692zm-2.55-2.193h-1.43l-1.899-3.15.002 3.15H45.51l-.386-.94h-2.088l-.385.94h-1.168c-.493 0-1.11-.114-1.459-.468-.352-.36-.531-.838-.531-1.602 0-.624.11-1.193.538-1.64.323-.335.836-.492 1.527-.492h.96v.9l-.94-.001c-.37 0-.58.055-.776.251-.176.175-.293.51-.293.952 0 .448.088.769.285.985.148.163.426.214.696.214h.45l1.414-3.301h1.494l1.7 3.973v-3.973h1.534l1.764 2.925-.002-2.925h1.035zm-12.903 0h1.027v-4.204h-1.027zm-1.094-4c-.324-.184-.7-.202-1.21-.202h-2.31v4.202h1.002v-1.53h1.077c.365 0 .586.032.73.184.185.198.164.564.164.814v.532h1.01v-.834c0-.365-.026-.559-.166-.762a1.13 1.13 0 0 0-.495-.356c.265-.104.715-.45.715-1.115 0-.47-.195-.746-.517-.932m-4.215 3.122-2.348.003v-.833l2.291.002v-.864H30.32v-.757h2.348v-.875h-3.351v4.202h3.351zm-4.1-3.324h-1.67l-1.208 2.85-1.308-2.85H22.74l.001 3.974-1.702-3.974h-1.494l-1.797 4.202h1.094l.385-.94h2.088l.386.94h2.042v-3.295l1.459 3.295h.882l1.454-3.29v3.29h1.03zM44.764 22.5l-.685-1.669-.683 1.67zm-8.684-.663c-.135.08-.298.086-.491.086h-1.224v-.934h1.238c.177 0 .358.005.477.072.125.07.206.199.206.377 0 .18-.078.325-.206.399m-16.494.663.683-1.669.685 1.67zm34.064 7.714c0 .893-.561 1.322-1.577 1.322h-1.938v-.9h1.93c.187 0 .32-.026.404-.102a.37.37 0 0 0 .118-.275.35.35 0 0 0-.122-.278c-.075-.064-.178-.09-.35-.094-.937-.025-2.116.03-2.116-1.303 0-.602.382-1.25 1.438-1.25h2v.902h-1.831c-.18 0-.302.006-.4.072-.106.07-.149.168-.149.303 0 .157.091.266.22.312.103.035.218.044.385.046l.539.015c.557.012.92.105 1.146.338.199.209.303.454.303.892m-4.224-.892c-.226-.232-.592-.326-1.149-.338l-.537-.015a1.2 1.2 0 0 1-.385-.046.32.32 0 0 1-.219-.311c0-.136.043-.235.148-.305.098-.065.22-.07.402-.07h1.84v-.903h-2.01c-1.056 0-1.438.647-1.438 1.25 0 1.334 1.18 1.278 2.115 1.303.172.004.276.03.35.094.07.06.123.153.123.278a.37.37 0 0 1-.119.274c-.084.077-.216.103-.403.103h-1.948v.9h1.955c1.015 0 1.576-.429 1.576-1.322 0-.438-.102-.683-.3-.892m-3.827 1.34h-2.348v-.83h2.293v-.865l-2.293.001v-.757H45.6v-.877h-3.35v4.202h3.35zm-4.423-3.123c-.326-.186-.7-.205-1.208-.205h-2.312v4.202h1.001V30.01l1.08-.001c.365 0 .584.032.728.183.186.199.164.564.164.814v.531h1.011v-.832c-.001-.365-.025-.558-.167-.761a1.1 1.1 0 0 0-.492-.358c.261-.104.712-.448.712-1.116 0-.468-.195-.744-.517-.93m-5.68-.205H32.29l-1.28 1.38-1.23-1.38h-4.04v4.202h3.977l1.283-1.385 1.234 1.385h1.954v-1.406h1.247c.876 0 1.746-.243 1.746-1.406s-.892-1.39-1.684-1.39m4.878 1.726c-.136.079-.3.084-.492.084l-1.225.002v-.935h1.239c.177 0 .358.006.478.07.125.072.205.201.205.379 0 .18-.078.325-.205.4m-4.889.208h-1.298v-1.057h1.31c.359 0 .606.149.606.513 0 .36-.236.544-.618.544m-3.838.177 1.537-1.655v3.363zm-2.44 1.216h-2.464v-.83h2.197v-.864l-2.197.001v-.757h2.509l1.1 1.221z"/><defs><radialGradient id="a" cx="0" cy="0" r="1" gradientTransform="rotate(46.984 -2.399 33.294)scale(39.8431 36.6115)" gradientUnits="userSpaceOnUse"><stop stop-color="#7fd3f3"/><stop offset="1" stop-color="#017cc2"/></radialGradient></defs></svg>