<svg xmlns="http://www.w3.org/2000/svg" width="107" height="50" fill="none" viewBox="0 0 107 50"><!-- Original logo design by the National Bank of Serbia. All rights reserved. This SVG has been modified for layout consistency by Polako Finance. No claim of ownership or endorsement is implied. --><path fill="#c52f33" fill-rule="evenodd" d="M78.473 16.377c-2.645-5.61-8.233-8.994-14.573-8.994-8.033 0-15.495 5.397-18.132 12.845C48.898 11.118 57.362 5 66.475 5c7.193 0 13.53 3.837 16.704 10.143l-1.19 1.866zm-2.25 14.208q.636-.578.886-1.37t.4-1.5l.839-3.692q.15-.596.186-.925.038-.325.037-.495 0-.166-.084-.42-.082-.252-.42-.569h2.703q.392 0 .747-.092c.236-.06.479-.156.726-.278l-.428 1.902q.186-.317.465-.644a4 4 0 0 1 .634-.587q.356-.261.783-.42a2.4 2.4 0 0 1 .932-.14l.43.02-.616 2.798q-.317-.262-.596-.337a1.8 1.8 0 0 0-.429-.075q-.54-.001-.96.262a2.3 2.3 0 0 0-.683.651q-.15.205-.261.476a9 9 0 0 0-.365 1.064 3 3 0 0 0-.084.365l-.242 1.139a15 15 0 0 0-.175.904q-.046.27-.084.524a3 3 0 0 0-.036.437q0 .41.111.652c.076.161.142.278.207.353h-4.623zm-61.32-1.94a3.504 3.504 0 0 0 1.103.187q.672-.001 1.418-.374t1.38-1.183q.636-.81 1.053-2.072.42-1.258.42-3.03 0-1.135-.309-1.762-.309-.625-.726-.913a1.9 1.9 0 0 0-.858-.345 6 6 0 0 0-.68-.056q-.204 0-.308.008a2.6 2.6 0 0 0-.382.084zm-4.902 1.94q.41-.296.67-.615.263-.316.43-.68c.11-.242.203-.495.27-.754q.103-.393.194-.821l1.624-7.312q.186-.82.214-1.175.029-.356.028-.465 0-.263-.103-.56-.105-.297-.437-.67h5.708q1.137-.001 2.024.178a4.4 4.4 0 0 1 1.612.662 3.75 3.75 0 0 1 1.417 1.771q.43 1.099.429 2.48a9 9 0 0 1-.214 1.93 9 9 0 0 1-.616 1.827 7.9 7.9 0 0 1-1.008 1.623 7 7 0 0 1-1.39 1.314 6.3 6.3 0 0 1-2.143.98q-1.174.29-2.89.29H10zm18.574-13.54q.783 0 1.25.457.467.456.465 1.239 0 .913-.56 1.492-.56.578-1.417.58-.839 0-1.325-.496-.485-.494-.485-1.278 0-.894.56-1.445.56-.548 1.512-.549m-.654 4.57q.726-.001 1.147-.14.418-.138.623-.234l-1.397 6.34a4 4 0 0 0-.084.373q-.046.242-.047.429 0 .204.075.31.075.104.178.158.104.055.206.064.104.008.178.008.298-.001.465-.055.167-.056.262-.095l-1.325 1.698c-.36.176-.677.279-.952.318a6 6 0 0 1-.727.055 3.3 3.3 0 0 1-.568-.055 1.36 1.36 0 0 1-.568-.243q-.263-.186-.437-.531-.177-.346-.178-.925 0-.429.075-.765l.167-.747.782-3.56q.017-.113.056-.28a10 10 0 0 0 .139-.773q.029-.195.028-.365.001-.373-.187-.624a4 4 0 0 0-.298-.365h2.387zm1.698 8.97h4.625a1.8 1.8 0 0 1-.206-.353q-.112-.243-.112-.652 0-.187.037-.437a28 28 0 0 1 .175-1.027q.046-.234.084-.401l.428-2.069q.205-.953.552-1.52.344-.568 1.091-.568.076-.001.215.02a.6.6 0 0 1 .27.102q.13.085.233.25.104.168.103.485a1.5 1.5 0 0 1-.075.465l-.651 2.874q-.092.391-.167.68-.075.287-.075.606 0 .281.083.607.084.325.31.588.224.262.614.437.391.177 1.008.178.54 0 .933-.111.392-.113.69-.262l1.326-1.715q-.15.055-.4.111a2.3 2.3 0 0 1-.477.056q-.393-.001-.493-.206a.86.86 0 0 1-.103-.393q0-.054.008-.234.009-.176.103-.532l.56-2.556q.15-.634.178-.96.029-.326.028-.476 0-.505-.195-.905a2.2 2.2 0 0 0-.54-.7 2.5 2.5 0 0 0-.802-.456 3 3 0 0 0-.98-.159q-.15 0-.42.028a2.8 2.8 0 0 0-.635.16q-.364.128-.782.4a4.3 4.3 0 0 0-.85.755l.337-1.454q-.372.187-.727.279a3 3 0 0 1-.746.091h-2.703q.335.317.42.569.084.249.084.42 0 .166-.037.495a8 8 0 0 1-.186.925l-.838 3.692q-.15.709-.401 1.5c-.176.53-.47.986-.894 1.373m16.784.092a8 8 0 0 1-.476.112 3.853 3.853 0 0 1-1.838-.13 3 3 0 0 1-1.035-.58 2.75 2.75 0 0 1-.727-1.025q-.27-.635-.27-1.529 0-.56.111-1.175.112-.615.354-1.23a6.15 6.15 0 0 1 1.604-2.295c.222-.197.47-.39.737-.568q.4-.271.914-.465.512-.195 1.138-.317t1.41-.123q.391 0 .737.037t.663.075q.392.037.69.075.298.037.596.036.372 0 .802-.064.43-.066.913-.326l-1.397 6.38-.084.372q-.046.205-.047.41 0 .242.13.41.132.165.505.166.203-.001.428-.047t.43-.123l-1.326 1.715q-.43.224-.83.298a4 4 0 0 1-.774.076 5 5 0 0 1-.551-.037 1.7 1.7 0 0 1-.671-.222 1.6 1.6 0 0 1-.56-.568q-.234-.384-.234-1.072 0-.13.02-.243a12.567 12.567 0 0 1 .123-.615q.046-.205.122-.523l.952-4.233a3 3 0 0 0-.393-.195 1.3 1.3 0 0 0-.523-.102q-.505 0-.97.4-.466.402-.81 1.025a6.2 6.2 0 0 0-.55 1.398 6 6 0 0 0-.207 1.52q0 .878.465 1.259.467.383 1.1.381.091 0 .159-.008a1 1 0 0 0 .122-.028z" clip-rule="evenodd"/><path fill="#064b76" fill-rule="evenodd" d="M51.31 33.623c2.644 5.61 8.232 8.994 14.572 8.994 8.033 0 15.495-5.397 18.132-12.845C80.884 38.882 72.42 45 63.307 45c-7.192 0-13.53-3.837-16.704-10.144l1.187-1.865zM94.705 17.53q.317 0 .754-.095.44-.093.7-.262l-2.295 10.389q-.093.371-.111.55-.018.177-.02.235a.57.57 0 0 0 .075.317.53.53 0 0 0 .374.242c.075.012.141.02.206.02q.149.001.364-.028.213-.028.552-.14l-1.343 1.716a2.9 2.9 0 0 1-.913.317 5 5 0 0 1-.67.056q-.652 0-1.045-.167a1.6 1.6 0 0 1-.607-.429 1.3 1.3 0 0 1-.278-.568 2.8 2.8 0 0 1-.064-.587q0-.336.064-.663.066-.327.178-.866l.913-4.196q-.278-.224-.504-.278a1.7 1.7 0 0 0-.373-.056c-.337 0-.651.134-.952.4q-.448.402-.783 1.025a6 6 0 0 0-.523 1.41 6.6 6.6 0 0 0-.187 1.528q0 .205.037.476.037.27.186.532.15.262.429.437.28.177.782.178.113 0 .187-.008.075-.01.15-.028l-.988 1.735q-.542.13-1.139.13-.242 0-.774-.075a2.8 2.8 0 0 1-1.064-.4q-.53-.328-.932-1.008-.401-.681-.401-1.894 0-1.323.54-2.573a6.15 6.15 0 0 1 1.528-2.143q.97-.877 1.93-1.14a7.4 7.4 0 0 1 1.93-.261q.371-.001.615.02c.161.01.404.05.727.11l.353-1.547q.15-.597.178-.877.029-.281.028-.373 0-.244-.075-.54-.074-.297-.429-.616h2.69zm-24.73 13.147.952-1.698a1 1 0 0 1-.123.028 1.683 1.683 0 0 1-1.258-.373q-.466-.383-.465-1.259.001-.747.206-1.52.204-.774.55-1.398.348-.625.811-1.025.468-.4.97-.4.277 0 .523.102.242.104.392.195l-.952 4.232-.123.524q-.045.205-.075.354-.028.15-.047.261-.018.113-.02.243 0 .69.234 1.072.234.384.56.567.327.187.671.223c.231.025.412.037.551.037q.373 0 .774-.076.4-.075.83-.298l1.325-1.715q-.204.074-.428.123-.225.046-.43.047-.372 0-.503-.167a.65.65 0 0 1-.131-.41q.001-.204.047-.409l.084-.373 1.398-6.379q-.486.261-.914.326a5 5 0 0 1-.802.064q-.297 0-.595-.036-.298-.038-.69-.075-.319-.038-.664-.075a7 7 0 0 0-.737-.037 7.4 7.4 0 0 0-1.41.123q-.625.12-1.138.317a4.6 4.6 0 0 0-.913.465q-.401.271-.738.568a6.1 6.1 0 0 0-1.604 2.295 6.6 6.6 0 0 0-.465 2.405q0 .894.27 1.529.271.636.727 1.025.454.39 1.036.579.576.187 1.194.186.372-.001.643-.055.272-.057.476-.112m-6.75-.54 1.398-2.517q-.764.483-1.39.746a10 10 0 0 1-1.1.393 4 4 0 0 1-.793.15q-.318.018-.465.02-.746 0-1.267-.223a2.7 2.7 0 0 1-1.428-1.39 4.6 4.6 0 0 1-.29-.857 6 6 0 0 1-.122-.774 7 7 0 0 1-.028-.54q0-1.4.373-2.498.374-1.1.989-1.865.614-.765 1.417-1.175a3.6 3.6 0 0 1 1.64-.41q.13 0 .437.028.308.03.699.159.391.13.821.4.43.271.802.775l.317-2.76a9 9 0 0 0-1.715-.42 11 11 0 0 0-1.473-.103q-1.398 0-2.806.382-1.408.383-2.657 1.484a7 7 0 0 0-1.147 1.306 8 8 0 0 0-.821 1.54 9.06 9.06 0 0 0-.643 3.327q0 1.046.317 2.04a4.8 4.8 0 0 0 1.008 1.771q.69.773 1.799 1.25 1.11.477 2.715.477.784-.001 1.64-.14.859-.148 1.773-.576" clip-rule="evenodd"/></svg>
