<svg xmlns="http://www.w3.org/2000/svg" width="107" height="50" fill="none" viewBox="0 0 107 50"><!-- Original logo design by the National Bank of Serbia. All rights reserved. This SVG has been modified for layout consistency by Polako Finance. No claim of ownership or endorsement is implied. --><path fill="#c52f33" fill-rule="evenodd" d="M74.914 17.955c-2.315-4.91-7.204-7.87-12.752-7.87-7.029 0-13.558 4.722-15.865 11.24C49.035 13.352 56.442 8 64.416 8c6.293 0 11.838 3.357 14.615 8.875l-1.04 1.633zm-1.969 12.432c.37-.336.629-.738.775-1.198q.22-.694.35-1.314l.734-3.23a7 7 0 0 0 .163-.809q.032-.285.032-.434 0-.145-.073-.368-.072-.219-.368-.497h2.366q.342 0 .653-.08.31-.081.636-.244l-.376 1.664q.164-.277.407-.562.245-.285.556-.514.311-.228.684-.368a2.1 2.1 0 0 1 .816-.122l.376.017-.539 2.448a1.4 1.4 0 0 0-.521-.294 1.6 1.6 0 0 0-.375-.066q-.472-.001-.84.229a2 2 0 0 0-.598.57 2 2 0 0 0-.229.416 8 8 0 0 0-.319.931 2 2 0 0 0-.073.32l-.212.996a14 14 0 0 0-.153.792q-.04.236-.074.458a3 3 0 0 0-.031.382q-.001.358.097.57.097.212.18.31h-4.044zM19.29 28.69a3.073 3.073 0 0 0 .965.163q.587-.001 1.24-.326.653-.326 1.209-1.036.555-.708.92-1.812.367-1.1.368-2.65 0-.995-.27-1.543t-.636-.8a1.7 1.7 0 0 0-.75-.301 5 5 0 0 0-.595-.049q-.18 0-.27.007-.09.008-.334.073zM15 30.387q.36-.26.587-.538.23-.277.375-.595.148-.319.237-.66.09-.343.17-.719l1.42-6.397q.164-.717.188-1.029a6 6 0 0 0 .024-.406q0-.23-.09-.49t-.382-.587h4.994a9 9 0 0 1 1.771.156q.775.154 1.411.58.866.588 1.24 1.55.376.96.375 2.17 0 .848-.187 1.688a7.8 7.8 0 0 1-.539 1.598q-.351.76-.882 1.42-.529.662-1.215 1.15a5.5 5.5 0 0 1-1.876.858q-1.027.253-2.53.254H15zM31.253 18.54q.685 0 1.093.399.408.4.407 1.084 0 .8-.49 1.306t-1.24.507c-.49 0-.874-.144-1.16-.434q-.423-.43-.423-1.118 0-.782.49-1.265.489-.48 1.323-.48m-.573 3.997q.636 0 1.004-.121.365-.12.546-.205l-1.223 5.547a4 4 0 0 0-.074.327 2 2 0 0 0-.041.375q0 .18.066.27.065.092.156.14.09.047.18.055t.156.008q.26 0 .407-.049a4 4 0 0 0 .229-.083l-1.16 1.486a2.9 2.9 0 0 1-.833.278q-.358.048-.636.049a3 3 0 0 1-.497-.049 1.2 1.2 0 0 1-.497-.212 1.25 1.25 0 0 1-.383-.465q-.154-.302-.155-.81 0-.374.065-.67l.147-.652.684-3.116q.016-.098.049-.244a9 9 0 0 0 .122-.677q.025-.17.024-.32.001-.325-.163-.545a3 3 0 0 0-.26-.319h2.087zm1.486 7.85h4.047a1.5 1.5 0 0 1-.18-.31q-.099-.21-.098-.57 0-.163.032-.382a25 25 0 0 1 .153-.899q.04-.204.074-.35l.375-1.81q.179-.834.482-1.331.302-.497.955-.497.066 0 .188.017t.236.09a.7.7 0 0 1 .205.22q.09.145.09.423a1.3 1.3 0 0 1-.066.407l-.57 2.515a24 24 0 0 1-.146.594 2 2 0 0 0-.066.531q0 .245.073.531.074.284.27.514.197.23.539.383.342.154.882.156a3 3 0 0 0 1.42-.327l1.16-1.5a3 3 0 0 1-.35.097 2 2 0 0 1-.418.049q-.343 0-.43-.18a.75.75 0 0 1-.09-.344l.006-.205q.007-.154.09-.465l.49-2.237q.132-.555.156-.84.025-.286.025-.417 0-.442-.171-.792a1.9 1.9 0 0 0-.473-.611 2.2 2.2 0 0 0-.701-.4 2.6 2.6 0 0 0-.858-.139q-.132 0-.368.025a2.5 2.5 0 0 0-.555.139q-.319.113-.685.35a3.7 3.7 0 0 0-.743.66l.295-1.271q-.325.164-.636.244-.31.08-.653.08h-2.366q.294.277.368.497.073.219.073.368 0 .145-.031.434-.033.286-.163.808l-.734 3.23q-.132.621-.35 1.314a2.8 2.8 0 0 1-.783 1.201m14.686.08q-.18.049-.416.098a3.373 3.373 0 0 1-1.608-.114 2.6 2.6 0 0 1-.907-.507 2.4 2.4 0 0 1-.635-.897q-.238-.555-.237-1.337 0-.49.098-1.028c.066-.358.168-.72.31-1.077a5.38 5.38 0 0 1 2.048-2.505q.35-.238.8-.407.448-.171.996-.277a6.5 6.5 0 0 1 1.232-.108q.344 0 .646.032l.58.066q.343.033.604.066.26.032.521.031.325-.001.702-.056.376-.059.8-.285l-1.224 5.582-.073.326q-.04.18-.041.358 0 .212.114.359.115.146.441.146.18 0 .375-.042.197-.04.375-.107l-1.16 1.5q-.375.198-.725.262-.351.065-.678.065-.179 0-.482-.031a1.5 1.5 0 0 1-.587-.195 1.4 1.4 0 0 1-.49-.497q-.204-.335-.204-.938 0-.113.017-.212a11.081 11.081 0 0 1 .107-.538l.107-.459.833-3.703a2.5 2.5 0 0 0-.343-.17 1.15 1.15 0 0 0-.458-.09q-.443 0-.848.35-.41.352-.71.897-.3.547-.481 1.223-.18.675-.18 1.33 0 .769.406 1.101a1.47 1.47 0 0 0 1.101.327q.058-.009.107-.024z" clip-rule="evenodd"/><path fill="#064b76" fill-rule="evenodd" d="M51.145 33.045c2.315 4.91 7.204 7.87 12.752 7.87 7.029 0 13.558-4.722 15.865-11.24C77.024 37.648 69.617 43 61.643 43c-6.293 0-11.838-3.357-14.615-8.876l1.038-1.632zm37.973-14.082q.277 0 .66-.083.384-.08.611-.229l-2.007 9.09a4 4 0 0 0-.098.483q-.016.153-.017.204 0 .18.066.278a.46.46 0 0 0 .326.212q.098.016.18.017.13 0 .32-.024.186-.024.482-.122l-1.174 1.5c-.295.154-.56.244-.8.278a5 5 0 0 1-.586.05q-.57 0-.914-.147a1.4 1.4 0 0 1-.531-.375 1.16 1.16 0 0 1-.244-.497 2.4 2.4 0 0 1-.056-.514q.001-.294.056-.58.058-.286.156-.758l.8-3.671a1.2 1.2 0 0 0-.442-.244 1.5 1.5 0 0 0-.326-.049c-.295 0-.57.117-.833.351q-.391.352-.685.897a5.2 5.2 0 0 0-.458 1.232q-.164.687-.163 1.338 0 .18.032.416.032.237.163.466t.375.382q.245.155.685.156.097 0 .163-.007.066-.009.131-.024l-.864 1.517a4.3 4.3 0 0 1-.997.115q-.212 0-.677-.066a2.4 2.4 0 0 1-.93-.35q-.466-.286-.817-.883-.35-.596-.35-1.656 0-1.16.472-2.251a5.4 5.4 0 0 1 1.337-1.876q.848-.767 1.689-.997a6.5 6.5 0 0 1 1.688-.229q.326 0 .538.017.213.016.636.098l.31-1.355q.13-.522.156-.767.025-.246.024-.327 0-.212-.066-.473-.065-.26-.375-.538h2.354zm-21.64 11.505.833-1.487a1 1 0 0 1-.107.025 1.473 1.473 0 0 1-1.101-.326q-.408-.336-.407-1.102 0-.655.18-1.33.18-.677.483-1.223.303-.547.709-.897.409-.35.848-.35.243 0 .458.09.211.09.343.17l-.833 3.703-.107.458q-.04.18-.066.31-.025.13-.041.229-.016.098-.017.212 0 .604.204.938.205.336.49.497.286.164.587.194.301.032.482.032.326 0 .678-.066.35-.065.726-.26l1.16-1.501q-.179.065-.376.107a2 2 0 0 1-.375.042q-.326 0-.441-.147a.57.57 0 0 1-.114-.358q0-.18.041-.358l.073-.326 1.223-5.582c-.282.151-.55.249-.799.285a4.6 4.6 0 0 1-.702.056q-.26 0-.521-.032a20 20 0 0 0-.604-.065l-.58-.066a6 6 0 0 0-.646-.032q-.686 0-1.233.108-.547.105-.996.277t-.8.407a7 7 0 0 0-.645.497 5.3 5.3 0 0 0-1.403 2.008 5.8 5.8 0 0 0-.407 2.105q0 .781.236 1.337.238.556.636.897.399.343.907.506.504.164 1.045.164.325 0 .563-.05c.158-.03.297-.065.416-.096m-5.905-.473 1.223-2.203q-.668.424-1.216.653a8 8 0 0 1-.962.344 3.7 3.7 0 0 1-.695.131q-.278.016-.407.017-.653 0-1.108-.195a2.37 2.37 0 0 1-1.25-1.215 4 4 0 0 1-.253-.75 5 5 0 0 1-.108-.678 6 6 0 0 1-.024-.473q.001-1.224.326-2.185.327-.962.865-1.632.539-.67 1.24-1.028a3.1 3.1 0 0 1 1.435-.358q.115 0 .383.024.27.025.611.139.344.113.72.35.375.237.7.678l.279-2.415a8 8 0 0 0-1.501-.367 10 10 0 0 0-1.289-.09q-1.224 0-2.456.333-1.231.335-2.324 1.299-.571.505-1.004 1.143a7 7 0 0 0-.719 1.347q-.284.709-.423 1.452a8 8 0 0 0-.14 1.46q0 .914.279 1.785.276.873.881 1.55.605.676 1.574 1.093.972.417 2.376.417.686 0 1.435-.122a6.1 6.1 0 0 0 1.552-.504" clip-rule="evenodd"/></svg>