<svg xmlns="http://www.w3.org/2000/svg" width="202" height="50" fill="none" viewBox="0 0 202 50"><!-- Original logo design by Intesa Sanpaolo. All rights reserved. This SVG has been modified for layout consistency by Polako Finance. No claim of ownership or endorsement is implied. --><path fill="#58595b" d="M156.156 37.657c.022.917-.459 2.205-1.61 2.205-1.212 0-1.714-1.2-1.714-2.172 0-1.087.562-2.194 1.725-2.194 1.162 0 1.621 1.107 1.599 2.16m-4.399 5.338h1.075v-3.199h.022c.333.535.917.939 1.943.939 1.757 0 2.5-1.555 2.5-3.155s-.825-2.947-2.511-2.947c-1.026 0-1.692.524-1.976.96h-.022v-.823h-1.026v8.225zm-1.692-8.225h-1.075v2.696c0 1.419-.552 2.401-1.769 2.401-.938-.054-1.233-.72-1.233-2.08V34.77h-1.075v3.46c0 1.566.676 2.5 2.183 2.5.813 0 1.588-.399 1.91-1.065h.022v.928h1.042v-5.829zm-11.243 2.914c0-1.108.676-2.183 1.828-2.183s1.818 1.075 1.818 2.183c0 1.037-.563 2.183-1.818 2.183s-1.828-1.14-1.828-2.183m-1.141 0c0 1.67 1.212 3.051 2.969 3.051 1.758 0 2.958-1.38 2.958-3.05 0-1.77-1.19-3.052-2.958-3.052s-2.969 1.277-2.969 3.051m-3.919 2.915h1.075v-2.653c0-1.463.628-2.374 1.589-2.374.185 0 .398.022.595.104v-.961c-.23-.044-.388-.082-.71-.082-.617 0-1.233.437-1.517 1.043h-.022v-.9h-1.004v5.828zm-1.861-7.712c-.66-.23-1.179-.399-2.341-.399-2.434 0-4.214 1.632-4.214 4.088s1.681 4.159 4.203 4.159c1.244 0 1.997-.207 2.434-.355v-4.148h-2.822v.94h1.681v2.422c-.283.055-.491.137-1.277.137-1.659 0-3.002-1.245-3.002-3.117s1.223-3.116 3.062-3.116c1.026 0 1.632.18 2.194.546l.093-1.152zm-15.375 4.797c0-1.108.677-2.183 1.829-2.183s1.817 1.075 1.817 2.183c0 1.037-.562 2.183-1.817 2.183-1.256 0-1.829-1.14-1.829-2.183m-1.14 0c0 1.67 1.211 3.051 2.969 3.051s2.958-1.38 2.958-3.05c0-1.77-1.19-3.052-2.958-3.052s-2.969 1.277-2.969 3.051m-2.511 2.915h1.075v-8.57h-1.075zm-6.227-2.915c0-1.108.676-2.183 1.828-2.183s1.818 1.075 1.818 2.183c0 1.037-.563 2.183-1.818 2.183s-1.828-1.14-1.828-2.183m-1.141 0c0 1.67 1.212 3.051 2.969 3.051s2.958-1.38 2.958-3.05c0-1.77-1.19-3.052-2.958-3.052s-2.969 1.277-2.969 3.051m-2.363.65c0 .867-.562 1.533-1.621 1.533-.491 0-1.086-.333-1.086-.95 0-1.026 1.441-1.118 2.019-1.118.229 0 .459.022.688.022zm-3.128-2.238c.437-.366 1.087-.595 1.692-.595 1.076 0 1.441.513 1.441 1.517-.42-.022-.72-.022-1.14-.022-1.108 0-2.708.459-2.708 1.922 0 1.266.879 1.817 2.134 1.817.983 0 1.556-.535 1.807-.89h.022v.754h1.004c-.022-.17-.044-.48-.044-1.141v-2.412c0-1.589-.676-2.413-2.341-2.413a3.7 3.7 0 0 0-1.921.551zm-2.778 1.566c.022.917-.458 2.205-1.61 2.205-1.211 0-1.713-1.2-1.713-2.172 0-1.086.562-2.194 1.724-2.194 1.163 0 1.621 1.108 1.6 2.161M92.84 43h1.076v-3.198h.021c.333.535.912.938 1.943.938 1.758 0 2.5-1.555 2.5-3.154 0-1.6-.824-2.947-2.516-2.947-1.026 0-1.692.524-1.976.96h-.022v-.824H92.84zM85.995 40.6h1.075v-2.697c0-1.419.552-2.401 1.769-2.401.939.055 1.233.72 1.233 2.08v3.018h1.075v-3.46c0-1.567-.67-2.5-2.183-2.5-.813 0-1.588.398-1.91 1.064h-.022v-.928h-1.037v5.83zm-2.75-2.26c0 .868-.563 1.534-1.622 1.534-.49 0-1.086-.333-1.086-.95 0-1.026 1.441-1.119 2.02-1.119.229 0 .458.022.687.022zm-3.128-2.238c.437-.365 1.086-.595 1.692-.595 1.075 0 1.44.514 1.44 1.518-.42-.022-.72-.022-1.14-.022-1.108 0-2.707.458-2.707 1.921 0 1.266.879 1.817 2.134 1.817.983 0 1.556-.534 1.807-.89h.022v.754h1.004c-.022-.17-.044-.48-.044-1.14V37.05c0-1.588-.677-2.412-2.341-2.412-.743 0-1.381.229-1.921.55zm-2.025-3.323a5.3 5.3 0 0 0-1.703-.284c-1.44 0-2.56.753-2.56 2.172 0 2.478 3.428 1.987 3.428 3.771 0 .939-.911 1.305-1.566 1.305-.584 0-1.267-.23-1.654-.388l-.115 1.065c.524.169 1.076.332 1.632.332 1.6 0 2.915-.67 2.915-2.374 0-2.625-3.428-2.27-3.428-3.804 0-.835.754-1.064 1.392-1.064.595 0 .911.103 1.495.333l.159-1.054zm-9.677 5.561c0 .868-.562 1.534-1.62 1.534-.492 0-1.087-.333-1.087-.95 0-1.026 1.441-1.119 2.02-1.119.229 0 .458.022.687.022zm-3.127-2.238c.437-.365 1.086-.595 1.692-.595 1.075 0 1.44.514 1.44 1.518-.42-.022-.72-.022-1.14-.022-1.108 0-2.707.458-2.707 1.921 0 1.266.879 1.817 2.134 1.817.983 0 1.556-.534 1.807-.89h.022v.754h1.004c-.022-.17-.044-.48-.044-1.14V37.05c0-1.588-.677-2.412-2.341-2.412-.743 0-1.381.229-1.921.55zm-5.13 4.318c.49.262 1.053.322 1.599.322 1.037 0 2.036-.574 2.036-1.818 0-1.861-2.527-1.517-2.527-2.707 0-.48.48-.71 1.026-.71.25 0 .89.148 1.13.295l.092-.939c-.42-.125-.835-.229-1.337-.229-1.151 0-2.057.584-2.057 1.796 0 1.632 2.527 1.544 2.527 2.603 0 .628-.606.835-1.097.835-.312 0-.917-.136-1.338-.41zm-4.972-3.292c.081-.753.513-1.62 1.566-1.62.928 0 1.452.73 1.452 1.62zm3.71 2.162c-.261.218-1.085.584-1.795.584a1.91 1.91 0 0 1-1.92-1.943h4.158c0-1.872-.628-3.291-2.57-3.291-1.643 0-2.73 1.222-2.73 2.947 0 1.894.95 3.154 3.019 3.154.96 0 1.43-.229 1.839-.376zm-5.675-4.514h-1.545v-1.692l-1.075.344v1.348h-1.315v.868H50.6v3.406c0 1.168.688 1.691 1.796 1.691.343 0 .676-.092.911-.158v-.911a1.3 1.3 0 0 1-.731.207c-.491 0-.9-.365-.9-1.042v-3.188h1.544v-.873m-9.939 5.83h1.075v-2.697c0-1.42.546-2.402 1.769-2.402.938.055 1.233.72 1.233 2.08v3.018h1.075v-3.46c0-1.567-.671-2.5-2.183-2.5-.813 0-1.588.398-1.91 1.064h-.022v-.927h-1.037v5.828zm-2.936 0h1.14V32.63h-1.14z"/><path fill="#e8b909" d="m31.03 13.637-.006-.006c-.142-.087-.36-.136-.502-.07-.928-.088-1.818-.077-2.756-.072H27.7c-.47.006-.955.011-1.44 0l-3.936-.082a44 44 0 0 0-2.925.022c-.732.006-1.447.028-2.173.044-.758.022-2.565.027-3.64.027h-.917c-.13.006-.284.186-.284.328 0 .082.044.169.18.185.104.011.754.011 1.938.011h1.211c.323-.005.475 0 .54-.005h.006c.89-.093 1.785-.088 2.653-.082h.065c.563 0 1.141.005 1.72-.016.12.027.25 0 .37-.022h.017a.6.6 0 0 1 .164-.028c.13.039.284.039.442.033.153 0 .311-.005.453.027h.027c.126-.049.24-.027.36 0h.022a1 1 0 0 0 .164.022c1.124-.032 2.369.011 3.919.131l.731.082h.011c.65-.065 1.326-.016 1.981.033h.016c.492.038.956.07 1.414.06h.027l.246-.202.01-.01a.35.35 0 0 0-.054-.421"/><path fill="#007638" d="m24.518 21.998.022-.01v-.05l-.017-1.533v-.011a8 8 0 0 1-.038-.753c-.005-.306-.01-.617-.055-.896-.005-.398-.087-.824-.163-1.233l-.05-.279v-.027l-.021-.022c-.06-.06-.082-.136-.104-.229a.6.6 0 0 0-.087-.224 3.2 3.2 0 0 0-.41-.529v-.01c-.043-.05-.087-.077-.12-.1-.021-.015-.043-.026-.065-.043l-.033-.027h-.022l-.027-.016c-.131-.104-.251-.142-.393-.191-.038-.06-.12-.066-.17-.071v-.039l-.07-.01-.338-.05h-.05l-.032.033c-.011.016-.017.022-.088-.005a1 1 0 0 0-.109-.028h-.038l-.016.017c-.011-.006-.022-.017-.039-.022l-.142-.044-.01.066a.4.4 0 0 0-.164.032h-.431l.021.082c-.092-.021-.163.039-.201.071-.006 0-.017.011-.017.017-.076.01-.114.043-.147.065-.022.016-.027.022-.05.022h-.032l-.022.027c-.033.039-.13.082-.18.104l-.115.05.028.026-.055.033h-.109v.087h-.011l-.065-.027-.044.055a2.3 2.3 0 0 1-.251.284c-.11.114-.218.234-.306.365l-.027.038.016.039s-.07.043-.082.109c-.043.043-.054.109-.06.147 0 .011 0 .027-.005.038-.044.055-.055.11-.066.153a.15.15 0 0 1-.021.066l-.055.07.027.017c-.016.044-.016.082-.016.11v.032l-.038.022.01.054c.017.11 0 .208-.01.311a1.3 1.3 0 0 0-.017.322c-.043.066-.032.137-.027.186v.05l-.055.043.039.065c.027.05.005.126-.017.202-.021.071-.049.159-.021.24l-.022.022q-.017.016-.017.066c0 .06 0 .076-.005.082l-.038.081v.033l.065.05c-.005.048 0 .098 0 .136.011.054.011.076-.005.098l-.044.082.044.054v.017c0 .038-.006.104.038.153 0 .01 0 .016.005.027l-.082.022.055.114s0 .017-.005.028c-.011.032-.022.103.01.158a.27.27 0 0 0 0 .174.1.1 0 0 0 .011.039c-.076.082-.038.19-.016.25-.038.055-.027.12-.022.165l-.104.038.11.109s-.006.055.01.082c.011.016.028.032.044.038l-.033.01v.012l.039.098v.011q-.016.092.032.158-.016.016-.016.05l-.044.043.044.06c.033.044.022.104 0 .202-.022.082-.044.191 0 .278l-.06.06.076.055v.01c-.021.04-.054.105-.01.175 0 0 .01.082 0 .142a.56.56 0 0 0 .021.295l-.016.104v-.011c-.01.038 0 .076.01.098l-.032.017.022.07c.022.077.027.17.027.262 0 .186 0 .393.17.552l.038.032.049-.016c.125-.038.13-.158.136-.23v-.07c-.049-.17-.027-.393-.01-.584q.009-.082.01-.147V23.1l-.005-.022a.35.35 0 0 1-.017-.213.6.6 0 0 0-.005-.235c.027-.36.01-.78 0-1.157l-.016-.447v-.011a4 4 0 0 1-.011-.551c0-.164.01-.333-.006-.492.038-.18.038-.343.033-.518v-.278c.038-.05.05-.093.027-.142a.8.8 0 0 0 .022-.186c0-.044 0-.087.011-.125v-.044a.25.25 0 0 1 .01-.126c.012-.054.028-.125 0-.19.066-.137.083-.3.094-.46v-.054q.015-.049-.028-.098c0-.076.039-.13.082-.207.05-.077.11-.17.12-.29v-.021l.017-.017c.032-.027.076-.065.076-.13q.001-.018-.005-.034a.7.7 0 0 0 .13-.169c.05-.082.082-.136.18-.169l.05-.01.01-.05c.017-.055.06-.082.132-.131a.5.5 0 0 0 .158-.131c.06.005.098-.01.12-.033.076-.016.131-.06.18-.098.077-.065.104-.076.159-.055l.054.022.033-.032h.005c.022-.006.066-.017.093-.06.022 0 .044-.011.066-.017.043-.016.054-.016.07-.01.017.01.044.021.082.01h.066l.082-.01c.245-.034.458-.06.65.043l.065.038.043-.06s.017.022.028.027c.049.055.136.148.262.131.027.022.06.044.087.06l.033.022.016.027c.038.05.12.077.186.077.147.153.289.36.289.453v.087h.065v.006c.022.109.055.25.142.343-.021.055 0 .126.006.153 0 .011.005.022.005.033l-.022.066.055.054h.01c0 .066.023.12.045.158l.016.033-.011.033c-.076.147.027.23.076.267l.017.017c-.038.027-.038.06-.044.114v.066l.033.043v.011q.002.017.022.05l-.028.027-.021.076.043.06.033.017c0 .032.01.065.022.087v.05c-.033.141-.071.321.016.468l-.005.006a.19.19 0 0 0-.022.158c0 .017.005.038 0 .044l-.022.087s.027.011.055.017c0 .01-.006.016-.011.027l-.017.098h.033c0 .033-.005.066-.005.098 0 .05 0 .088-.022.11v.01l-.011.011c-.027.093.01.18.038.246 0 .016.011.027.017.038a.1.1 0 0 0-.028.071v.022l-.016.016.016.05q.016.039.05.054h-.017v.098l-.055.017.028.054s-.028.066-.011.104l-.038.065s.005.039.038.055c-.033.115.049.202.104.251.021.022.032.038.043.05h-.043l.032.108s-.016.017-.022.028l-.07.032.021.099v.021a.11.11 0 0 0 0 .104l.011.011a.17.17 0 0 0-.06.12v.082l.06.01-.016.05c-.011.027-.017.055-.027.076q.002.002-.006.011l.115.066a.4.4 0 0 0-.033.082c0 .01-.011.027-.011.032h-.104v.11l.017.06q.001.03.01.07v.17h-.01l.01.065v.148l-.076.038.093.104a.3.3 0 0 0-.022.103h-.07l.114.142s.016.044.027.066v.01c-.049.044-.055.115-.06.148 0 .016 0 .038-.01.049l.026.038s-.038.038-.043.05c-.011.027-.011.054-.011.081h-.11l.093.093-.087.027.071.06v.23a.1.1 0 0 0 .055.092c.043.033.098.028.136.017v.092l.11-.032a.5.5 0 0 1 .207-.017l.093.017.01-.093c.044-.344.033-.671.028-.988a5.4 5.4 0 0 1 .021-.895c.028-.055 0-.11-.016-.136"/><path fill="#0061af" d="m17.99 21.998.023-.01v-.05l-.017-1.533v-.011a8 8 0 0 1-.038-.753 7 7 0 0 0-.055-.896c-.005-.398-.087-.824-.163-1.233l-.05-.279v-.027l-.021-.022c-.06-.06-.082-.136-.104-.229-.022-.076-.038-.153-.087-.224a3.2 3.2 0 0 0-.41-.529v-.01c-.043-.05-.087-.077-.12-.1-.021-.015-.043-.026-.065-.043l-.033-.027h-.022l-.027-.016c-.131-.104-.251-.142-.393-.191-.038-.06-.12-.066-.17-.071v-.039l-.076-.01-.338-.05h-.05l-.032.033c-.01.016-.016.022-.087-.005a.5.5 0 0 0-.11-.028h-.038l-.021.017c-.011-.006-.022-.017-.039-.022l-.141-.044-.011.066q-.098 0-.164.032h-.437l.027.082c-.092-.021-.163.039-.201.071-.006 0-.017.011-.022.017-.077.01-.115.043-.148.065-.021.016-.027.022-.049.022h-.033l-.021.027a.6.6 0 0 1-.186.104l-.114.05.027.026-.055.033h-.109v.087h-.01l-.06-.027-.045.055c-.065.092-.158.185-.245.284-.11.114-.218.234-.306.365l-.027.038.016.039s-.07.043-.082.109c-.043.043-.054.109-.06.147 0 .011 0 .027-.005.038-.044.055-.055.11-.066.153a.15.15 0 0 1-.021.066l-.055.07.027.017c-.016.044-.016.082-.016.11v.032l-.038.022.01.054c.017.11 0 .208-.01.311a1.3 1.3 0 0 0-.017.322c-.043.066-.032.137-.027.186 0 .016.005.038 0 .05l-.054.043.038.065c.027.05.005.126-.017.202-.021.071-.049.159-.021.24-.006.006-.017.011-.022.022q-.017.016-.017.066c0 .06 0 .076-.005.082l-.038.081v.033l.065.05c-.005.048 0 .098 0 .136.006.054.011.076-.005.098l-.05.082.05.054v.017c0 .038 0 .104.038.153 0 .01 0 .016.005.027l-.082.022.055.114s0 .017-.005.028c-.011.032-.022.103.01.158a.27.27 0 0 0 0 .174.1.1 0 0 0 .011.039c-.076.082-.038.19-.021.25-.039.055-.028.12-.022.165l-.104.038.11.109s0 .055.01.082c.011.016.027.032.044.038l-.033.01v.012l.038.098v.011q-.016.092.033.158-.015.016-.016.05l-.044.043.044.06c.032.044.021.104 0 .202-.022.082-.05.191 0 .278l-.06.06.076.055q.002.001-.006.01c-.016.04-.054.105-.01.175 0 0 .01.082 0 .142a.56.56 0 0 0 .021.295l-.016.104v-.011a.14.14 0 0 0 .011.098l-.033.017.022.07c.022.077.027.17.027.262 0 .186 0 .393.17.552l.038.032.049-.016c.125-.038.13-.158.13-.23v-.07c-.048-.17-.026-.393-.01-.584 0-.055.01-.104.01-.147V23.1l-.005-.022a.35.35 0 0 1-.016-.213.5.5 0 0 0-.01-.235c.026-.36.01-.78 0-1.157l-.017-.447v-.011a4 4 0 0 1-.011-.551c.005-.164.01-.333-.006-.492.039-.18.039-.343.033-.518v-.278c.033-.05.044-.093.022-.142a.8.8 0 0 0 .022-.186c0-.044 0-.087.01-.125v-.044a.25.25 0 0 1 .012-.126c.01-.054.027-.125 0-.19.065-.137.082-.3.092-.46v-.054q.015-.049-.027-.098c0-.076.038-.13.082-.207.05-.077.11-.17.12-.29v-.021c.005-.006.016-.011.022-.017.033-.027.076-.065.076-.13v-.034a.7.7 0 0 0 .131-.169c.05-.082.082-.136.175-.169l.049-.01.01-.05c.012-.055.061-.082.132-.131a.5.5 0 0 0 .158-.131c.06.005.098-.01.12-.033.077-.016.131-.06.18-.098.077-.065.104-.076.159-.055l.054.022.033-.032h.005c.028-.006.071-.017.093-.06.022 0 .044-.011.06-.017.044-.016.055-.016.071-.01.017.01.044.021.082.01h.066l.082-.01c.245-.034.458-.06.649.043l.07.038.045-.06s.016.022.027.027c.049.055.136.148.262.131.027.022.06.044.087.06.011.006.027.017.033.022l.016.027c.039.05.12.077.186.077.147.153.29.36.29.453v.087h.065v.006c.021.109.054.25.142.343-.028.055 0 .126.005.153 0 .011.005.022.005.033l-.021.066.054.054h.011c0 .066.022.12.044.158 0 .011.01.022.016.033l-.01.033c-.077.147.026.23.076.267l.016.017c-.038.027-.038.06-.044.114v.066l.033.043v.011c0 .011.011.028.022.05l-.027.027-.022.076.044.06.032.017c0 .032.011.065.022.087 0 0 0 .01.006.01v.04c-.039.141-.072.321.016.468l-.006.006c-.038.055-.027.115-.021.158 0 .017.005.038 0 .044l-.022.087s.027.011.054.017c0 .01-.005.016-.005.027l-.017.098h.039a1 1 0 0 0-.011.098c0 .05 0 .088-.022.11v.01l-.011.011a.4.4 0 0 0 .038.246q.009.023.017.038a.1.1 0 0 0-.028.071q-.002.015.006.022l-.022.016.016.05q.017.039.05.054h-.017v.098l-.055.017.028.054s-.027.066-.011.104l-.033.065s.006.039.038.055c-.032.115.05.202.104.251.022.022.033.038.044.05h-.044l.033.108s-.017.017-.022.028l-.071.032.022.099v.021a.11.11 0 0 0 0 .104l.01.011a.17.17 0 0 0-.06.12l-.01.082.065.01-.016.05c-.011.027-.017.055-.027.076 0 0-.006.006-.006.011l.115.066a.4.4 0 0 0-.033.082c0 .01-.01.027-.01.032h-.105v.11l.017.06c0 .021 0 .043.01.07v.17h-.01l.01.065v.148l-.076.038.098.104a.3.3 0 0 0-.021.098h-.071l.114.142s.017.043.028.065v.011c-.05.044-.055.115-.06.148 0 .016 0 .038-.006.049l.027.038s-.038.038-.043.049c-.011.027-.011.055-.011.082h-.115l.093.093-.087.027.07.06v.23q-.001.065.055.092c.05.033.099.027.137.016v.093l.109-.033a.5.5 0 0 1 .207-.016l.093.016.01-.093c.045-.343.034-.67.028-.987a5.4 5.4 0 0 1 .022-.895c.022-.055 0-.11-.016-.137"/><path fill="#f37021" d="m30.936 22.113.022-.011v-.05l-.016-1.533v-.01a8 8 0 0 1-.038-.754 8 8 0 0 0-.055-.895c-.01-.399-.087-.824-.164-1.234l-.049-.278v-.027l-.022-.022c-.06-.06-.082-.136-.103-.23-.022-.076-.038-.152-.088-.223a3.2 3.2 0 0 0-.409-.53v-.01c-.044-.05-.087-.077-.12-.099-.022-.016-.044-.027-.066-.043l-.032-.028h-.022l-.027-.016c-.131-.104-.252-.142-.393-.191-.044-.06-.12-.071-.17-.071v-.038l-.07-.011-.344-.05h-.05l-.032.034c-.011.016-.017.021-.088-.006a1 1 0 0 0-.109-.027h-.038l-.022.016c-.01-.005-.022-.016-.038-.022l-.142-.043-.01.065a.3.3 0 0 0-.165.038h-.43l.027.082c-.093-.022-.164.033-.202.066-.006.005-.017.01-.017.016-.076.011-.114.044-.147.066-.022.016-.027.021-.05.021h-.032l-.022.028a.7.7 0 0 1-.18.103l-.114.05.027.027s-.038.022-.055.038h-.109v.087h-.01l-.06-.027-.045.055a3 3 0 0 1-.245.284c-.11.114-.218.234-.306.365l-.027.038.016.039s-.07.043-.082.109c-.043.043-.049.109-.06.147 0 .011 0 .027-.005.038a.3.3 0 0 0-.06.153.15.15 0 0 1-.022.066l-.055.07.022.017c-.016.038-.016.087-.016.11v.032l-.038.022v.054a.9.9 0 0 1-.006.311c-.01.099-.027.208-.016.322-.044.066-.033.137-.027.186 0 .016.005.038 0 .049l-.055.044.038.065c.027.05.006.126-.016.202-.022.071-.044.164-.022.24-.005 0-.016.011-.022.022-.01.011-.016.038-.016.066 0 .06-.006.076-.006.081l-.038.082v.033l.066.05c-.011.048 0 .097 0 .136.01.054.01.076 0 .103l-.044.082.044.055v.016c0 .038-.006.104.038.153 0 .01 0 .016.005.027l-.082.022.055.115s0 .016-.005.027c-.006.033-.022.104.01.164-.027.065-.01.13 0 .174 0 .011.006.028.006.039-.076.082-.038.19-.016.25-.039.055-.028.12-.022.164l-.11.039.11.109s-.006.054.01.082a.1.1 0 0 0 .044.038l-.032.01v.012l.038.098v.01q-.016.091.033.16-.017.015-.017.048l-.044.044.044.06c.033.044.017.104 0 .202-.022.082-.044.185 0 .278l-.06.06.076.055q.001.001-.005.01c-.016.034-.055.104-.01.175v-.01c.01.032.005.087 0 .147a.56.56 0 0 0 .021.295l-.016.103v-.01c-.011.038 0 .076.01.098l-.032.016.022.07c.021.077.021.17.021.268 0 .186 0 .393.17.552l.038.032.049-.01c.126-.039.13-.164.13-.23v-.071c-.048-.169-.026-.387-.01-.584 0-.049.01-.103.016-.147v-.022l-.01-.022a.35.35 0 0 1-.017-.213.5.5 0 0 0-.01-.229c.027-.36.01-.78 0-1.157l-.017-.447v-.011a4 4 0 0 1-.011-.552c.005-.163.01-.333-.006-.49.039-.18.039-.345.033-.514v-.278c.038-.05.05-.093.027-.142a.8.8 0 0 0 .022-.186c0-.043 0-.087.011-.125v-.044a.25.25 0 0 1 .011-.125c.011-.055.027-.126 0-.191.066-.131.082-.3.093-.459v-.055c.01-.032 0-.07-.027-.098 0-.076.038-.13.082-.207.049-.082.109-.17.12-.29v-.021c.005-.006.016-.011.021-.017.033-.027.077-.065.077-.13V17.2c.06-.055.093-.115.13-.17.05-.081.083-.136.176-.163l.043-.011.011-.05c.011-.054.06-.081.131-.125a.5.5 0 0 0 .158-.13q.09 0 .12-.034c.077-.016.131-.06.18-.098.077-.065.104-.076.159-.049l.054.022.033-.033h.006c.021-.005.065-.016.092-.06.022 0 .044-.01.06-.016.044-.017.055-.017.071-.006.017.011.044.022.082.011h.066l.082-.01c.245-.033.458-.06.649.043l.071.038.038-.06s.017.022.028.027c.049.055.136.148.261.131.028.022.06.044.082.06l.038.022.017.028c.038.049.12.076.186.076.141.153.289.36.289.448v.087h.065c.022.12.055.256.142.35-.022.054 0 .125.006.152q.001.016.01.033l-.021.065.054.055h.011c0 .065.022.12.044.158 0 .011.01.022.016.033l-.01.033c-.077.147.027.229.076.267l.016.016c-.038.028-.038.06-.044.115v.066l.033.043v.011c0 .011.011.033.022.05l-.027.026-.022.077.043.06.033.016c0 .033.011.066.022.088q-.001.001.006.01v.039c-.039.142-.071.322.016.47-.044.054-.033.12-.027.163 0 .016.005.038 0 .049l-.022.087s.027.011.054.017c0 .01-.005.016-.01.027l-.017.104h.033c-.006.032-.006.065-.011.092 0 .05 0 .082-.022.115v.011l-.01.01c-.028.094.01.181.037.252 0 .01.011.027.017.038a.1.1 0 0 0-.027.071q-.001.007.005.022l-.016.016.016.05a.1.1 0 0 0 .05.054h-.017v.093l-.055.016.027.055s-.027.065-.01.103l-.039.066s.006.038.038.055c-.032.114.05.201.104.25.022.022.033.039.044.05h-.044l.033.109s-.016.016-.022.027l-.07.033.021.093v.021a.11.11 0 0 0 0 .104l.01.011a.2.2 0 0 0-.06.12l-.01.082.065.011-.016.05a.3.3 0 0 1-.027.076q.002.001-.006.01l.115.066a.3.3 0 0 0-.033.082c0 .01-.01.027-.01.033h-.104v.114s.01.033.016.06c0 .022 0 .044.01.071v.17h-.01l.01.07v.148l-.076.038.093.104v.005a.3.3 0 0 0-.022.098h-.07l.114.142s.016.044.022.066v.01c-.05.044-.055.115-.06.148 0 .016 0 .038-.006.044l.028.038a.13.13 0 0 0-.044.054c-.01.028-.01.055-.01.082h-.116l.093.093-.087.027.07.06v.23c0 .038.023.076.055.092h.006a.17.17 0 0 0 .136.017v.092l.11-.032a.45.45 0 0 1 .201-.017l.093.017.011-.093a6 6 0 0 0 .027-.988 5.4 5.4 0 0 1 .022-.895c.028-.055 0-.11-.016-.136"/><path fill="#f37021" d="M11.24 8.239h21.029v21.034h-21.03zM10 30.512h23.518V7H10.001z"/><path fill="#007638" d="M180.17 20.334c-.087 0-.109-.066-.087-.153l1.998-5.349c.022-.087.065-.197.131-.197.065 0 .087.11.109.197l1.954 5.37c.022.066 0 .131-.109.131h-4.001zm4.416 1.086c.109 0 .175.043.218.152l1.741 4.607c.109.262-.043.458-.196.502-.219.022-.306.066-.306.197 0 .152.262.152.655.174 1.741.044 3.324.044 4.11.044s.999-.044.999-.218c0-.153-.11-.175-.284-.175-.262 0-.59-.022-.912-.087-.458-.131-1.086-.432-1.915-2.38-1.392-3.291-4.869-12.166-5.393-13.361-.218-.502-.349-.693-.545-.693-.219 0-.35.24-.612.868l-5.458 13.655c-.436 1.086-.846 1.829-1.85 1.96-.174.021-.48.043-.677.043-.174 0-.262.044-.262.175 0 .175.131.218.415.218 1.13 0 2.325-.065 2.565-.065.677 0 1.61.065 2.304.065.24 0 .371-.043.371-.218 0-.131-.066-.175-.328-.175h-.327c-.672 0-.868-.284-.868-.676 0-.262.109-.781.327-1.327l1.174-3.11c.044-.132.087-.175.196-.175h4.858"/><path fill="#007638" d="m172.005 17.059-.682-.459c-2.014-1.38-2.576-2.15-2.576-3.16 0-1.315 1.092-2.26 2.893-2.26 1.577 0 2.281.661 2.647 1.076.507.573.633 1.25.633 1.446 0 .262.071.393.246.393.196 0 .267-.175.267-.66 0-1.714.098-2.347.098-2.636 0-.153-.12-.219-.338-.262-.633-.153-1.654-.372-3.231-.372-3.373 0-5.611 1.736-5.611 4.149 0 1.779.923 3.312 3.597 5.2l1.119.792c2.014 1.425 2.379 2.434 2.379 3.515 0 1.163-1.069 2.5-3.253 2.5-1.506 0-2.941-.595-3.471-2.216-.12-.371-.218-.835-.218-1.119 0-.175-.022-.371-.24-.371-.126 0-.202.104-.246.267a2.4 2.4 0 0 0-.06.35c-.027.213-.104.726-.125.867-.153.895-.415 1.354-.983 1.616-.567.262-1.484.262-2.052.262-2.227 0-3.848-.328-3.891-1.834-.022-.633 0-2.642 0-3.384v-1.724c0-.131.021-.219.131-.219.524 0 3.635.022 4.049.066.808.087 1.114.415 1.223.851.065.284.065.568.087.786 0 .11.044.197.197.197.196 0 .196-.24.196-.415 0-.153.044-1.026.088-1.463.065-1.113.174-1.463.174-1.594 0-.13-.065-.174-.153-.174-.109 0-.196.109-.349.284-.196.218-.524.283-1.048.327-.502.044-3.962.044-4.443.044-.131 0-.152-.088-.152-.24v-5.53c0-.152.043-.218.152-.218.437 0 3.679.044 4.05.088 1.092.13 1.31.393 1.463.786.109.262.131.633.131.786 0 .196.044.305.196.305s.197-.13.219-.24c.043-.262.087-1.223.109-1.44.065-1.005.174-1.267.174-1.42 0-.109-.021-.196-.131-.196-.109 0-.24.065-.349.087-.174.044-.524.087-.939.131-.414.022-5.708.022-6.407.022-.306 0-.808-.022-1.375-.044-.448 0-.956-.016-1.452-.022-.022-.109-.066-.158-.159-.158-.169 0-.687.218-2.079.218h-7.352c-.715 0-1.539-.043-2.161-.109-.54-.038-.748-.18-.922-.18-.12 0-.191.044-.251.278h-.213c-.29 0-.579.011-.852.022-.469.017-.868.039-1.119.044-.442-.005-1.309-.066-2.248-.066-.289 0-.502.022-.502.197 0 .125.076.196.305.196.268 0 .732 0 1.021.131.415.197.595.54.644 1.556l.065 8.793c-.327-.344-9.856-10.949-10.135-11.162-.36-.273-.737-.022-.737.322l-.185 5.687-.262 7.516c-.022 1.877-.388 2.248-.89 2.549-.229.136-.633.201-.911.218-.088 0-.983.043-1.365-.044-.578-.142-.922-.53-.988-1.113-.087-.934-.087-2.642-.087-4.743v-3.81c0-3.29 0-3.897.044-4.59.043-.758.218-1.124.797-1.233.256-.044.425-.066.644-.066.218 0 .343-.043.343-.218 0-.131-.169-.175-.447-.175-.819 0-2.09.066-2.631.066-.627 0-1.981-.066-2.8-.066-.343 0-.518.044-.518.175 0 .175.131.218.349.218.257 0 .541.022.775.088.47.109.688.474.732 1.211.043.693.043 1.3.043 4.59v3.81c0 2.101 0 3.81-.103 4.721-.066.628-.197.993-.628 1.086a3.5 3.5 0 0 1-.775.082c-.257 0-.344.065-.344.175 0 .152.153.218.431.218.863 0 2.222-.066 2.718-.066.579 0 3.826.066 3.93.066 1.119 0 2.248-.033 2.439-.033.41 0 1.267.066 2.664.066.3 0 .497-.044.497-.219 0-.13-.131-.174-.366-.174-.344 0-.753-.022-1.119-.153-.431-.153-.709-.71-.753-2.396l-.082-4.246-.071-4.23c.349.41 8.956 9.824 10.173 11.118.213.24.443.474.655.474.175 0 .251-.19.251-.671l.213-13.628c0-.17.011-.328.017-.47.065-.824.251-1.124.627-1.304.202-.093.486-.115.732-.126-.017.623 0 1.889 0 2.162 0 .24.043.344.196.344.131 0 .197-.088.24-.262.044-.175.153-.437.366-.764.322-.475.846-.585 2.101-.634l2.167-.087v8.918c0 2.003 0 3.722-.109 4.634-.066.633-.322 1.108-.753 1.195-.197.044-.89.088-1.212.088-.262 0-.344.065-.344.174 0 .153.153.218.431.218.863 0 2.789-.065 3.286-.065.606 0 1.976.065 3.4.065.24 0 .415-.065.415-.218 0-.109-.109-.174-.349-.174a9 9 0 0 1-1.103-.088c-.644-.087-.78-.567-.846-1.173-.109-.934-.109-2.653-.109-4.656v-8.918l2.134.066c1.927.043 2.587.655 2.625 1.217l.022.24c.022.327.066.436.24.436.131 0 .17-.13.191-.349 0-.53-.005-1.867-.005-2.418.164.011.317.028.409.05.721.152.895.502.939 1.244.044.698.044 1.31.044 4.634v3.842c0 2.008 0 3.733-.109 4.65-.088.633-.197 1.113-.634 1.2a3.6 3.6 0 0 1-.785.088c-.262 0-.35.066-.35.175 0 .152.153.218.437.218.436 0 1.004-.022 1.506-.044.524 0 1.004-.022 1.245-.022.655 0 1.331.022 2.27.066.939.022 3.406.065 5.049.065.829 0 1.026 0 1.178-.567.071.087.175.153.35.218 1.042.415 2.139.573 3.547.573 1.288 0 2.647-.196 3.859-.9 1.747-1.032 2.281-2.544 2.281-3.82 0-2.086-1.042-3.603-3.984-5.6M91.961 27.483c1.354 0 2.964-.152 3.81-.502.36-.153.442-.262.551-.627.213-.737.464-2.631.464-2.893 0-.175-.044-.328-.191-.328-.17 0-.213.088-.273.437a3.6 3.6 0 0 1-.72 1.436c-.846.998-1.987 1.217-3.87 1.217-2.838 0-6.664-2.566-6.664-7.74 0-2.106.404-4.175 1.948-5.632.934-.868 2.14-1.348 3.98-1.348 1.948 0 3.596.59 4.294 1.348.53.567.803 1.326.825 2.003 0 .306.043.48.212.48.191 0 .235-.175.257-.502.044-.437.022-1.632.066-2.347.043-.758.103-1.02.103-1.195 0-.131-.087-.24-.316-.262-.633-.066-1.31-.262-2.118-.371a20 20 0 0 0-3.067-.219c-3.155 0-5.163.868-6.686 2.304-2.03 1.91-2.478 4.48-2.478 5.954 0 2.107.551 4.541 2.625 6.413 1.927 1.72 4.36 2.369 7.26 2.369M45.149 11.846c0-.24.043-.327.196-.376.218-.044.42-.044.726-.044 1.888 0 2.745 1.932 2.745 3.4 0 1.081-.333 1.872-.9 2.33-.377.328-.857.421-1.583.421-.502 0-.835-.022-1.032-.065-.087-.022-.153-.066-.153-.246zm-2.637 8.913c0 2.02 0 3.76-.109 4.677-.093.639-.196 1.12-.633 1.207a3.6 3.6 0 0 1-.797.087c-.262 0-.35.066-.35.175 0 .152.154.218.438.218.878 0 2.26-.066 2.761-.066.666 0 2.658.132 3.188.132 4.044 0 5.867-2.435 5.867-4.787 0-2.57-2.2-4.132-3.995-4.748 1.206-.961 2.237-2.036 2.237-3.837 0-1.163-.698-3.291-4.682-3.291-.743 0-1.6.065-2.675.065-.436 0-1.817-.065-2.985-.065-.328 0-.486.043-.486.196s.131.197.377.197c.305 0 .676.021.857.065.72.153.9.502.944 1.25.043.704.043 1.315.043 4.656v3.869m7.669 2.636c0 2.287-1.676 2.811-2.658 2.811-.508 0-1.01-.022-1.605-.267-.704-.29-.764-.66-.764-2.113v-5.2c0-.11.044-.154.125-.154.333 0 .552 0 .945.022.857.044 1.359.197 1.823.53 1.67 1.162 2.134 3.007 2.134 4.366M102.32 20.334c-.087 0-.109-.066-.087-.153l1.998-5.349c.021-.087.065-.197.131-.197.065 0 .087.11.109.197l1.959 5.37c.022.066 0 .131-.109.131zm4.416 1.086c.109 0 .174.043.218.152l1.741 4.607c.109.262-.044.458-.196.502-.219.022-.306.066-.306.197 0 .152.262.152.655.174 1.741.044 3.324.044 4.11.044s.999-.044.999-.218c0-.153-.11-.175-.284-.175-.262 0-.59-.022-.912-.087-.458-.131-1.086-.432-1.915-2.38-1.392-3.291-4.869-12.166-5.393-13.361-.218-.502-.349-.693-.546-.693-.218 0-.349.24-.611.868l-5.458 13.655c-.436 1.086-.846 1.829-1.56 1.96a2 2 0 0 1-.443.043c-.174 0-.262.044-.262.175 0 .175.131.218.415.218 1.13 0 1.812-.065 2.047-.065.677 0 1.61.065 2.303.065.24 0 .371-.043.371-.218 0-.131-.065-.175-.327-.175h-.328c-.671 0-.868-.284-.868-.676 0-.262.109-.781.328-1.327l1.173-3.11c.044-.132.088-.175.197-.175h4.852"/><path fill="#007638" d="M60.823 20.35h-4c-.087 0-.11-.066-.087-.153l1.997-5.349c.022-.087.066-.196.131-.196.066 0 .087.11.11.196l1.959 5.37c.021.066 0 .132-.11.132m21.171-9.83h-.562c-.66.017-2.772-.005-3.711-.005-.29 0-.502.022-.502.196 0 .131.076.197.306.197.267 0 .616 0 .905.13.415.197.595.656.644 1.67l.066 8.848c-.328-.344-9.857-11.003-10.135-11.221-.36-.273-.737-.022-.737.322l-.186 5.747-.262 7.515c-.021 1.845-.196 2.691-.867 2.691-.672 0-.95-.813-1.61-2.363-1.392-3.291-4.869-12.166-5.393-13.361-.218-.502-.35-.693-.546-.693-.218 0-.349.24-.605.868L53.34 24.71c-.437 1.086-.846 1.828-1.85 1.96-.175.021-.48.043-.677.043-.175 0-.262.044-.262.174 0 .175.13.219.415.219 1.13 0 2.325-.066 2.565-.066.671 0 1.61.066 2.303.066.24 0 .371-.044.371-.219 0-.13-.065-.174-.327-.174h-.328c-.671 0-.868-.284-.868-.677 0-.262.11-.78.328-1.326l1.173-3.111c.044-.131.088-.175.197-.175h4.846c.11 0 .175.044.219.153l1.74 4.552a.403.403 0 0 1-.228.535c-.219.021-.306.065-.306.196 0 .153.262.153.655.175.971.022 1.9.022 2.674.022h.142c.464 0 .928-.006 1.326-.011.202 0 .366 0 .497-.011.311-.006.54-.011.617-.011.409 0 1.266.065 2.658.065.3 0 .496-.043.496-.218 0-.13-.13-.175-.365-.175-.344 0-.754-.021-1.12-.152-.43-.153-.709-.71-.752-2.396l-.082-4.247-.071-4.23c.35.41 8.956 9.765 10.173 11.058.213.24.442.475.655.475.175 0 .251-.191.251-.671l.077-4.989.147-8.847c.05-1.015.23-1.48.644-1.675.29-.131.639-.131.906-.131.23 0 .306-.066.306-.197 0-.175-.213-.197-.502-.197"/></svg>