<svg xmlns="http://www.w3.org/2000/svg" width="72" height="50" fill="none" viewBox="0 0 72 50"><!-- Original logo design by Mastercard. All rights reserved. This SVG has been modified for layout consistency by Polako Finance. No claim of ownership or endorsement is implied. --><path fill="#fff" d="M25.547 44.775V42.13a1.567 1.567 0 0 0-1.658-1.675 1.63 1.63 0 0 0-1.48.75 1.55 1.55 0 0 0-1.394-.75 1.39 1.39 0 0 0-1.234.626v-.52h-.917v4.214h.926v-2.337a.985.985 0 0 1 1.031-1.12c.609 0 .917.398.917 1.111v2.346h.926v-2.337a.992.992 0 0 1 1.031-1.12c.626 0 .926.398.926 1.111v2.346zm5.166-2.108V40.56h-.917v.512a1.6 1.6 0 0 0-1.331-.617 2.216 2.216 0 0 0 0 4.426 1.6 1.6 0 0 0 1.331-.618v.512h.917zm-3.412 0a1.275 1.275 0 1 1 1.279 1.35 1.265 1.265 0 0 1-1.279-1.35m23.031-2.217c.31-.003.617.054.904.17a2.137 2.137 0 0 1 1.195 1.168 2.34 2.34 0 0 1 0 1.76 2.13 2.13 0 0 1-1.195 1.168 2.5 2.5 0 0 1-1.808 0 2.2 2.2 0 0 1-.718-.466c-.202-.2-.363-.44-.473-.702a2.34 2.34 0 0 1 0-1.76c.11-.263.27-.502.473-.702.206-.202.45-.36.718-.467.287-.115.594-.172.904-.17m0 .867a1.4 1.4 0 0 0-.524.099 1.24 1.24 0 0 0-.695.704 1.53 1.53 0 0 0 0 1.096 1.237 1.237 0 0 0 .695.704c.337.132.711.132 1.048 0a1.26 1.26 0 0 0 .7-.705 1.53 1.53 0 0 0 0-1.095 1.263 1.263 0 0 0-.7-.704 1.4 1.4 0 0 0-.524-.1m-14.63 1.35c-.009-1.313-.82-2.212-2.001-2.212a2.215 2.215 0 0 0 .062 4.425 2.56 2.56 0 0 0 1.728-.59l-.45-.68c-.348.28-.78.435-1.225.442a1.17 1.17 0 0 1-1.261-1.032h3.13c.008-.114.017-.229.017-.353m-3.138-.37a1.085 1.085 0 0 1 1.12-1.022 1.047 1.047 0 0 1 1.066 1.022zm7-.66c-.4-.231-.853-.355-1.314-.362-.503 0-.802.185-.802.493 0 .282.317.362.714.415l.432.061c.917.133 1.472.52 1.472 1.261 0 .802-.705 1.375-1.922 1.375a3.04 3.04 0 0 1-1.825-.546l.432-.714c.405.3.898.455 1.402.44.626 0 .96-.185.96-.51 0-.239-.237-.371-.74-.442l-.432-.061c-.943-.133-1.454-.556-1.454-1.243 0-.838.687-1.35 1.754-1.35a3.15 3.15 0 0 1 1.72.442zm4.405-.239H42.47v1.904c0 .423.15.706.609.706.286-.01.565-.092.81-.238l.265.784c-.344.215-.74.328-1.146.326-1.084 0-1.463-.581-1.463-1.56v-1.922h-.855v-.838h.855v-1.278h.925v1.279h1.5zm3.173-.943q.336.002.653.114l-.282.864a1.5 1.5 0 0 0-.573-.105c-.6 0-.9.387-.9 1.084v2.363h-.917V40.56h.908v.512a1.24 1.24 0 0 1 1.111-.617m6.348 3.706a.42.42 0 0 1 .301.123.42.42 0 0 1 .125.296.41.41 0 0 1-.124.296.44.44 0 0 1-.302.124.427.427 0 0 1-.43-.42.41.41 0 0 1 .124-.296.42.42 0 0 1 .306-.123m0 .746a.31.31 0 0 0 .229-.095.327.327 0 1 0-.23.096m.024-.523a.18.18 0 0 1 .116.034.11.11 0 0 1 .04.09.1.1 0 0 1-.032.08.15.15 0 0 1-.092.039l.128.147h-.1l-.118-.146h-.038v.146h-.083v-.39zm-.096.073v.104h.096a.1.1 0 0 0 .052-.013.04.04 0 0 0 .02-.04.04.04 0 0 0-.02-.038.1.1 0 0 0-.053-.013z"/><path fill="#7375cf" d="M42.665 8.398H28.76v24.988h13.905z"/><path fill="#eb001b" d="M29.643 20.892a15.86 15.86 0 0 1 6.07-12.494 15.892 15.892 0 1 0 0 24.988 15.86 15.86 0 0 1-6.07-12.494"/><path fill="#00a2e5" d="M59.908 30.74v-.512h.207v-.104h-.526v.104h.207v.511zm1.02 0v-.617h-.16l-.186.424-.185-.424h-.161v.616h.113v-.465l.174.401h.118l.174-.402v.466zM61.424 20.892a15.892 15.892 0 0 1-25.712 12.494 15.893 15.893 0 0 0 0-24.988 15.891 15.891 0 0 1 25.712 12.494"/></svg>
