<svg xmlns="http://www.w3.org/2000/svg" width="72" height="50" fill="none" viewBox="0 0 72 50"><!-- Original logo design by Mastercard. All rights reserved. This SVG has been modified for layout consistency by Polako Finance. No claim of ownership or endorsement is implied. --><path fill="#000" d="M26.992 42.797v-2.38a1.412 1.412 0 0 0-1.491-1.508 1.47 1.47 0 0 0-1.333.675 1.39 1.39 0 0 0-1.254-.675 1.25 1.25 0 0 0-1.11.564v-.468h-.826v3.792h.833v-2.102a.886.886 0 0 1 .928-1.008c.548 0 .826.357.826 1v2.11h.833v-2.102a.896.896 0 0 1 .928-1.008c.563 0 .833.357.833 1v2.11zm4.65-1.896v-1.897h-.825v.46a1.44 1.44 0 0 0-1.198-.555 1.994 1.994 0 0 0 0 3.983 1.44 1.44 0 0 0 1.198-.555v.46h.825zm-3.07 0a1.149 1.149 0 1 1 1.15 1.214 1.14 1.14 0 0 1-1.15-1.214m20.727-1.996c.279-.003.555.049.814.152a1.92 1.92 0 0 1 1.075 1.052 2.1 2.1 0 0 1 0 1.584 1.92 1.92 0 0 1-1.075 1.051 2.25 2.25 0 0 1-1.628 0 2 2 0 0 1-.646-.42 1.9 1.9 0 0 1-.425-.631 2.1 2.1 0 0 1 0-1.584 1.9 1.9 0 0 1 .425-.632c.186-.181.405-.324.646-.42.259-.103.535-.155.814-.152m0 .78a1.2 1.2 0 0 0-.471.09 1.11 1.11 0 0 0-.626.633 1.38 1.38 0 0 0 0 .986 1.116 1.116 0 0 0 .626.634c.303.118.64.118.942 0a1.14 1.14 0 0 0 .63-.634 1.38 1.38 0 0 0 0-.986 1.136 1.136 0 0 0-.63-.634c-.15-.06-.31-.09-.471-.089m-13.167 1.216c-.008-1.182-.738-1.992-1.801-1.992a1.994 1.994 0 0 0 .056 3.983c.566.02 1.12-.169 1.555-.531l-.405-.611c-.313.25-.701.39-1.103.397a1.054 1.054 0 0 1-1.134-.929h2.816q.014-.153.016-.317m-2.825-.333a.976.976 0 0 1 1.008-.92.94.94 0 0 1 .96.92zm6.3-.596a2.44 2.44 0 0 0-1.182-.325c-.452 0-.722.167-.722.445 0 .254.286.325.643.372l.388.056c.826.119 1.325.468 1.325 1.135 0 .722-.634 1.237-1.73 1.237a2.74 2.74 0 0 1-1.642-.492l.39-.642c.363.27.808.41 1.26.396.564 0 .866-.166.866-.46 0-.214-.215-.333-.667-.396l-.389-.056c-.849-.119-1.309-.5-1.309-1.119 0-.754.619-1.214 1.58-1.214a2.84 2.84 0 0 1 1.546.397zm3.965-.214h-1.349v1.714c0 .38.135.635.548.635.258-.009.509-.082.73-.214l.238.706c-.31.193-.667.295-1.031.293-.977 0-1.318-.523-1.318-1.404v-1.73h-.77v-.754h.77v-1.15h.833v1.15h1.35zm2.856-.849c.2.001.399.036.587.103l-.254.778a1.3 1.3 0 0 0-.515-.095c-.54 0-.81.349-.81.976v2.126h-.825v-3.792h.817v.46a1.12 1.12 0 0 1 1-.556m5.713 3.336a.38.38 0 0 1 .271.11.38.38 0 0 1 .113.267.37.37 0 0 1-.113.267.4.4 0 0 1-.271.111.384.384 0 0 1-.387-.378.37.37 0 0 1 .235-.347.4.4 0 0 1 .152-.03m0 .672q.06 0 .114-.023a.3.3 0 0 0 .166-.185.294.294 0 1 0-.28.208m.022-.471a.16.16 0 0 1 .104.03.1.1 0 0 1 .037.082.1.1 0 0 1-.03.071.14.14 0 0 1-.082.035l.114.132h-.09l-.106-.13h-.034v.13h-.075v-.35zm-.087.066v.093h.086a.1.1 0 0 0 .047-.012.04.04 0 0 0 .014-.015.04.04 0 0 0 .004-.02.04.04 0 0 0-.018-.035.1.1 0 0 0-.047-.012z"/><path fill="#7375cf" d="M42.4 10.058H29.885v22.49H42.4z"/><path fill="#eb001b" d="M30.679 21.303a14.28 14.28 0 0 1 5.462-11.245 14.303 14.303 0 1 0 0 22.49 14.28 14.28 0 0 1-5.462-11.245"/><path fill="#00a2e5" d="M57.918 30.166v-.46h.185v-.095h-.473v.094h.186v.46zm.918 0v-.556h-.145l-.167.382-.167-.382h-.145v.556h.102v-.42l.157.362h.106l.156-.362v.42zM59.282 21.303a14.303 14.303 0 0 1-23.14 11.245 14.305 14.305 0 0 0 0-22.49 14.302 14.302 0 0 1 23.14 11.245"/></svg>