<svg xmlns="http://www.w3.org/2000/svg" width="72" height="50" fill="none" viewBox="0 0 72 50"><!-- Original logo design by Mastercard. All rights reserved. This SVG has been modified for layout consistency by Polako Finance. No claim of ownership or endorsement is implied. --><path fill="#fff" d="M26.992 42.797v-2.38a1.412 1.412 0 0 0-1.491-1.508 1.47 1.47 0 0 0-1.333.675 1.39 1.39 0 0 0-1.254-.675 1.25 1.25 0 0 0-1.11.564v-.468h-.826v3.792h.833v-2.102a.886.886 0 0 1 .928-1.008c.548 0 .826.357.826 1v2.11h.833v-2.102a.894.894 0 0 1 .928-1.008c.564 0 .833.357.833 1v2.11zm4.65-1.896v-1.897h-.825v.46a1.44 1.44 0 0 0-1.198-.555 1.994 1.994 0 0 0 0 3.983 1.44 1.44 0 0 0 1.198-.555v.46h.825zm-3.07 0a1.148 1.148 0 1 1 1.15 1.214 1.137 1.137 0 0 1-1.15-1.214m20.727-1.996c.279-.003.555.049.814.152a1.921 1.921 0 0 1 1.075 1.051 2.1 2.1 0 0 1 0 1.585 1.92 1.92 0 0 1-1.075 1.051 2.25 2.25 0 0 1-1.628 0 2 2 0 0 1-.645-.42 1.9 1.9 0 0 1-.426-.631 2.1 2.1 0 0 1 0-1.584 1.94 1.94 0 0 1 1.071-1.052c.259-.103.535-.155.814-.152m0 .78a1.2 1.2 0 0 0-.471.09 1.12 1.12 0 0 0-.626.633 1.38 1.38 0 0 0 0 .986 1.115 1.115 0 0 0 .626.634c.303.118.64.118.942 0a1.14 1.14 0 0 0 .63-.634 1.38 1.38 0 0 0 0-.986 1.138 1.138 0 0 0-.63-.634c-.15-.06-.31-.09-.47-.089m-13.167 1.216c-.008-1.182-.738-1.992-1.8-1.992a1.993 1.993 0 0 0 .055 3.983c.566.02 1.12-.169 1.555-.531l-.405-.611c-.313.25-.701.39-1.103.397a1.054 1.054 0 0 1-1.134-.929h2.816c.008-.103.016-.206.016-.317m-2.824-.333a.976.976 0 0 1 1.007-.92.94.94 0 0 1 .96.92zm6.3-.596a2.44 2.44 0 0 0-1.183-.325c-.452 0-.722.167-.722.445 0 .254.286.325.643.372l.389.056c.825.119 1.325.468 1.325 1.135 0 .722-.635 1.237-1.73 1.237a2.74 2.74 0 0 1-1.642-.492l.388-.642c.364.27.809.41 1.262.396.563 0 .865-.166.865-.46 0-.214-.215-.333-.667-.397l-.389-.055c-.849-.119-1.309-.5-1.309-1.119 0-.754.62-1.214 1.58-1.214a2.84 2.84 0 0 1 1.547.397zm3.965-.214h-1.35v1.714c0 .38.136.635.548.635.258-.009.509-.082.73-.214l.238.706a1.94 1.94 0 0 1-1.031.293c-.976 0-1.317-.523-1.317-1.404v-1.73h-.77v-.754h.77v-1.15h.832v1.15h1.35zm2.855-.849c.2.001.399.036.588.103l-.254.778a1.3 1.3 0 0 0-.516-.095c-.54 0-.81.349-.81.976v2.126h-.825v-3.792h.818v.46a1.12 1.12 0 0 1 1-.556m5.713 3.336a.38.38 0 0 1 .272.11.38.38 0 0 1 .112.267.37.37 0 0 1-.112.267.4.4 0 0 1-.272.111.384.384 0 0 1-.386-.378.37.37 0 0 1 .234-.347.4.4 0 0 1 .152-.03m0 .672a.28.28 0 0 0 .206-.086.293.293 0 0 0-.322-.479.29.29 0 0 0-.18.27.3.3 0 0 0 .183.273.3.3 0 0 0 .113.022m.022-.471a.16.16 0 0 1 .105.03.1.1 0 0 1 .036.082.1.1 0 0 1-.03.071.14.14 0 0 1-.082.035l.115.132h-.09l-.106-.131h-.035v.131h-.075v-.35zm-.087.066v.093h.087a.1.1 0 0 0 .047-.012.04.04 0 0 0 .017-.035.04.04 0 0 0-.017-.035.1.1 0 0 0-.047-.012z"/><path fill="#7375cf" d="M42.399 10.058H29.884v22.49h12.515z"/><path fill="#eb001b" d="M30.679 21.303a14.28 14.28 0 0 1 5.463-11.245 14.303 14.303 0 1 0 0 22.49 14.28 14.28 0 0 1-5.463-11.245"/><path fill="#00a2e5" d="M57.918 30.166v-.46h.186v-.095h-.473v.094h.186v.46zm.918 0v-.556h-.145l-.167.382-.166-.382h-.145v.556h.102v-.42l.156.362h.106l.157-.362v.42zM59.282 21.303a14.302 14.302 0 0 1-23.14 11.244 14.305 14.305 0 0 0 0-22.49 14.303 14.303 0 0 1 23.14 11.246"/></svg>