<svg xmlns="http://www.w3.org/2000/svg" width="85" height="50" fill="none" viewBox="0 0 85 50"><!-- Original logo design by Mastercard. All rights reserved. This SVG has been modified for layout consistency by Polako Finance. No claim of ownership or endorsement is implied. --><path fill="#ff5f00" d="M49.999 10.848h-15.75v28.304h15.75z"/><path fill="#eb001b" d="M35.249 25a17.97 17.97 0 0 1 6.874-14.152 18 18 0 1 0 0 28.304A17.97 17.97 0 0 1 35.25 25"/><path fill="#f79e1b" d="M71.246 25a18 18 0 0 1-29.122 14.152 18.003 18.003 0 0 0 0-28.304A18 18 0 0 1 71.246 25M69.529 36.154v-.58h.234v-.117h-.596v.117h.234v.58zm1.155 0v-.699h-.182l-.21.48-.21-.48H69.9v.699h.128v-.527l.197.454h.134l.196-.455v.528z"/></svg>