<svg xmlns="http://www.w3.org/2000/svg" width="85" height="50" fill="none" viewBox="0 0 85 50"><!-- Original logo design by Mastercard. All rights reserved. This SVG has been modified for layout consistency by Polako Finance. No claim of ownership or endorsement is implied. --><path fill="#ff5f00" d="M51.11 9.276h-17.5v31.448h17.5z"/><path fill="#eb001b" d="M34.72 25a19.97 19.97 0 0 1 7.64-15.724 20 20 0 1 0 0 31.448A19.97 19.97 0 0 1 34.72 25"/><path fill="#f79e1b" d="M74.718 25a20 20 0 0 1-32.359 15.724 20.003 20.003 0 0 0 0-31.448A19.999 19.999 0 0 1 74.718 25M72.81 37.393v-.644h.26v-.13h-.662v.13h.26v.644zm1.283 0v-.776h-.202l-.233.534-.234-.534h-.202v.776h.143v-.585l.218.505h.149l.218-.507v.587z"/></svg>
