<svg xmlns="http://www.w3.org/2000/svg" width="85" height="50" fill="none" viewBox="0 0 85 50"><!-- Original logo design by Mastercard. All rights reserved. This SVG has been modified for layout consistency by Polako Finance. No claim of ownership or endorsement is implied. --><path fill="#fff" d="M27.401 42.921v-2.39c0-.913-.556-1.511-1.512-1.511-.478 0-.997.157-1.355.677-.278-.436-.677-.677-1.275-.677-.4 0-.798.12-1.114.556v-.478h-.835v3.823h.835v-2.11c0-.678.357-.998.914-.998s.835.357.835.997v2.111h.835v-2.11c0-.678.4-.998.914-.998.557 0 .835.357.835.997v2.111zm12.387-3.823h-1.355v-1.155h-.835v1.155h-.756v.757h.756v1.753c0 .877.357 1.392 1.313 1.392.357 0 .756-.12 1.035-.278l-.242-.72c-.24.158-.52.2-.719.2-.399 0-.556-.241-.556-.636v-1.711h1.354v-.757zm7.089-.083c-.478 0-.798.241-.998.557v-.478h-.835v3.822h.835v-2.152c0-.636.279-.998.798-.998.158 0 .357.042.52.08l.24-.799c-.166-.032-.403-.032-.56-.032m-10.712.399c-.4-.279-.956-.4-1.554-.4-.956 0-1.592.479-1.592 1.235 0 .636.478.997 1.313 1.113l.4.042c.435.079.676.2.676.4 0 .277-.32.477-.876.477-.557 0-.998-.2-1.276-.4l-.399.636c.436.32 1.035.478 1.633.478 1.113 0 1.754-.52 1.754-1.234 0-.677-.52-1.034-1.313-1.155l-.4-.042c-.356-.041-.635-.12-.635-.357 0-.278.279-.436.72-.436.477 0 .955.2 1.196.32zm22.217-.4c-.478 0-.798.242-.998.558v-.478h-.835v3.822h.835v-2.152c0-.636.279-.998.798-.998.158 0 .357.042.52.08l.241-.79c-.162-.041-.399-.041-.561-.041m-10.67 1.996c0 1.155.797 1.99 2.032 1.99.556 0 .955-.12 1.354-.436l-.399-.677c-.32.24-.635.357-.997.357-.677 0-1.155-.478-1.155-1.234 0-.72.478-1.197 1.155-1.234.357 0 .677.12.997.357l.4-.677c-.4-.32-.799-.436-1.355-.436-1.234-.005-2.032.835-2.032 1.99m7.724 0v-1.912H54.6v.478c-.279-.357-.678-.556-1.197-.556-1.076 0-1.912.835-1.912 1.99S52.329 43 53.405 43c.557 0 .955-.2 1.197-.557v.478h.835zm-3.067 0c0-.677.436-1.234 1.156-1.234.677 0 1.155.52 1.155 1.234 0 .677-.478 1.234-1.155 1.234-.715-.042-1.156-.562-1.156-1.234m-9.992-1.995c-1.114 0-1.912.798-1.912 1.99 0 1.197.798 1.99 1.953 1.99.557 0 1.114-.157 1.554-.52l-.398-.598c-.32.241-.72.4-1.114.4-.52 0-1.035-.242-1.155-.915h2.825v-.32c.037-1.23-.682-2.027-1.753-2.027m0 .719c.52 0 .876.32.955.914h-1.99c.079-.515.436-.914 1.035-.914m20.746 1.276v-3.424h-.835v1.99c-.278-.357-.677-.556-1.197-.556-1.076 0-1.911.835-1.911 1.99S60.015 43 61.09 43c.557 0 .956-.2 1.197-.557v.478h.835zm-3.067 0c0-.677.437-1.234 1.156-1.234.677 0 1.155.52 1.155 1.234 0 .677-.478 1.234-1.155 1.234-.72-.042-1.156-.562-1.156-1.234m-27.955 0v-1.912h-.835v.478c-.279-.357-.678-.556-1.197-.556-1.076 0-1.912.835-1.912 1.99S28.993 43 30.07 43c.556 0 .956-.2 1.197-.557v.478h.835zm-3.104 0c0-.677.436-1.234 1.155-1.234.678 0 1.156.52 1.156 1.234 0 .677-.478 1.234-1.156 1.234-.719-.042-1.155-.562-1.155-1.234"/><path fill="#ff5a00" d="M48.431 10.067H35.887v22.537H48.43z"/><path fill="#eb001b" d="M36.722 21.335c0-4.579 2.152-8.643 5.455-11.269A14.26 14.26 0 0 0 33.335 7C25.411 7 19 13.411 19 21.335S25.411 35.67 33.335 35.67c3.345 0 6.411-1.155 8.842-3.066a14.3 14.3 0 0 1-5.455-11.269"/><path fill="#f79e1b" d="M65.355 21.335c0 7.924-6.412 14.335-14.336 14.335a14.26 14.26 0 0 1-8.842-3.066 14.26 14.26 0 0 0 5.456-11.269c0-4.579-2.153-8.643-5.456-11.269A14.24 14.24 0 0 1 51.015 7c7.928 0 14.34 6.453 14.34 14.335"/></svg>