<svg xmlns="http://www.w3.org/2000/svg" width="139" height="50" fill="none" viewBox="0 0 139 50"><!-- Original logo design by Mastercard. All rights reserved. This SVG has been modified for layout consistency by Polako Finance. No claim of ownership or endorsement is implied. --><path fill="#ff5f00" d="M30.834 17.3H22.19v15.532h8.644z"/><path fill="#eb001b" d="M22.739 25.066a9.86 9.86 0 0 1 3.773-7.766 9.878 9.878 0 1 0 0 15.533 9.86 9.86 0 0 1-3.773-7.767"/><path fill="#f79e1b" d="M42.494 25.066a9.877 9.877 0 0 1-15.982 7.767 9.88 9.88 0 0 0 0-15.533 9.878 9.878 0 0 1 15.982 7.766M41.551 31.187v-.318h.129v-.065h-.327v.065h.128v.318zm.634 0v-.383h-.1l-.115.263-.115-.263h-.1v.383h.07v-.29l.108.25h.074l.108-.25v.29z"/><path fill="#fff" d="M52.556 35h-.366V15h.366v20M62.68 31.188h-1.026V19.407h1.026zm7.49-11.781c.9-.013 1.796.126 2.65.412a5.6 5.6 0 0 1 2.003 1.178 5.2 5.2 0 0 1 1.27 1.856 6.92 6.92 0 0 1 0 4.889 5.2 5.2 0 0 1-1.27 1.855 5.6 5.6 0 0 1-2.003 1.178 8 8 0 0 1-2.65.413h-4.3V19.407zm-3.274.976v9.829h3.274a6.8 6.8 0 0 0 2.272-.35 4.6 4.6 0 0 0 1.657-.988c.453-.432.801-.962 1.019-1.549a6.14 6.14 0 0 0 0-4.056 4.16 4.16 0 0 0-1.019-1.552 4.5 4.5 0 0 0-1.657-.99 6.9 6.9 0 0 0-2.272-.344zm21.576-1.11c.493-.002.985.054 1.464.167.46.108.905.27 1.325.484q.609.309 1.12.762c.33.294.618.634.854 1.01l-.859.572a4.2 4.2 0 0 0-.719-.833 4.5 4.5 0 0 0-.917-.631 4.7 4.7 0 0 0-1.077-.4 5 5 0 0 0-1.191-.139 5.2 5.2 0 0 0-1.956.362 4.66 4.66 0 0 0-2.626 2.617 5.7 5.7 0 0 0 0 4.107 4.661 4.661 0 0 0 2.625 2.617 5.2 5.2 0 0 0 1.957.361q.601.002 1.187-.134a4.6 4.6 0 0 0 1.99-1.027c.277-.246.519-.53.72-.841l.84.614a5 5 0 0 1-.87.993 5.4 5.4 0 0 1-1.111.749c-.415.21-.855.37-1.308.475a6.6 6.6 0 0 1-3.842-.282 5.8 5.8 0 0 1-1.915-1.24 5.7 5.7 0 0 1-1.266-1.903 6.7 6.7 0 0 1 0-4.868 5.7 5.7 0 0 1 1.266-1.906c.55-.537 1.2-.959 1.915-1.241a6.4 6.4 0 0 1 2.394-.446m7.918 5.368q.227-.377.552-.673.31-.283.685-.468.372-.18.775-.269.399-.087.807-.088c.462-.005.92.07 1.355.223a3.05 3.05 0 0 1 1.056.635c.299.281.532.624.682 1.006.165.422.246.872.24 1.325v4.856h-.959v-4.561a3.2 3.2 0 0 0-.169-1.077 2.15 2.15 0 0 0-.496-.812 2.2 2.2 0 0 0-.8-.51 3 3 0 0 0-1.077-.176 2.8 2.8 0 0 0-1.039.19 2.49 2.49 0 0 0-1.405 1.37c-.14.338-.211.7-.207 1.065v4.51h-.959V19.07h.96zm11.857-1.498a3.6 3.6 0 0 1 1.468.299c.444.193.842.477 1.17.833.339.373.603.807.779 1.279a4.6 4.6 0 0 1 .277 2.024h-6.639c.025.425.129.841.307 1.228a2.823 2.823 0 0 0 1.616 1.481c.365.13.751.196 1.14.194a3.5 3.5 0 0 0 1.49-.303c.44-.204.841-.483 1.186-.825l.513.656a4.6 4.6 0 0 1-.77.632 3.948 3.948 0 0 1-1.628.614q-.424.06-.85.059a4.2 4.2 0 0 1-1.599-.299 3.7 3.7 0 0 1-1.262-.837 3.8 3.8 0 0 1-.825-1.288 4.5 4.5 0 0 1-.294-1.657 4.4 4.4 0 0 1 .299-1.646c.186-.482.466-.922.824-1.295a3.7 3.7 0 0 1 1.246-.846 4 4 0 0 1 1.552-.303m-.017.85a2.774 2.774 0 0 0-1.986.779c-.257.25-.466.545-.618.87-.164.35-.268.726-.307 1.111h5.663a3.4 3.4 0 0 0-.278-1.123 2.8 2.8 0 0 0-.593-.871 2.63 2.63 0 0 0-1.881-.766m9.248-.85a4.2 4.2 0 0 1 1.637.316c.491.202.93.515 1.283.913l-.623.648a3.4 3.4 0 0 0-1.039-.72 3.1 3.1 0 0 0-1.283-.257 3 3 0 0 0-1.208.24 2.98 2.98 0 0 0-1.616 1.675 3.63 3.63 0 0 0 0 2.55 2.95 2.95 0 0 0 1.616 1.666c.382.161.793.243 1.208.24.448.005.891-.087 1.3-.27a3.6 3.6 0 0 0 1.047-.715l.598.656a3.6 3.6 0 0 1-1.288.913 4.42 4.42 0 0 1-3.269.005 3.81 3.81 0 0 1-2.12-2.15 4.55 4.55 0 0 1 0-3.245 3.82 3.82 0 0 1 2.12-2.154 4.2 4.2 0 0 1 1.637-.311m5.806 3.467h1.288l3.332-3.34h1.212l-3.77 3.736 3.837 4.182h-1.22l-3.391-3.711h-1.288v3.71h-.959V19.07h.959z"/></svg>