<svg xmlns="http://www.w3.org/2000/svg" width="222" height="50" fill="none" viewBox="0 0 222 50"><!-- Original logo design by Mastercard. All rights reserved. This SVG has been modified for layout consistency by Polako Finance. No claim of ownership or endorsement is implied. --><path fill="#ff5f00" d="M44.518 11.91H29.824v26.405h14.694z"/><path fill="#eb001b" d="M30.757 25.112a16.77 16.77 0 0 1 6.414-13.202 16.794 16.794 0 1 0 0 26.405 16.76 16.76 0 0 1-6.414-13.203"/><path fill="#f79e1b" d="M64.341 25.113a16.794 16.794 0 0 1-27.17 13.202 16.796 16.796 0 0 0 0-26.405 16.793 16.793 0 0 1 27.17 13.203M62.739 35.518v-.54h.218v-.11H62.4v.11h.218v.54zm1.077 0v-.651h-.17l-.196.448-.195-.448h-.17v.651h.12v-.491l.183.423h.125l.183-.425v.493z"/><path fill="#fff" d="M81.447 42h-.622V8h.621v34M98.657 35.519h-1.745V15.49h1.745zM111.39 15.49a13.6 13.6 0 0 1 4.506.701 9.6 9.6 0 0 1 3.405 2.003 8.8 8.8 0 0 1 2.16 3.154 11.77 11.77 0 0 1 0 8.312 8.8 8.8 0 0 1-2.16 3.154 9.6 9.6 0 0 1-3.405 2.003 13.6 13.6 0 0 1-4.506.7h-7.31V15.492zm-5.565 1.66v16.708h5.565a11.5 11.5 0 0 0 3.863-.593 7.8 7.8 0 0 0 2.818-1.681 7 7 0 0 0 1.731-2.632 10.44 10.44 0 0 0 0-6.896 7.1 7.1 0 0 0-1.731-2.639 7.7 7.7 0 0 0-2.818-1.68 11.7 11.7 0 0 0-3.863-.587zm36.679-1.889c.838-.002 1.674.094 2.489.287.781.183 1.538.46 2.253.822a9 9 0 0 1 1.903 1.295 8 8 0 0 1 1.452 1.716l-1.459.973c-.343-.524-.755-1-1.223-1.416a7.7 7.7 0 0 0-1.56-1.073 8 8 0 0 0-1.831-.68 8.6 8.6 0 0 0-2.024-.235 8.9 8.9 0 0 0-3.326.614 7.9 7.9 0 0 0-2.675 1.746 8.2 8.2 0 0 0-1.788 2.704 9.68 9.68 0 0 0 0 6.98 8.2 8.2 0 0 0 1.788 2.704 7.9 7.9 0 0 0 2.675 1.745 8.9 8.9 0 0 0 3.326.616 8.8 8.8 0 0 0 2.017-.23 7.8 7.8 0 0 0 1.824-.672 7.7 7.7 0 0 0 1.559-1.072c.472-.419.883-.9 1.224-1.431l1.43 1.044a8.5 8.5 0 0 1-1.481 1.688c-.574.501-1.208.929-1.888 1.274a9.8 9.8 0 0 1-2.224.808 11.2 11.2 0 0 1-6.531-.48 9.8 9.8 0 0 1-3.254-2.11 9.7 9.7 0 0 1-2.153-3.233 11.37 11.37 0 0 1 0-8.275 9.7 9.7 0 0 1 2.153-3.24 9.8 9.8 0 0 1 3.254-2.11 10.8 10.8 0 0 1 4.07-.759m13.461 9.127c.256-.424.572-.81.937-1.144.35-.319.742-.586 1.166-.794a5.8 5.8 0 0 1 1.316-.458c.451-.1.912-.15 1.374-.15a6.7 6.7 0 0 1 2.303.379 5.2 5.2 0 0 1 1.795 1.08 4.7 4.7 0 0 1 1.159 1.71c.28.717.419 1.482.408 2.253v8.254h-1.631v-7.754a5.5 5.5 0 0 0-.286-1.83 3.66 3.66 0 0 0-.844-1.381 3.7 3.7 0 0 0-1.359-.866 5.2 5.2 0 0 0-1.831-.3 4.8 4.8 0 0 0-1.767.322 4.21 4.21 0 0 0-2.389 2.331 4.6 4.6 0 0 0-.351 1.81v7.668h-1.631v-20.6h1.631zm20.157-2.546a6.1 6.1 0 0 1 2.496.508 5.9 5.9 0 0 1 1.988 1.416 6.7 6.7 0 0 1 1.324 2.174 7.86 7.86 0 0 1 .472 3.44h-11.287c.042.724.219 1.432.522 2.09a4.9 4.9 0 0 0 1.138 1.551 4.8 4.8 0 0 0 1.609.966 5.7 5.7 0 0 0 1.938.33 6 6 0 0 0 2.532-.516 7.1 7.1 0 0 0 2.017-1.402l.873 1.116a8 8 0 0 1-1.309 1.073 7 7 0 0 1-1.359.687q-.686.256-1.409.357-.72.1-1.445.1a7.1 7.1 0 0 1-2.718-.508 6.3 6.3 0 0 1-2.146-1.423 6.45 6.45 0 0 1-1.402-2.189 7.6 7.6 0 0 1-.501-2.818 7.5 7.5 0 0 1 .508-2.796 6.7 6.7 0 0 1 1.402-2.203 6.3 6.3 0 0 1 2.117-1.438 6.7 6.7 0 0 1 2.64-.515m-.029 1.445a4.9 4.9 0 0 0-1.881.35 4.7 4.7 0 0 0-1.495.973 5 5 0 0 0-1.051 1.48 5.9 5.9 0 0 0-.522 1.889h9.627a5.8 5.8 0 0 0-.472-1.91 4.8 4.8 0 0 0-1.009-1.48 4.48 4.48 0 0 0-3.197-1.302m15.721-1.445c.954-.01 1.9.173 2.783.536a5.96 5.96 0 0 1 2.181 1.552l-1.058 1.102a5.9 5.9 0 0 0-1.767-1.223 5.3 5.3 0 0 0-2.182-.436 5.15 5.15 0 0 0-2.052.407 5.05 5.05 0 0 0-1.653 1.13 5.2 5.2 0 0 0-1.094 1.717 6.17 6.17 0 0 0 0 4.334 5 5 0 0 0 2.747 2.833 5.2 5.2 0 0 0 2.052.408 5.3 5.3 0 0 0 2.211-.458 6.1 6.1 0 0 0 1.78-1.216l1.016 1.116a6.1 6.1 0 0 1-2.189 1.552 7.5 7.5 0 0 1-5.557.007 6.5 6.5 0 0 1-3.605-3.655 7.74 7.74 0 0 1 0-5.515 6.47 6.47 0 0 1 3.605-3.662 7.1 7.1 0 0 1 2.782-.53m9.871 5.894h2.188l5.665-5.68h2.06l-6.408 6.352 6.523 7.11h-2.075l-5.765-6.309h-2.188v6.309h-1.631v-20.6h1.631z"/></svg>