<svg xmlns="http://www.w3.org/2000/svg" width="258" height="50" fill="none" viewBox="0 0 258 50"><!-- Original logo design by Mastercard. All rights reserved. This SVG has been modified for layout consistency by Polako Finance. No claim of ownership or endorsement is implied. --><path fill="#ff5f00" d="M50.61 9.6H33.322v31.065H50.61z"/><path fill="#eb001b" d="M34.42 25.132A19.72 19.72 0 0 1 41.966 9.6a19.757 19.757 0 1 0 0 31.066 19.72 19.72 0 0 1-7.546-15.533"/><path fill="#f79e1b" d="M73.931 25.132a19.756 19.756 0 0 1-31.965 15.533 19.76 19.76 0 0 0 0-31.066 19.756 19.756 0 0 1 31.965 15.533M72.047 37.375v-.636h.256v-.13h-.653v.13h.256v.636zm1.268 0v-.767h-.2l-.23.527-.231-.527h-.2v.767h.14v-.579l.217.499h.146l.216-.5v.58z"/><path fill="#fff" d="M94.054 45h-.731V5h.731v40M114.302 37.375h-2.053V13.813h2.053zm14.979-23.562a16 16 0 0 1 5.301.825 11.3 11.3 0 0 1 4.006 2.356 10.3 10.3 0 0 1 2.541 3.711 13.85 13.85 0 0 1 0 9.778 10.3 10.3 0 0 1-2.541 3.711 11.3 11.3 0 0 1-4.006 2.357c-1.708.571-3.5.85-5.301.824h-8.601V13.813zm-6.547 1.953v19.657h6.547c1.543.027 3.08-.209 4.544-.698a9.2 9.2 0 0 0 3.315-1.978 8.25 8.25 0 0 0 2.037-3.097 12.28 12.28 0 0 0 0-8.112 8.3 8.3 0 0 0-2.037-3.105 9.06 9.06 0 0 0-3.315-1.977 13.7 13.7 0 0 0-4.544-.69zm43.151-2.222c.986-.003 1.969.11 2.929.337.919.216 1.809.54 2.65.967.809.41 1.561.922 2.239 1.524a9.3 9.3 0 0 1 1.708 2.02l-1.716 1.143a8.3 8.3 0 0 0-1.439-1.665 9 9 0 0 0-1.835-1.263 9.4 9.4 0 0 0-2.154-.8c-.78-.186-1.58-.279-2.382-.277a10.5 10.5 0 0 0-3.913.724 9.3 9.3 0 0 0-3.147 2.053 9.6 9.6 0 0 0-2.103 3.181 11.4 11.4 0 0 0 0 8.213 9.6 9.6 0 0 0 2.103 3.18 9.3 9.3 0 0 0 3.147 2.054c1.246.49 2.575.736 3.913.724.799.002 1.596-.088 2.374-.27a9.2 9.2 0 0 0 2.145-.79 9 9 0 0 0 1.835-1.263 8.1 8.1 0 0 0 1.439-1.683l1.683 1.229a10 10 0 0 1-1.742 1.986 11 11 0 0 1-2.221 1.498c-.831.421-1.71.74-2.617.95a13.16 13.16 0 0 1-7.684-.563 11.5 11.5 0 0 1-3.828-2.483 11.4 11.4 0 0 1-2.533-3.804 13.38 13.38 0 0 1 0-9.735 11.4 11.4 0 0 1 2.533-3.812 11.5 11.5 0 0 1 3.828-2.483 12.7 12.7 0 0 1 4.788-.892m15.837 10.738c.301-.5.672-.953 1.103-1.347a5.9 5.9 0 0 1 1.371-.934 6.9 6.9 0 0 1 1.549-.538 7.5 7.5 0 0 1 1.615-.177c.923-.01 1.84.14 2.71.446a6.1 6.1 0 0 1 2.112 1.27 5.6 5.6 0 0 1 1.364 2.012c.329.844.492 1.744.479 2.65v9.711h-1.918v-9.121a6.5 6.5 0 0 0-.337-2.155 4.3 4.3 0 0 0-.993-1.624 4.4 4.4 0 0 0-1.599-1.018 6.1 6.1 0 0 0-2.154-.354 5.7 5.7 0 0 0-2.079.38 4.97 4.97 0 0 0-2.81 2.742 5.4 5.4 0 0 0-.413 2.13v9.02h-1.918V13.14h1.918zm23.714-2.996a7.2 7.2 0 0 1 2.937.598 7 7 0 0 1 2.339 1.665 7.9 7.9 0 0 1 1.557 2.559 9.3 9.3 0 0 1 .556 4.047h-13.279c.049.85.257 1.684.614 2.457.322.691.776 1.311 1.338 1.826.55.5 1.193.886 1.893 1.137a6.7 6.7 0 0 0 2.28.386 7 7 0 0 0 2.98-.605 8.4 8.4 0 0 0 2.372-1.65l1.027 1.313a9.4 9.4 0 0 1-1.54 1.263 8.2 8.2 0 0 1-1.599.807q-.806.3-1.658.42-.845.12-1.699.119a8.4 8.4 0 0 1-3.198-.598 7.4 7.4 0 0 1-2.524-1.674 7.6 7.6 0 0 1-1.65-2.575 9 9 0 0 1-.589-3.316 8.8 8.8 0 0 1 .598-3.29 7.8 7.8 0 0 1 1.649-2.592 7.4 7.4 0 0 1 2.491-1.691 7.9 7.9 0 0 1 3.105-.606m-.034 1.7c-.757-.01-1.51.13-2.213.412a5.6 5.6 0 0 0-1.759 1.145 5.9 5.9 0 0 0-1.236 1.741 6.9 6.9 0 0 0-.615 2.222h11.327a6.9 6.9 0 0 0-.556-2.247 5.7 5.7 0 0 0-1.186-1.742 5.28 5.28 0 0 0-3.762-1.531m18.496-1.7a8.4 8.4 0 0 1 3.273.631 7 7 0 0 1 2.567 1.826l-1.246 1.296a6.9 6.9 0 0 0-2.078-1.439 6.24 6.24 0 0 0-2.567-.513 6.1 6.1 0 0 0-2.415.48 5.9 5.9 0 0 0-1.944 1.329 6.1 6.1 0 0 0-1.287 2.02 7.26 7.26 0 0 0 0 5.099 5.89 5.89 0 0 0 3.231 3.332 6.1 6.1 0 0 0 2.415.48 6.2 6.2 0 0 0 2.601-.539 7.2 7.2 0 0 0 2.095-1.43l1.195 1.313a7.2 7.2 0 0 1-2.575 1.826 8.84 8.84 0 0 1-6.539.008 7.64 7.64 0 0 1-4.241-4.3 9.1 9.1 0 0 1 0-6.488 7.63 7.63 0 0 1 4.241-4.308 8.4 8.4 0 0 1 3.274-.623m11.612 6.934h2.575l6.664-6.682h2.424l-7.54 7.473 7.674 8.364h-2.44l-6.782-7.422h-2.575v7.422h-1.919V13.14h1.919z"/></svg>
