<svg xmlns="http://www.w3.org/2000/svg" width="258" height="50" fill="none" viewBox="0 0 258 50"><!-- Original logo design by Mastercard. All rights reserved. This SVG has been modified for layout consistency by Polako Finance. No claim of ownership or endorsement is implied. --><path fill="#ff5f00" d="M58.549 11.14H42.99v27.959H58.55z"/><path fill="#eb001b" d="M43.978 25.119a17.75 17.75 0 0 1 6.791-13.98 17.781 17.781 0 1 0 0 27.96 17.75 17.75 0 0 1-6.79-13.98"/><path fill="#f79e1b" d="M79.538 25.119a17.781 17.781 0 0 1-28.768 13.98 17.783 17.783 0 0 0 0-27.96 17.78 17.78 0 0 1 28.768 13.98M77.842 36.137v-.572h.23v-.117h-.587v.117h.23v.572zm1.141 0v-.69h-.18l-.207.475-.208-.475h-.18v.69h.127v-.52l.195.448h.132l.194-.45v.522z"/><path fill="#000" d="M97.65 43h-.66V7h.66v36M115.872 36.138h-1.848V14.932h1.848zm13.481-21.206a14.4 14.4 0 0 1 4.771.742 10.1 10.1 0 0 1 3.605 2.121 9.3 9.3 0 0 1 2.287 3.34 12.45 12.45 0 0 1 0 8.8 9.3 9.3 0 0 1-2.287 3.34 10.1 10.1 0 0 1-3.605 2.12c-1.537.515-3.15.766-4.771.743h-7.74V14.932zm-5.892 1.757v17.692h5.892a12.2 12.2 0 0 0 4.09-.629 8.3 8.3 0 0 0 2.984-1.78 7.4 7.4 0 0 0 1.832-2.787 11.04 11.04 0 0 0 0-7.3 7.5 7.5 0 0 0-1.832-2.795 8.16 8.16 0 0 0-2.984-1.78 12.4 12.4 0 0 0-4.09-.62zm38.836-2c.888-.002 1.772.1 2.636.304a10.7 10.7 0 0 1 2.385.87c.728.37 1.405.83 2.015 1.372a8.4 8.4 0 0 1 1.537 1.817l-1.545 1.03a7.4 7.4 0 0 0-1.295-1.5 8 8 0 0 0-1.651-1.136 8.5 8.5 0 0 0-1.938-.719 9 9 0 0 0-2.144-.25c-1.205-.01-2.4.21-3.521.651a8.4 8.4 0 0 0-2.833 1.849 8.6 8.6 0 0 0-1.893 2.862 10.25 10.25 0 0 0 0 7.392 8.6 8.6 0 0 0 1.893 2.863 8.4 8.4 0 0 0 2.833 1.847 9.4 9.4 0 0 0 3.521.652 9.3 9.3 0 0 0 2.136-.243 8.2 8.2 0 0 0 1.931-.711 8 8 0 0 0 1.651-1.136 7.3 7.3 0 0 0 1.295-1.515l1.515 1.106a9 9 0 0 1-1.568 1.787 9.8 9.8 0 0 1-1.999 1.348c-.748.38-1.538.667-2.355.856a11.84 11.84 0 0 1-6.915-.508 10.4 10.4 0 0 1-3.446-2.234 10.3 10.3 0 0 1-2.28-3.423 12.05 12.05 0 0 1 0-8.762 10.2 10.2 0 0 1 2.28-3.431 10.4 10.4 0 0 1 3.446-2.235 11.4 11.4 0 0 1 4.309-.802m14.253 9.664c.271-.45.605-.857.993-1.211.369-.337.785-.62 1.234-.841.443-.217.911-.38 1.393-.484a6.8 6.8 0 0 1 1.455-.16c.83-.01 1.655.127 2.439.402a5.5 5.5 0 0 1 1.9 1.143 5 5 0 0 1 1.228 1.81c.296.76.443 1.57.431 2.386v8.74h-1.727v-8.21a5.8 5.8 0 0 0-.303-1.939 3.9 3.9 0 0 0-.893-1.461 3.9 3.9 0 0 0-1.439-.917 5.5 5.5 0 0 0-1.939-.318 5.1 5.1 0 0 0-1.871.341 4.47 4.47 0 0 0-2.529 2.469 4.8 4.8 0 0 0-.372 1.916v8.119h-1.726V14.326h1.726zm21.343-2.696a6.5 6.5 0 0 1 2.643.538 6.3 6.3 0 0 1 2.105 1.5 7.1 7.1 0 0 1 1.401 2.302 8.3 8.3 0 0 1 .5 3.643h-11.951a6.1 6.1 0 0 0 .553 2.211 5.083 5.083 0 0 0 2.908 2.666 6 6 0 0 0 2.053.348 6.3 6.3 0 0 0 2.681-.545 7.5 7.5 0 0 0 2.135-1.484l.924 1.181q-.632.642-1.385 1.136a7.4 7.4 0 0 1-1.44.727c-.482.18-.982.307-1.492.379q-.76.105-1.529.106a7.6 7.6 0 0 1-2.878-.538 6.7 6.7 0 0 1-2.272-1.507 6.8 6.8 0 0 1-1.485-2.317 8.1 8.1 0 0 1-.53-2.984 8 8 0 0 1 .538-2.961c.336-.868.84-1.661 1.484-2.333a6.7 6.7 0 0 1 2.242-1.522 7.1 7.1 0 0 1 2.795-.546m-.031 1.53a5.2 5.2 0 0 0-1.992.371 5 5 0 0 0-1.582 1.03c-.463.451-.84.982-1.113 1.568a6.2 6.2 0 0 0-.553 2h10.194a6.2 6.2 0 0 0-.5-2.023 5.1 5.1 0 0 0-1.068-1.567 4.76 4.76 0 0 0-3.386-1.379m16.646-1.53a7.55 7.55 0 0 1 2.946.568 6.3 6.3 0 0 1 2.31 1.644l-1.121 1.166a6.2 6.2 0 0 0-1.87-1.295 5.6 5.6 0 0 0-2.31-.462 5.5 5.5 0 0 0-2.174.432 5.3 5.3 0 0 0-1.749 1.196 5.5 5.5 0 0 0-1.159 1.818 6.53 6.53 0 0 0 0 4.59 5.3 5.3 0 0 0 2.908 2.999c.688.29 1.428.438 2.174.431a5.6 5.6 0 0 0 2.34-.484 6.5 6.5 0 0 0 1.886-1.288l1.075 1.182a6.45 6.45 0 0 1-2.317 1.643 7.96 7.96 0 0 1-5.885.008 6.87 6.87 0 0 1-3.817-3.87 8.2 8.2 0 0 1 0-5.84 6.85 6.85 0 0 1 3.817-3.877 7.6 7.6 0 0 1 2.946-.56m10.451 6.24h2.318l5.998-6.012h2.181l-6.786 6.725 6.907 7.528h-2.196l-6.104-6.68h-2.318v6.68h-1.727V14.326h1.727z"/></svg>