<svg xmlns="http://www.w3.org/2000/svg" width="130" height="50" fill="none" viewBox="0 0 130 50"><path fill="#1d1b20" d="M24.57 30.258a.74.74 0 0 1-.521-.202.74.74 0 0 1-.202-.521V17.84q0-.32.202-.522a.7.7 0 0 1 .521-.202h7.791q.32 0 .522.202a.63.63 0 0 1 .202.488q0 .285-.202.488a.74.74 0 0 1-.522.185h-7.067v4.476h5.132q.32 0 .505.202a.67.67 0 0 1 .202.488q0 .303-.202.505-.185.185-.505.185h-5.132v5.2a.71.71 0 0 1-.219.521.69.69 0 0 1-.505.202M36.467 30.258a.7.7 0 0 1-.521-.202.7.7 0 0 1-.202-.521V17.84q0-.32.202-.522a.7.7 0 0 1 .521-.202q.32 0 .522.202a.7.7 0 0 1 .202.522v11.695a.7.7 0 0 1-.202.521.7.7 0 0 1-.522.202M41.619 30.258a.7.7 0 0 1-.522-.202.7.7 0 0 1-.202-.521V17.84q0-.32.202-.522a.7.7 0 0 1 .521-.202q.337 0 .556.27L49.999 27.7v-9.86q0-.32.201-.522a.7.7 0 0 1 .522-.202q.303 0 .505.202a.68.68 0 0 1 .219.522v11.695a.68.68 0 0 1-.22.521.69.69 0 0 1-.504.202 1 1 0 0 1-.303-.05.63.63 0 0 1-.252-.202L42.342 19.69v9.844a.68.68 0 0 1-.219.521.69.69 0 0 1-.505.202M54.494 30.258q-.42 0-.623-.336a.79.79 0 0 1-.033-.707l4.88-11.611q.217-.488.706-.488t.673.488l4.897 11.628a.7.7 0 0 1-.05.706.65.65 0 0 1-.59.32.74.74 0 0 1-.403-.118.8.8 0 0 1-.286-.32l-4.476-10.97h.505L55.15 29.82a.67.67 0 0 1-.27.337.8.8 0 0 1-.386.101m1.043-3.062.556-1.229h6.747l.572 1.229zM68.042 30.258a.7.7 0 0 1-.522-.202.7.7 0 0 1-.202-.521V17.84q0-.32.202-.522a.7.7 0 0 1 .522-.202q.337 0 .555.27L76.422 27.7v-9.86q0-.32.202-.522a.7.7 0 0 1 .522-.202q.302 0 .504.202a.68.68 0 0 1 .22.522v11.695a.68.68 0 0 1-.22.521.69.69 0 0 1-.505.202 1 1 0 0 1-.302-.05.63.63 0 0 1-.253-.202L68.766 19.69v9.844a.68.68 0 0 1-.22.521.69.69 0 0 1-.504.202M87.48 30.426a6.3 6.3 0 0 1-2.558-.521 6.7 6.7 0 0 1-2.086-1.447 6.8 6.8 0 0 1-1.397-2.137 7.1 7.1 0 0 1-.488-2.642q0-1.396.488-2.609a6.6 6.6 0 0 1 1.397-2.137 6.5 6.5 0 0 1 2.07-1.447 6.2 6.2 0 0 1 2.574-.538q1.229 0 2.204.353.977.337 1.902 1.11a.47.47 0 0 1 .185.27q.051.135 0 .27a.6.6 0 0 1-.118.235.46.46 0 0 1-.202.303.65.65 0 0 1-.37.1.72.72 0 0 1-.437-.168 4.2 4.2 0 0 0-1.38-.841q-.74-.286-1.784-.286-1.06 0-2.002.437a5.2 5.2 0 0 0-1.633 1.161 5.5 5.5 0 0 0-1.11 1.717 5.6 5.6 0 0 0-.387 2.07q0 1.127.387 2.103.404.976 1.11 1.717.707.74 1.633 1.16.942.421 2.002.421.891 0 1.7-.303a6.2 6.2 0 0 0 1.548-.858q.236-.185.47-.151a.67.67 0 0 1 .422.218q.185.17.185.472 0 .15-.05.269a1.3 1.3 0 0 1-.152.252 5.7 5.7 0 0 1-1.935 1.11 7.1 7.1 0 0 1-2.188.337M95.616 30.258a.7.7 0 0 1-.522-.202.7.7 0 0 1-.202-.521V17.84q0-.32.202-.522a.7.7 0 0 1 .522-.202h7.808q.302 0 .504.202a.63.63 0 0 1 .202.488q0 .285-.202.488a.72.72 0 0 1-.504.185h-7.085v4.476h5.133q.32 0 .521.202a.66.66 0 0 1 .202.488q0 .303-.202.505a.74.74 0 0 1-.521.185h-5.133v4.56h7.085q.302 0 .504.202a.61.61 0 0 1 .202.471q0 .303-.202.505a.72.72 0 0 1-.504.185z"/><path fill="#1d1b20" fill-rule="evenodd" d="M64.256 43.43c0 .24.026.47.46.47.436 0 .528-.247.528-.47v-1.778c.21.005.608.003.945.001l.385-.001c.634 0 1.868-.324 1.819-2.01-.035-1.21-1.03-1.712-1.819-1.712h-1.903c-.36 0-.427.37-.415.556zm3.106-3.789c-.072-.741-.675-.715-2.118-.741v1.757q.158.001.324.005c.941.02 1.898.032 1.794-1.02" clip-rule="evenodd"/><path fill="#1d1b20" d="M79.413 37.912c-.334-.004-.506.321-.506.476v5.053c0 .306.322.468.486.468h2.813c.296 0 .508-.189.52-.549.009-.288-.294-.466-.52-.466H79.96c.002-1.458.004-4.399 0-4.506a.525.525 0 0 0-.546-.476"/><path fill="#1d1b20" fill-rule="evenodd" d="M84.602 43.328a.475.475 0 0 0 .261.549c.294.145.57-.066.653-.205l.518-1.261h2.295l.53 1.263c.09.154.36.336.652.205.298-.135.323-.472.265-.63l-2.081-5.012c-.142-.327-.366-.341-.5-.35l-.02-.001c-.205 0-.383.098-.532.49-.078.205-.552 1.35-1.056 2.567-.357.862-.729 1.76-.985 2.385m3.317-1.926h-1.464l.716-1.743zM70.568 40.923c0 1.819 1.23 3.03 2.807 3.075 1.879.056 2.997-1.368 2.997-3.075s-1.1-3.075-2.997-3.075c-1.617 0-2.807 1.257-2.807 3.075m2.807 2.036c-1.028 0-1.725-.912-1.725-2.036 0-1.025.621-2.062 1.725-2.062 1.011 0 1.916.625 1.916 2.062 0 1.355-.887 2.036-1.916 2.036M98.8 40.91c0 1.818 1.23 3.028 2.807 3.074 1.879.056 2.997-1.368 2.997-3.075s-1.1-3.075-2.997-3.075c-1.617 0-2.807 1.256-2.807 3.075m2.807 2.035c-1.028 0-1.725-.912-1.725-2.036 0-1.025.621-2.062 1.725-2.062 1.011 0 1.916.625 1.916 2.062 0 1.354-.887 2.035-1.916 2.035" clip-rule="evenodd"/><path fill="#1d1b20" d="M92.65 43.903c-.352.012-.482-.32-.503-.486l.004-5.044c0-.148.171-.458.507-.461.337-.004.535.246.535.46v2.3c.875-.839 2.658-2.546 2.792-2.667.168-.15.467-.133.641.045a.49.49 0 0 1 .031.68l-1.892 1.796c.593.758 1.81 2.312 1.935 2.46.158.186.295.538-.04.816a.51.51 0 0 1-.767-.115l-1.912-2.427-.788.734c.004.423.01 1.3 0 1.423-.01.155-.1.472-.542.486"/><path fill="#1d1b20" d="M110.051 40.434c-.342 0-.408.298-.408.466 0 .148.066.49.408.49h5.117c1.561-.06 2.276-1.631 2.26-2.483v-10.51l.009-9.402V8.483c.016-.851-.7-2.422-2.261-2.483H12.883c-1.561.06-2.26 1.38-2.26 2.483v10.512l.008 9.401v10.511c0 1.058.7 2.423 2.26 2.484h45.833c.342 0 .409-.343.409-.491 0-.168-.067-.466-.409-.466H12.891c-.694 0-1.314-.614-1.314-1.527V28.396l-.009-9.401V8.483c0-.912.58-1.526 1.315-1.526h102.293c.602 0 1.314.614 1.314 1.526v10.512l-.008 9.401v10.511c0 .913-.755 1.466-1.314 1.527z"/></svg>