<svg xmlns="http://www.w3.org/2000/svg" width="139" height="50" fill="none" viewBox="0 0 139 50"><path fill="#fff" d="M25.416 30.812a.82.82 0 0 1-.576-.223.82.82 0 0 1-.223-.577V17.086a.78.78 0 0 1 .223-.577.78.78 0 0 1 .576-.223h8.612a.78.78 0 0 1 .576.223.7.7 0 0 1 .223.54q0 .315-.223.54a.82.82 0 0 1-.576.204h-7.812v4.947h5.673q.353 0 .558.223a.74.74 0 0 1 .223.54q0 .334-.223.558-.205.204-.558.204h-5.673v5.747q0 .334-.242.577a.76.76 0 0 1-.558.223M38.566 30.812a.78.78 0 0 1-.577-.223.78.78 0 0 1-.223-.577V17.086a.78.78 0 0 1 .223-.577.78.78 0 0 1 .577-.223.78.78 0 0 1 .576.223.78.78 0 0 1 .223.577v12.926a.78.78 0 0 1-.223.577.78.78 0 0 1-.576.223M44.26 30.812a.78.78 0 0 1-.577-.223.78.78 0 0 1-.223-.577V17.086a.78.78 0 0 1 .223-.577.78.78 0 0 1 .576-.223q.372 0 .614.298l8.649 11.4V17.087a.78.78 0 0 1 .223-.577.78.78 0 0 1 .576-.223q.336 0 .558.223a.75.75 0 0 1 .242.577v12.926a.75.75 0 0 1-.242.577.76.76 0 0 1-.558.223q-.167 0-.334-.056a.7.7 0 0 1-.28-.223L45.06 19.132v10.88a.75.75 0 0 1-.242.577.76.76 0 0 1-.558.223M58.49 30.812q-.466 0-.688-.372a.87.87 0 0 1-.037-.781l5.393-12.833q.242-.54.782-.54t.743.54l5.413 12.851a.77.77 0 0 1-.056.781.72.72 0 0 1-.651.354.8.8 0 0 1-.446-.13.87.87 0 0 1-.317-.354L63.68 18.202h.558l-5.021 12.126a.74.74 0 0 1-.298.372.9.9 0 0 1-.428.112m1.153-3.385.614-1.358h7.458l.632 1.358zM73.464 30.812a.78.78 0 0 1-.576-.223.78.78 0 0 1-.223-.577V17.086a.78.78 0 0 1 .223-.577.78.78 0 0 1 .576-.223q.372 0 .614.298l8.649 11.4V17.087a.78.78 0 0 1 .223-.577.78.78 0 0 1 .576-.223q.336 0 .558.223a.75.75 0 0 1 .242.577v12.926q0 .354-.242.577a.76.76 0 0 1-.558.223q-.167 0-.334-.056a.7.7 0 0 1-.28-.223l-8.648-11.401v10.88q0 .354-.242.577a.76.76 0 0 1-.558.223M94.949 30.998a7 7 0 0 1-2.827-.577 7.4 7.4 0 0 1-2.306-1.6 7.6 7.6 0 0 1-1.544-2.361 7.8 7.8 0 0 1-.54-2.92q0-1.544.54-2.883a7.3 7.3 0 0 1 1.543-2.362 7.2 7.2 0 0 1 2.288-1.6 6.84 6.84 0 0 1 2.846-.595q1.357 0 2.436.39 1.08.373 2.102 1.228.167.13.204.298a.4.4 0 0 1 0 .298.64.64 0 0 1-.13.26.5.5 0 0 1-.223.335.72.72 0 0 1-.41.111.8.8 0 0 1-.483-.186 4.7 4.7 0 0 0-1.525-.93q-.818-.316-1.971-.316-1.172 0-2.213.484a5.8 5.8 0 0 0-1.805 1.283 6.1 6.1 0 0 0-1.227 1.897 6.2 6.2 0 0 0-.428 2.288q0 1.245.428 2.325.446 1.078 1.227 1.897.782.818 1.805 1.283 1.041.465 2.213.465.986 0 1.878-.335a6.9 6.9 0 0 0 1.711-.948q.26-.206.521-.168a.74.74 0 0 1 .465.242q.205.186.205.52a.8.8 0 0 1-.056.298q-.056.13-.168.28a6.3 6.3 0 0 1-2.138 1.227 7.8 7.8 0 0 1-2.418.372M103.941 30.812a.78.78 0 0 1-.577-.223.78.78 0 0 1-.223-.577V17.086q0-.354.223-.577a.78.78 0 0 1 .577-.223h8.63q.334 0 .558.223a.7.7 0 0 1 .223.54q0 .315-.223.54a.8.8 0 0 1-.558.204h-7.83v4.947h5.672q.354 0 .577.223a.73.73 0 0 1 .223.54q0 .334-.223.558a.82.82 0 0 1-.577.204h-5.672v5.04h7.83q.334 0 .558.224.223.204.223.52a.76.76 0 0 1-.223.558.8.8 0 0 1-.558.205z"/><path fill="#fff" fill-rule="evenodd" d="M69.28 45.37c0 .265.028.52.509.52.48 0 .582-.273.582-.52v-1.965c.233.006.673.003 1.044.001l.427-.001c.7 0 2.064-.358 2.01-2.223-.039-1.336-1.139-1.89-2.01-1.89h-2.103c-.4 0-.473.409-.46.614zm3.433-4.188c-.08-.819-.747-.79-2.342-.819v1.943q.176 0 .359.005c1.04.021 2.097.035 1.983-1.129" clip-rule="evenodd"/><path fill="#fff" d="M86.032 39.271c-.37-.004-.56.355-.56.526v5.586c0 .338.356.517.538.517h3.11c.327 0 .56-.21.573-.607.01-.319-.324-.516-.574-.516h-2.483c.002-1.61.004-4.861 0-4.98a.58.58 0 0 0-.604-.526"/><path fill="#fff" fill-rule="evenodd" d="M91.767 45.257a.524.524 0 0 0 .29.607c.324.16.63-.073.72-.226l.574-1.394h2.536l.586 1.396c.1.17.398.371.72.226.33-.15.357-.521.293-.695l-2.3-5.54c-.157-.362-.405-.378-.552-.387l-.023-.002c-.226 0-.424.11-.588.541-.086.227-.61 1.493-1.167 2.837-.394.954-.805 1.946-1.089 2.637m3.667-2.128h-1.619l.792-1.927zM76.257 42.6c0 2.01 1.359 3.347 3.102 3.399 2.077.06 3.312-1.513 3.312-3.4 0-1.886-1.216-3.399-3.312-3.399-1.787 0-3.102 1.39-3.102 3.4m3.102 2.25c-1.136 0-1.907-1.008-1.907-2.25 0-1.134.687-2.28 1.907-2.28 1.118 0 2.118.691 2.118 2.28 0 1.496-.98 2.25-2.118 2.25M107.46 42.584c0 2.01 1.359 3.348 3.103 3.399 2.076.061 3.312-1.513 3.312-3.4 0-1.886-1.216-3.398-3.312-3.398-1.788 0-3.103 1.389-3.103 3.399m3.103 2.25c-1.137 0-1.907-1.008-1.907-2.25 0-1.133.687-2.28 1.907-2.28 1.118 0 2.117.691 2.117 2.28 0 1.497-.98 2.25-2.117 2.25" clip-rule="evenodd"/><path fill="#fff" d="M100.664 45.893c-.391.013-.534-.353-.557-.537l.005-5.576c0-.163.189-.505.56-.51.372-.003.591.273.591.51v2.542c.967-.927 2.938-2.815 3.086-2.948.186-.166.516-.147.709.05.268.272.17.603.034.752L103 42.16c.655.839 2 2.556 2.139 2.72.174.205.327.594-.043.901a.564.564 0 0 1-.849-.127l-2.113-2.682-.871.81c.005.468.01 1.437 0 1.574-.012.17-.111.522-.599.537"/><path fill="#fff" d="M119.896 42.058c-.378 0-.451.33-.451.516 0 .163.073.542.451.542h5.655c1.726-.067 2.517-1.803 2.499-2.745V28.753l.009-10.39V6.745c.018-.941-.773-2.678-2.498-2.745H12.498C10.773 4.067 10 5.526 10 6.745v11.618l.01 10.39v11.618c0 1.17.773 2.678 2.498 2.745h50.658c.378 0 .452-.38.452-.542 0-.186-.074-.516-.452-.516H12.508c-.767 0-1.452-.678-1.452-1.687V28.753l-.01-10.39V6.745c0-1.01.642-1.687 1.452-1.687h113.063c.665 0 1.452.678 1.452 1.687v11.618l-.009 10.39v11.618c0 1.01-.834 1.62-1.453 1.687z"/></svg>