<svg xmlns="http://www.w3.org/2000/svg" width="391" height="50" fill="none" viewBox="0 0 391 50"><g clip-path="url(#a)"><path fill="url(#b)" d="M36.366 2 10 48c10.968-12.267 17.227-19.524 26.366-25.524z"/><path fill="url(#c)" d="M53.756 32.854C33.958 33.787 24.626 37.563 10 48c10.968-12.267 17.227-19.524 26.366-25.524z"/><path fill="url(#d)" d="M53.757 32.854 36.367 2.14v20.336z"/><path fill="#fff" d="m177.691 43.057-1.9-4.516h.575l1.927 4.516zm-3.848 0 1.928-4.516h.581l-1.9 4.516zm.913-1.284v-.49h2.631v.49zM171.532 43.134a2.4 2.4 0 0 1-1.197-.297 2.2 2.2 0 0 1-.818-.826 2.43 2.43 0 0 1-.297-1.212q0-.684.29-1.207.298-.529.812-.825a2.3 2.3 0 0 1 1.19-.304q.426 0 .818.149.393.141.704.406.31.258.48.6l-.494.239a1.5 1.5 0 0 0-.372-.471 1.8 1.8 0 0 0-.527-.31 1.6 1.6 0 0 0-.609-.116 1.67 1.67 0 0 0-1.501.884 2 2 0 0 0-.216.955q0 .541.223.961t.615.658q.4.232.899.232.325 0 .616-.122.29-.13.52-.349.237-.22.372-.503l.501.239q-.176.354-.487.632a2.2 2.2 0 0 1-.703.432 2.2 2.2 0 0 1-.819.155M166.303 43.057l1.934-4.516h.602l-1.961 4.516zm-.061 0-1.961-4.516h.602l1.927 4.516zM161.674 43.134q-.684 0-1.211-.297a2.13 2.13 0 0 1-.825-.826 2.43 2.43 0 0 1-.297-1.212q0-.69.291-1.213.297-.53.818-.826a2.4 2.4 0 0 1 1.204-.297q.683 0 1.203.304.528.296.818.825.291.523.291 1.207t-.291 1.212a2.1 2.1 0 0 1-.811.826 2.34 2.34 0 0 1-1.19.297m0-.497q.507 0 .892-.232.386-.24.602-.651.223-.414.223-.955a1.96 1.96 0 0 0-.223-.949 1.674 1.674 0 0 0-1.514-.89q-.508 0-.9.239a1.63 1.63 0 0 0-.615.651 1.96 1.96 0 0 0-.223.949q0 .542.223.955t.622.651q.399.232.913.232M154.422 43.057V38.54h.581l2.82 3.625v-3.625h.575v4.516h-.575l-2.826-3.645v3.645zM149.757 43.134q-.724 0-1.278-.297a2.3 2.3 0 0 1-.873-.826 2.34 2.34 0 0 1-.311-1.206q0-.69.311-1.213.318-.529.873-.825.554-.304 1.278-.304.378 0 .737.123.359.116.656.322t.48.471l-.453.297a1.4 1.4 0 0 0-.365-.367 1.8 1.8 0 0 0-.507-.259 1.96 1.96 0 0 0-1.522.148q-.426.233-.669.646a1.85 1.85 0 0 0-.244.961q0 .53.237.949.243.412.669.651a2 2 0 0 0 .981.239q.46 0 .811-.18.358-.188.562-.51a1.4 1.4 0 0 0 .202-.755l.548-.039q0 .594-.27 1.039a1.9 1.9 0 0 1-.751.69q-.48.245-1.102.245m.412-1.91v-.47h1.711v.425l-.27.045zM144.378 43.134q-.682 0-1.21-.297a2.1 2.1 0 0 1-.825-.826 2.44 2.44 0 0 1-.298-1.212q0-.69.291-1.213.298-.53.818-.826a2.4 2.4 0 0 1 1.204-.297q.683 0 1.204.304.527.296.818.825.291.523.291 1.207t-.291 1.212a2.1 2.1 0 0 1-.811.826q-.514.297-1.191.297m0-.497q.508 0 .893-.232.386-.24.602-.651.223-.414.223-.955a1.96 1.96 0 0 0-.223-.949 1.669 1.669 0 0 0-1.515-.89q-.507 0-.899.239a1.63 1.63 0 0 0-.616.651 2 2 0 0 0-.223.949q0 .542.223.955.224.412.622.651.4.232.913.232M138.635 41.508l-.237-.496 2.489-2.471h.716zm-.399 1.549V38.54h.548v4.516zm2.759 0-1.941-2.297.372-.348 2.265 2.645zM135.597 43.134q-.393 0-.697-.077a2 2 0 0 1-.527-.226 1.6 1.6 0 0 1-.366-.323 1.3 1.3 0 0 1-.209-.38l.548-.181q.1.284.405.497.311.206.758.206.547 0 .859-.206.31-.206.311-.549 0-.315-.278-.51a2.1 2.1 0 0 0-.73-.309l-.521-.129a2.4 2.4 0 0 1-.588-.226 1.3 1.3 0 0 1-.426-.387 1 1 0 0 1-.156-.568q0-.612.413-.954.419-.349 1.204-.349.467 0 .804.149.339.141.548.367.216.22.304.478l-.541.18a1 1 0 0 0-.432-.503 1.4 1.4 0 0 0-.737-.187q-.454 0-.724.213a.68.68 0 0 0-.264.568q0 .309.21.477a1.4 1.4 0 0 0 .548.239l.52.122q.69.156 1.055.517.372.354.372.767 0 .355-.189.652a1.3 1.3 0 0 1-.561.464q-.366.168-.913.168M128.845 43.057V38.54h.582l2.82 3.625v-3.625h.574v4.516h-.574l-2.827-3.645v3.645zM125.61 43.134q-.682 0-1.21-.297a2.1 2.1 0 0 1-.825-.826 2.44 2.44 0 0 1-.298-1.212q0-.69.291-1.213.297-.53.818-.826a2.4 2.4 0 0 1 1.204-.297q.683 0 1.204.304.527.296.818.825.291.523.291 1.207t-.291 1.212a2.1 2.1 0 0 1-.812.826 2.34 2.34 0 0 1-1.19.297m0-.497q.507 0 .893-.232.386-.24.602-.651.223-.414.223-.955a1.96 1.96 0 0 0-.223-.949 1.671 1.671 0 0 0-1.515-.89q-.507 0-.899.239a1.63 1.63 0 0 0-.616.651 2 2 0 0 0-.223.949q0 .542.223.955t.622.651q.4.232.913.232M119.362 43.057V38.54h1.542q.46 0 .811.174.359.174.555.484.202.31.202.71t-.216.71q-.216.309-.588.49a1.96 1.96 0 0 1-.839.173h-.892v1.775zm2.671 0-1.136-1.852.453-.284 1.312 2.136zm-2.096-2.278h1.048a.96.96 0 0 0 .46-.11.9.9 0 0 0 .324-.309.8.8 0 0 0 .129-.452.78.78 0 0 0-.284-.625q-.277-.245-.724-.245h-.953zM116.584 43.057v-4.02h-1.508v-.496h3.584v.497h-1.508v4.019zM111.902 41.508l-.236-.496 2.488-2.471h.717zm-.399 1.549V38.54h.548v4.516zm2.759 0-1.94-2.297.372-.348 2.265 2.645zM107.501 43.057V38.54h2.8v.497h-2.225v1.458h2.029v.49h-2.029v1.574h2.239v.497zM103.988 43.057V38.54h.575v4.019h2.232v.497zM99.987 43.057V38.54h2.799v.497h-2.224v1.458h2.028v.49h-2.028v1.574h2.238v.497zM97.02 43.057l-1.901-4.516h.575l1.927 4.516zm-3.849 0L95.1 38.54h.581l-1.9 4.516zm.913-1.284v-.49h2.63v.49zM90.963 43.134q-.244 0-.453-.07a1.4 1.4 0 0 1-.366-.175 1.4 1.4 0 0 1-.466-.561l.433-.24q.142.24.344.395.21.154.514.154.244 0 .474-.11a.86.86 0 0 0 .385-.367q.15-.258.149-.677V38.54h.568v3.154q0 .356-.135.626-.129.27-.359.452a1.5 1.5 0 0 1-.507.27q-.285.09-.581.091M88.423 43.057V38.54h.575v4.516zM85.545 43.134q-.676 0-1.197-.297a2.2 2.2 0 0 1-.819-.826 2.43 2.43 0 0 1-.297-1.212q0-.684.29-1.207.3-.529.812-.825a2.3 2.3 0 0 1 1.19-.304q.426 0 .819.149.391.141.703.406.31.258.48.6l-.494.239a1.5 1.5 0 0 0-.372-.471 1.8 1.8 0 0 0-.527-.31 1.6 1.6 0 0 0-.609-.116 1.67 1.67 0 0 0-1.5.884 2 2 0 0 0-.217.955q0 .541.223.961.224.42.615.658.399.232.9.232.324 0 .615-.122.29-.13.52-.349.237-.22.373-.503l.5.239a2.1 2.1 0 0 1-.487.632 2.2 2.2 0 0 1-.703.432 2.2 2.2 0 0 1-.818.155M80.514 43.153q-.535 0-.947-.212a1.64 1.64 0 0 1-.636-.6 1.7 1.7 0 0 1-.23-.89v-2.91h.575v2.91q0 .354.156.632.162.27.446.425.285.15.649.149.372 0 .656-.149.291-.155.446-.425.162-.278.162-.633v-2.91h.569v2.91q0 .504-.23.89-.23.381-.65.6-.418.213-.967.213M75.99 43.057v-4.02h-1.507v-.496h3.584v.497h-1.508v4.019zM73.202 43.057V38.54h.575v4.516zM70.424 43.057v-4.02h-1.508v-.496H72.5v.497h-1.508v4.019zM66.832 43.134a2.8 2.8 0 0 1-.697-.077 2 2 0 0 1-.528-.226 1.6 1.6 0 0 1-.365-.323 1.3 1.3 0 0 1-.21-.38l.549-.181q.1.284.405.497.311.206.758.206.547 0 .858-.206t.311-.549q0-.315-.277-.51a2.1 2.1 0 0 0-.73-.309l-.52-.129a2.4 2.4 0 0 1-.59-.226 1.3 1.3 0 0 1-.425-.387 1 1 0 0 1-.156-.568q0-.612.413-.954.419-.349 1.204-.349.466 0 .804.149.339.141.548.367.216.22.304.478l-.54.18a1 1 0 0 0-.433-.503 1.4 1.4 0 0 0-.738-.187q-.453 0-.723.213a.68.68 0 0 0-.264.568q0 .309.21.477.21.161.547.239l.521.122q.69.156 1.055.517.372.354.372.767 0 .355-.19.652a1.3 1.3 0 0 1-.56.464q-.366.168-.913.168M60.08 43.057V38.54h.581l2.82 3.625v-3.625h.575v4.516h-.575l-2.827-3.645v3.645zM58.244 43.057V38.54h.575v4.516zM164.97 17.146h-3.226l7.153 9.537v6.17h2.524v-6.17l6.872-9.537h-2.945l-5.189 7.013zM164.268 32.854h-2.805l-2.103-3.647h-8.976l-2.244 3.647h-2.664l9.396-15.708zm-12.622-5.89h6.452l-3.226-5.61zM143.512 17.146c.281 0 3.366 1.122 3.366 4.628s-3.085 4.348-3.366 4.348h-7.853v6.732h-2.525V17.146zm-7.853 2.244v4.208h7.853c.141 0 1.122-.561 1.122-2.104s-.981-2.103-1.122-2.104z"/><path fill="#d20000" d="m119.671 17.146-8.695 15.708h3.365l5.33-9.397 5.609 9.397h3.366zM94.708 17.146v3.226h6.871v12.482h3.086V20.372h6.872v-3.226zM79.842 17.146v15.708h14.866v-3.086h-11.78V17.146zM66.94 17.146l-8.696 15.708h3.366l5.33-9.397 5.609 9.397h3.366z"/><path fill="#fff" d="M344.446 37.657c.022.917-.458 2.205-1.61 2.205-1.212 0-1.714-1.201-1.714-2.172 0-1.087.562-2.195 1.725-2.195 1.162 0 1.621 1.108 1.599 2.162m-4.399 5.338h1.075v-3.199h.022c.333.535.917.939 1.943.939 1.757 0 2.5-1.556 2.5-3.155s-.824-2.947-2.511-2.947c-1.026 0-1.692.524-1.976.96h-.021v-.824h-1.027v8.226zm-1.692-8.225h-1.075v2.696c0 1.419-.551 2.401-1.769 2.401-.938-.054-1.233-.72-1.233-2.08V34.77h-1.075v3.46c0 1.566.677 2.5 2.183 2.5.813 0 1.588-.399 1.91-1.065h.022v.928h1.042v-5.829zm-11.243 2.914c0-1.108.677-2.183 1.828-2.183s1.818 1.075 1.818 2.183c0 1.037-.562 2.183-1.818 2.183-1.255 0-1.828-1.14-1.828-2.183m-1.141 0c0 1.67 1.212 3.051 2.969 3.051 1.758 0 2.958-1.38 2.958-3.051 0-1.768-1.189-3.05-2.958-3.05-1.768 0-2.969 1.276-2.969 3.05m-3.919 2.915h1.076v-2.653c0-1.463.627-2.374 1.588-2.374.185 0 .398.022.595.103v-.96c-.229-.044-.388-.082-.71-.082-.617 0-1.233.437-1.517 1.042h-.022v-.9h-1.004v5.829zm-1.861-7.712c-.66-.23-1.179-.399-2.341-.399-2.434 0-4.214 1.632-4.214 4.088s1.681 4.159 4.203 4.159c1.244 0 1.998-.207 2.434-.355v-4.148h-2.822v.939h1.681v2.423c-.283.055-.491.137-1.277.137-1.659 0-3.001-1.245-3.001-3.117s1.222-3.116 3.061-3.116c1.026 0 1.632.18 2.194.546l.093-1.152zm-15.374 4.797c0-1.108.676-2.183 1.828-2.183 1.151 0 1.817 1.075 1.817 2.183 0 1.037-.562 2.183-1.817 2.183s-1.828-1.14-1.828-2.183m-1.141 0c0 1.67 1.211 3.051 2.969 3.051s2.958-1.38 2.958-3.051c0-1.768-1.19-3.05-2.958-3.05s-2.969 1.276-2.969 3.05m-2.511 2.915h1.075v-8.57h-1.075zm-6.227-2.915c0-1.108.677-2.183 1.828-2.183s1.818 1.075 1.818 2.183c0 1.037-.563 2.183-1.818 2.183s-1.828-1.14-1.828-2.183m-1.141 0c0 1.67 1.212 3.051 2.969 3.051 1.758 0 2.958-1.38 2.958-3.051 0-1.768-1.189-3.05-2.958-3.05-1.768 0-2.969 1.276-2.969 3.05m-2.363.65c0 .867-.562 1.533-1.621 1.533-.491 0-1.086-.333-1.086-.95 0-1.026 1.441-1.118 2.019-1.118.229 0 .459.021.688.021zm-3.128-2.238c.437-.366 1.087-.595 1.692-.595 1.076 0 1.441.513 1.441 1.517-.42-.022-.72-.022-1.14-.022-1.108 0-2.707.459-2.707 1.921 0 1.267.878 1.818 2.134 1.818.982 0 1.555-.535 1.806-.89h.022v.754h1.004c-.022-.17-.044-.48-.044-1.141v-2.413c0-1.588-.676-2.412-2.341-2.412-.742 0-1.381.23-1.921.551zm-2.778 1.566c.022.917-.458 2.205-1.61 2.205-1.211 0-1.713-1.2-1.713-2.172 0-1.086.562-2.194 1.724-2.194 1.163 0 1.621 1.108 1.599 2.161M281.129 43h1.076v-3.198h.021c.333.535.912.938 1.943.938 1.758 0 2.5-1.555 2.5-3.154 0-1.6-.824-2.947-2.516-2.947-1.026 0-1.692.523-1.976.96h-.022v-.824h-1.026zm-6.844-2.401h1.075v-2.697c0-1.419.552-2.401 1.769-2.401.939.054 1.233.72 1.233 2.08v3.017h1.075v-3.46c0-1.566-.671-2.5-2.183-2.5-.813 0-1.588.399-1.91 1.065h-.022v-.928h-1.037v5.829zm-2.751-2.26c0 .868-.562 1.534-1.62 1.534-.492 0-1.087-.333-1.087-.95 0-1.026 1.441-1.119 2.02-1.119.229 0 .458.022.687.022zm-3.127-2.238c.437-.365 1.086-.595 1.692-.595 1.075 0 1.441.513 1.441 1.518-.42-.022-.72-.022-1.141-.022-1.108 0-2.707.458-2.707 1.92 0 1.267.879 1.818 2.134 1.818.983 0 1.556-.535 1.807-.89h.022v.754h1.004c-.022-.17-.044-.48-.044-1.14V37.05c0-1.588-.677-2.413-2.341-2.413-.743 0-1.381.23-1.921.552zm-2.025-3.324a5.3 5.3 0 0 0-1.703-.283c-1.44 0-2.559.753-2.559 2.172 0 2.478 3.427 1.987 3.427 3.771 0 .939-.911 1.305-1.566 1.305-.584 0-1.266-.23-1.654-.388l-.115 1.064c.524.17 1.076.333 1.632.333 1.6 0 2.915-.671 2.915-2.374 0-2.625-3.428-2.27-3.428-3.804 0-.835.754-1.064 1.392-1.064.595 0 .912.103 1.496.333l.158-1.054zm-9.676 5.562c0 .868-.563 1.534-1.621 1.534-.492 0-1.087-.333-1.087-.95 0-1.026 1.441-1.119 2.02-1.119.229 0 .458.022.688.022zm-3.128-2.238c.437-.365 1.086-.595 1.692-.595 1.075 0 1.441.513 1.441 1.518-.42-.022-.72-.022-1.141-.022-1.108 0-2.707.458-2.707 1.92 0 1.267.879 1.818 2.134 1.818.983 0 1.556-.535 1.807-.89h.022v.754h1.004c-.022-.17-.044-.48-.044-1.14V37.05c0-1.588-.677-2.413-2.341-2.413-.743 0-1.381.23-1.921.552zm-5.13 4.317c.491.262 1.053.322 1.599.322 1.037 0 2.036-.573 2.036-1.817 0-1.861-2.527-1.517-2.527-2.707 0-.48.48-.71 1.026-.71.251 0 .889.148 1.13.295l.092-.939c-.42-.125-.835-.229-1.337-.229-1.151 0-2.057.584-2.057 1.796 0 1.632 2.527 1.544 2.527 2.603 0 .628-.606.835-1.097.835-.312 0-.917-.136-1.338-.41zm-4.972-3.29c.082-.754.513-1.622 1.566-1.622.928 0 1.452.732 1.452 1.621zm3.711 2.16c-.262.219-1.086.585-1.796.585a1.91 1.91 0 0 1-1.921-1.943h4.159c0-1.872-.628-3.291-2.571-3.291-1.642 0-2.728 1.222-2.728 2.947 0 1.894.949 3.154 3.018 3.154.96 0 1.43-.229 1.839-.376zm-5.676-4.513h-1.545v-1.692l-1.075.344v1.348h-1.315v.868h1.315v3.405c0 1.168.688 1.692 1.796 1.692.344 0 .676-.092.911-.158v-.911a1.3 1.3 0 0 1-.731.207c-.491 0-.901-.366-.901-1.042v-3.188h1.545v-.873m-9.939 5.829h1.075v-2.696c0-1.42.546-2.402 1.769-2.402.938.055 1.233.72 1.233 2.08v3.018h1.075v-3.46c0-1.567-.671-2.5-2.183-2.5-.813 0-1.588.398-1.91 1.064h-.022v-.928h-1.037v5.83zm-2.936 0h1.14V32.63h-1.14zM219.319 13.637l-.005-.006c-.142-.087-.36-.136-.502-.07-.928-.088-1.818-.077-2.756-.072h-.066c-.469.006-.955.011-1.441 0l-3.935-.082a44 44 0 0 0-2.925.022c-.732.006-1.447.028-2.173.044-.758.022-2.565.027-3.64.027h-.917c-.131.006-.284.186-.284.328 0 .082.044.169.18.185.104.011.754.011 1.938.011h1.212c.322-.005.474 0 .54-.005h.005c.89-.093 1.785-.088 2.653-.082h.065c.563 0 1.141.005 1.72-.016.12.027.251 0 .371-.022h.016a.6.6 0 0 1 .164-.028c.131.039.284.039.442.033.153 0 .311-.005.453.027h.027c.126-.049.24-.027.36 0h.022c.055.011.115.022.164.022 1.124-.032 2.369.011 3.919.131l.731.082h.011c.65-.065 1.326-.016 1.981.033h.017c.491.038.955.07 1.413.06h.027l.246-.202.011-.01a.345.345 0 0 0-.055-.421M212.808 21.998l.022-.01v-.05l-.017-1.534v-.01c-.027-.23-.032-.486-.038-.754a7 7 0 0 0-.054-.895c-.006-.398-.088-.824-.164-1.233l-.049-.279v-.027l-.022-.022c-.06-.06-.082-.136-.104-.229a.6.6 0 0 0-.087-.224 3.3 3.3 0 0 0-.409-.53v-.01c-.044-.05-.088-.076-.121-.098-.021-.017-.043-.027-.065-.044l-.033-.027h-.022l-.027-.017c-.131-.103-.251-.141-.393-.19-.038-.06-.12-.066-.169-.072v-.038l-.071-.01-.338-.05h-.05l-.032.033c-.011.016-.017.022-.088-.006a1 1 0 0 0-.109-.027h-.038l-.016.017c-.011-.006-.022-.017-.039-.022l-.141-.044-.011.066a.4.4 0 0 0-.164.032h-.431l.022.082c-.093-.022-.164.038-.202.071-.006 0-.017.011-.017.017-.076.01-.114.043-.147.065-.022.016-.027.022-.049.022h-.033l-.022.027a.7.7 0 0 1-.18.104l-.115.049.028.027-.055.033h-.109v.087h-.011l-.065-.027-.044.055a2.3 2.3 0 0 1-.251.283 3 3 0 0 0-.306.366l-.027.038.016.039s-.071.043-.082.109c-.043.043-.054.109-.06.147 0 .01 0 .027-.005.038-.044.055-.055.11-.066.153a.14.14 0 0 1-.021.066l-.055.07.027.017c-.016.043-.016.082-.016.109v.033l-.038.022.011.054c.016.11 0 .208-.011.311a1.2 1.2 0 0 0-.017.322c-.043.066-.032.137-.027.186v.049l-.054.044.038.065c.027.05.005.126-.017.202-.021.071-.049.158-.021.24l-.022.022q-.017.017-.017.066c0 .06 0 .076-.005.081l-.038.082v.033l.065.05c-.005.048 0 .097 0 .136.011.054.011.076-.005.098l-.044.082.044.054v.017c0 .038-.006.103.038.152 0 .011 0 .017.005.028l-.082.022.055.114s0 .017-.005.027c-.011.033-.022.104.011.159a.27.27 0 0 0 0 .174c0 .011.005.028.01.039-.076.082-.038.19-.016.25-.038.055-.027.12-.022.164l-.103.039.109.109s-.006.054.011.082a.1.1 0 0 0 .043.038l-.032.01v.012l.038.098v.01a.2.2 0 0 0 .032.16.07.07 0 0 0-.016.048l-.044.044.044.06c.033.044.022.104 0 .202-.022.082-.044.19 0 .278l-.06.06.076.055v.01c-.021.039-.054.104-.01.175 0 0 .01.082 0 .142a.56.56 0 0 0 .021.295l-.016.104v-.011a.14.14 0 0 0 .011.098l-.033.016.022.071c.022.077.027.17.027.262 0 .186 0 .393.169.552l.039.032.049-.016c.125-.038.131-.158.136-.23v-.07c-.049-.17-.027-.393-.011-.584q.01-.082.011-.148v-.021l-.005-.022c-.033-.071-.027-.137-.017-.213a.6.6 0 0 0-.005-.235c.027-.36.011-.78 0-1.157l-.016-.447v-.011a3.6 3.6 0 0 1-.011-.551c0-.164.011-.333-.006-.492.038-.18.038-.344.033-.518v-.278c.038-.05.049-.093.027-.142a.7.7 0 0 0 .022-.186c0-.044 0-.087.011-.126v-.043c-.011-.038 0-.082.011-.126.011-.054.027-.125 0-.19.065-.137.082-.301.093-.46v-.054q.015-.049-.028-.098c0-.076.039-.131.082-.207.049-.077.109-.17.12-.29v-.022l.017-.016c.032-.027.076-.066.076-.13q.001-.018-.005-.034a.7.7 0 0 0 .131-.169c.049-.082.082-.136.18-.17l.049-.01.011-.05c.016-.054.06-.081.131-.13a.5.5 0 0 0 .158-.131c.06.005.098-.011.12-.033.077-.016.131-.06.18-.098.077-.066.104-.076.159-.055l.054.022.033-.033h.005a.14.14 0 0 0 .093-.06c.022 0 .044-.01.066-.016.043-.016.054-.016.071-.01.016.01.043.02.081.01h.066l.082-.01c.245-.034.458-.06.649.043l.066.038.043-.06s.017.022.028.027c.049.055.136.148.262.131.027.022.06.044.087.06a.2.2 0 0 1 .033.022l.016.027c.038.05.12.077.186.077.147.153.289.36.289.453v.087h.065v.006c.022.109.055.25.142.343-.021.055 0 .126.006.153 0 .011.005.022.005.033l-.022.066.055.054h.011c0 .065.022.12.044.158l.016.033-.011.033c-.076.147.027.23.076.267l.017.017c-.038.027-.038.06-.044.114v.066l.033.043v.011c0 .011.011.028.022.05l-.028.027-.021.076.043.06.033.017c0 .032.011.065.022.087v.049c-.033.142-.071.322.016.47l-.005.005a.19.19 0 0 0-.022.158c0 .016.005.038 0 .044l-.022.087s.027.011.055.016c0 .011-.006.017-.011.028l-.017.098h.033c0 .033-.005.066-.005.098 0 .05 0 .088-.022.11v.01l-.011.011c-.027.093.011.18.038.246 0 .016.011.027.017.038a.1.1 0 0 0-.028.071v.022l-.016.016.016.05a.1.1 0 0 0 .049.054h-.016v.098l-.055.017.028.054s-.028.066-.011.104l-.038.065s.005.038.038.055c-.033.114.049.202.104.25.021.023.032.04.043.05h-.043l.032.11s-.016.016-.022.026l-.071.033.022.099v.021a.11.11 0 0 0 0 .104l.011.01a.17.17 0 0 0-.06.121v.082l.06.01-.016.05c-.011.027-.017.055-.027.076q.001.002-.006.011l.115.066a.4.4 0 0 0-.033.082c0 .01-.011.027-.011.032h-.104v.11l.017.06q.001.03.011.07v.17h-.011l.011.065v.148l-.077.038.093.103a.3.3 0 0 0-.022.104h-.071l.115.142s.016.044.027.066v.01c-.049.044-.054.115-.06.148 0 .016 0 .038-.011.049l.027.038s-.038.038-.043.05c-.011.027-.011.054-.011.081h-.109l.093.093-.088.027.071.06v.23a.1.1 0 0 0 .055.092c.043.033.098.027.136.017v.092l.109-.032a.5.5 0 0 1 .208-.017l.093.017.01-.093c.044-.344.033-.671.028-.988a5.3 5.3 0 0 1 .022-.895c.027-.055 0-.11-.017-.137M206.281 21.998l.022-.01v-.05l-.017-1.534v-.01c-.027-.23-.032-.486-.038-.754a7 7 0 0 0-.055-.895c-.005-.398-.087-.824-.163-1.233l-.049-.279v-.027l-.022-.022c-.06-.06-.082-.136-.104-.229-.022-.076-.038-.153-.087-.224a3.2 3.2 0 0 0-.41-.53v-.01c-.043-.05-.087-.076-.12-.098-.021-.017-.043-.027-.065-.044l-.033-.027h-.022l-.027-.017c-.131-.103-.251-.141-.393-.19-.038-.06-.12-.066-.169-.072v-.038l-.077-.01-.338-.05h-.049l-.033.033c-.011.016-.016.022-.087-.006-.033-.01-.066-.021-.109-.027h-.039l-.021.017c-.011-.006-.022-.017-.039-.022l-.141-.044-.011.066q-.099 0-.164.032h-.437l.028.082c-.093-.022-.164.038-.202.071-.006 0-.017.011-.022.017-.077.01-.115.043-.148.065-.021.016-.027.022-.049.022h-.032l-.022.027a.6.6 0 0 1-.186.104l-.114.049.027.027-.055.033h-.109v.087h-.011l-.06-.027-.044.055c-.065.092-.158.185-.245.283a3 3 0 0 0-.306.366l-.027.038.016.039s-.071.043-.082.109c-.043.043-.054.109-.06.147 0 .01 0 .027-.005.038-.044.055-.055.11-.066.153a.14.14 0 0 1-.021.066l-.055.07.027.017c-.016.043-.016.082-.016.109v.033l-.038.022.011.054c.016.11 0 .208-.011.311-.017.104-.028.208-.017.322-.043.066-.032.137-.027.186 0 .016.006.038 0 .049l-.054.044.038.065c.027.05.005.126-.017.202-.021.071-.049.158-.021.24-.006.006-.017.011-.022.022q-.017.017-.017.066c0 .06 0 .076-.005.081l-.038.082v.033l.065.05c-.005.048 0 .097 0 .136.006.054.011.076-.005.098l-.049.082.049.054v.017c0 .038 0 .103.038.152 0 .011 0 .017.005.028l-.082.022.055.114s0 .017-.005.027c-.011.033-.022.104.011.159a.27.27 0 0 0 0 .174c0 .011.005.028.01.039-.076.082-.038.19-.021.25-.039.055-.028.12-.022.164l-.104.039.109.109s0 .054.011.082a.1.1 0 0 0 .044.038l-.033.01v.012l.038.098v.01q-.016.092.033.16-.016.015-.016.048l-.044.044.044.06c.032.044.021.104 0 .202-.022.082-.049.19 0 .278l-.06.06.076.055q.001.001-.005.01c-.017.039-.055.104-.011.175 0 0 .011.082 0 .142a.56.56 0 0 0 .021.295l-.016.104v-.011a.14.14 0 0 0 .011.098l-.033.016.022.071c.022.077.027.17.027.262 0 .186 0 .393.17.552l.038.032.049-.016c.125-.038.131-.158.131-.23v-.07c-.049-.17-.027-.393-.011-.584 0-.055.011-.104.011-.148v-.021l-.006-.022a.36.36 0 0 1-.016-.213.5.5 0 0 0-.011-.235c.027-.36.011-.78 0-1.157l-.016-.447v-.011a3.6 3.6 0 0 1-.011-.551c.005-.164.011-.333-.006-.492.039-.18.039-.344.033-.518v-.279c.033-.049.044-.092.022-.141a.8.8 0 0 0 .022-.186c0-.044 0-.087.011-.126v-.043c-.011-.038 0-.082.011-.126.011-.054.027-.125 0-.19.065-.137.082-.301.092-.46v-.054q.015-.049-.027-.098c0-.076.038-.131.082-.207.049-.077.109-.17.12-.29v-.022c.006-.005.016-.01.022-.016.033-.027.076-.066.076-.13v-.034a.7.7 0 0 0 .131-.169c.049-.082.082-.136.175-.17l.049-.01.011-.05c.011-.054.06-.081.131-.13a.5.5 0 0 0 .158-.131c.06.005.098-.011.12-.033.077-.016.131-.06.18-.098.077-.066.104-.076.159-.055l.054.022.033-.033h.006c.027-.005.07-.016.092-.06.022 0 .044-.01.06-.016.044-.016.055-.016.071-.01.017.01.044.02.082.01h.066l.082-.01c.245-.034.458-.06.649.043l.071.038.044-.06s.016.022.027.027c.049.055.136.148.262.131.027.022.06.044.087.06a.2.2 0 0 1 .033.022l.016.027c.039.05.12.077.186.077.147.153.289.36.289.453v.087h.066v.006c.021.109.054.25.142.343-.028.055 0 .126.005.153 0 .011.005.022.005.033l-.021.066.054.054h.011c0 .065.022.12.044.158 0 .011.011.022.016.033l-.011.033c-.076.147.028.23.077.267l.016.017c-.038.027-.038.06-.044.114v.066l.033.043v.011c0 .011.011.028.022.05l-.027.027-.022.076.043.06.033.017c0 .032.011.065.022.087 0 0 0 .01.006.01v.039c-.039.142-.071.322.016.47l-.006.005c-.038.054-.027.114-.021.158 0 .016.005.038 0 .044l-.022.087s.027.011.054.016c0 .011-.005.017-.005.028l-.016.098h.038a.6.6 0 0 0-.011.098c0 .05 0 .088-.022.11v.01l-.011.011a.4.4 0 0 0 .038.246l.017.038a.1.1 0 0 0-.028.071q-.002.014.006.022l-.022.016.016.05a.1.1 0 0 0 .049.054h-.016v.098l-.054.017.027.054s-.027.066-.011.104l-.033.065s.006.038.038.055c-.032.114.049.202.104.25.022.023.033.04.044.05h-.044l.033.11s-.017.016-.022.026l-.071.033.022.099v.021a.11.11 0 0 0 0 .104q.001.002.011.01a.16.16 0 0 0-.06.121l-.011.082.065.01-.016.05c-.011.027-.016.055-.027.076 0 0-.006.006-.006.011l.115.066a.4.4 0 0 0-.033.082c0 .01-.011.027-.011.032h-.104v.11l.017.06c0 .021 0 .043.011.07v.17h-.011l.011.065v.148l-.077.038.099.103a.3.3 0 0 0-.022.099h-.071l.114.142s.017.043.028.065v.011c-.049.044-.055.115-.06.147 0 .017 0 .039-.006.05l.027.038s-.038.038-.043.049c-.011.027-.011.054-.011.082h-.115l.093.093-.087.027.071.06v.229q-.002.067.054.093a.16.16 0 0 0 .137.016v.093l.109-.033a.5.5 0 0 1 .207-.016l.093.016.011-.093c.044-.343.033-.67.027-.988a5.4 5.4 0 0 1 .022-.895c.022-.054 0-.109-.016-.136M219.226 22.113l.022-.011v-.05l-.016-1.533v-.01a8 8 0 0 1-.038-.754 8 8 0 0 0-.055-.895c-.011-.398-.087-.824-.164-1.234l-.049-.278v-.027l-.022-.022c-.06-.06-.081-.136-.103-.23-.022-.076-.038-.152-.088-.223a3 3 0 0 0-.409-.53v-.01c-.044-.05-.087-.077-.12-.099-.022-.016-.044-.027-.066-.043l-.032-.028h-.022l-.027-.016c-.131-.104-.251-.142-.393-.191-.044-.06-.12-.07-.17-.07v-.04l-.07-.01-.344-.05h-.049l-.033.034c-.011.016-.017.021-.088-.006a.6.6 0 0 0-.109-.027h-.038l-.022.016c-.011-.005-.022-.016-.038-.022l-.142-.043-.011.065a.3.3 0 0 0-.163.038h-.432l.028.082c-.093-.022-.164.033-.202.066-.006.005-.017.01-.017.016-.076.011-.114.044-.147.066-.022.016-.027.021-.049.021h-.033l-.022.028c-.032.038-.131.082-.18.104l-.114.049.027.027s-.038.022-.055.038h-.109v.087h-.011l-.06-.027-.044.055a3 3 0 0 1-.245.284 3 3 0 0 0-.306.365l-.027.038.016.039s-.071.043-.082.109c-.043.043-.049.109-.06.147 0 .011 0 .027-.005.038a.3.3 0 0 0-.06.153.2.2 0 0 1-.022.066l-.054.07.021.017c-.016.038-.016.087-.016.11v.032l-.038.022v.054a.8.8 0 0 1-.006.311c-.011.099-.027.208-.016.322-.044.066-.033.137-.027.186 0 .016.005.038 0 .05l-.055.043.038.065c.028.05.006.126-.016.202a.45.45 0 0 0-.022.24c-.005 0-.016.011-.022.022-.011.011-.016.038-.016.066 0 .06-.006.076-.006.081l-.038.082v.033l.066.05c-.011.048 0 .098 0 .136.011.054.011.076 0 .103l-.044.082.044.055v.016c0 .038-.006.104.038.153 0 .01 0 .016.005.027l-.082.022.055.115s0 .016-.005.027c-.006.033-.022.104.011.164-.028.065-.011.13 0 .174 0 .011.005.028.005.039-.076.082-.038.19-.016.25-.039.055-.028.12-.022.164l-.109.039.109.109s-.006.054.011.082a.1.1 0 0 0 .043.038l-.032.01v.012l.038.098v.01q-.017.092.033.16-.017.015-.017.048l-.043.044.043.06c.033.044.017.104 0 .202-.022.082-.043.186 0 .278l-.06.06.077.055q.002.001-.006.01c-.016.034-.054.104-.011.175v-.01a.4.4 0 0 1 0 .147.55.55 0 0 0 .022.295l-.016.103v-.01a.14.14 0 0 0 .011.098l-.033.016.022.071c.021.076.021.17.021.267 0 .186 0 .393.17.552l.038.032.049-.01c.126-.039.131-.164.131-.23v-.071c-.049-.169-.027-.387-.011-.584 0-.049.011-.103.016-.147v-.022l-.01-.022a.35.35 0 0 1-.017-.213.46.46 0 0 0-.011-.229c.028-.36.011-.78 0-1.157l-.016-.447v-.011a3.6 3.6 0 0 1-.011-.552c.005-.163.011-.333-.006-.49a2 2 0 0 0 .033-.514v-.278c.038-.05.049-.093.028-.142a.8.8 0 0 0 .021-.186c0-.043 0-.087.011-.125v-.044c-.011-.038 0-.082.011-.125.011-.055.027-.126 0-.191.066-.131.082-.3.093-.459v-.055a.1.1 0 0 0-.027-.098c0-.076.038-.13.082-.207.049-.082.109-.17.12-.29v-.021c.005-.006.016-.011.021-.017.033-.027.077-.065.077-.13V17.2c.06-.055.093-.115.131-.17.049-.081.082-.136.174-.163l.044-.011.011-.05c.011-.054.06-.081.131-.125a.5.5 0 0 0 .158-.13q.09 0 .12-.034c.077-.016.131-.06.181-.098.076-.065.103-.076.158-.049l.054.022.033-.033h.006c.021-.005.065-.016.092-.06.022 0 .044-.01.06-.016.044-.017.055-.017.071-.006.017.011.044.022.082.011h.066l.082-.01c.245-.033.458-.06.649.043l.071.038.038-.06s.017.022.028.027c.049.055.136.148.261.131.028.022.061.044.082.06.011.006.028.017.039.022l.016.028c.038.049.12.076.186.076.141.153.289.36.289.448v.087h.065c.022.12.055.256.142.35-.022.054 0 .125.006.152q.001.016.011.033l-.022.065.054.055h.011c0 .065.022.12.044.158 0 .011.011.022.016.033l-.011.033c-.076.147.028.229.077.267l.016.016c-.038.028-.038.06-.044.115v.066l.033.043v.011c0 .011.011.033.022.05l-.027.026-.022.077.044.06.032.016c0 .033.011.066.022.088q-.001.001.006.01v.039c-.039.142-.071.322.016.47-.044.054-.033.12-.027.163 0 .016.005.038 0 .049l-.022.087s.027.011.054.017c0 .01-.005.016-.01.027l-.017.104h.033c-.006.032-.006.065-.011.092 0 .05 0 .082-.022.115v.011l-.011.01c-.027.094.011.181.038.252 0 .01.011.027.017.038a.1.1 0 0 0-.027.071q-.001.007.005.022l-.016.016.016.05a.1.1 0 0 0 .049.054h-.016v.093l-.055.016.027.055s-.027.065-.01.104l-.039.065s.006.038.039.055c-.033.114.049.201.103.25.022.022.033.039.044.05h-.044l.033.109s-.016.016-.022.027l-.071.033.022.093v.021a.11.11 0 0 0 0 .104l.011.011a.2.2 0 0 0-.06.12l-.011.082.065.011-.016.05c-.005.032-.016.054-.027.076q.001.001-.006.01l.115.066a.4.4 0 0 0-.033.082c0 .01-.011.027-.011.033h-.103v.114s.011.033.016.06c0 .022 0 .044.011.071v.17h-.011l.011.07v.148l-.077.038.093.104v.005a.3.3 0 0 0-.022.098h-.071l.115.142s.016.044.022.066v.01c-.049.044-.055.115-.06.148 0 .016 0 .038-.006.044l.028.038a.13.13 0 0 0-.044.054c-.011.028-.011.055-.011.082h-.114l.092.093-.087.027.071.06v.23c0 .038.022.076.055.092h.005a.17.17 0 0 0 .136.017v.092l.11-.032a.45.45 0 0 1 .202-.017l.092.017.011-.093a6 6 0 0 0 .028-.988 5.4 5.4 0 0 1 .021-.895c.028-.055 0-.11-.016-.136"/><path fill="#fff" d="M199.529 8.239h21.03v21.034h-21.03zm-1.238 22.274h23.517V7h-23.517zM368.461 20.334c-.088 0-.11-.066-.088-.153l1.998-5.349c.022-.087.065-.196.131-.196.065 0 .087.109.109.196l1.954 5.37c.022.066 0 .132-.109.132h-4.001zm4.415 1.086c.109 0 .175.043.218.153l1.741 4.606c.109.262-.043.458-.196.502-.218.022-.306.066-.306.197 0 .152.262.152.655.174 1.741.044 3.324.044 4.11.044s.999-.044.999-.218c0-.153-.109-.175-.284-.175-.262 0-.59-.022-.912-.087-.458-.131-1.086-.432-1.915-2.38-1.392-3.291-4.869-12.166-5.393-13.36-.218-.503-.349-.694-.545-.694-.219 0-.35.24-.612.868l-5.458 13.655c-.436 1.087-.846 1.829-1.85 1.96-.174.021-.48.043-.677.043-.174 0-.262.044-.262.175 0 .175.131.218.415.218 1.13 0 2.325-.065 2.565-.065.677 0 1.611.065 2.304.065.24 0 .371-.043.371-.218 0-.131-.066-.175-.328-.175h-.327c-.671 0-.868-.283-.868-.676 0-.262.109-.78.328-1.327l1.173-3.11c.044-.132.087-.175.196-.175h4.858"/><path fill="#fff" d="m360.296 17.064-.682-.458c-2.014-1.381-2.576-2.15-2.576-3.16 0-1.316 1.091-2.26 2.892-2.26 1.578 0 2.282.66 2.647 1.075.508.574.634 1.25.634 1.447 0 .262.07.393.245.393.197 0 .268-.175.268-.66 0-1.715.098-2.348.098-2.637 0-.153-.12-.218-.339-.262-.633-.153-1.653-.371-3.231-.371-3.373 0-5.61 1.736-5.61 4.148 0 1.78.922 3.313 3.596 5.201l1.119.792c2.014 1.424 2.38 2.434 2.38 3.515 0 1.162-1.07 2.5-3.253 2.5-1.506 0-2.942-.596-3.471-2.217-.12-.37-.218-.835-.218-1.119 0-.174-.022-.37-.241-.37-.125 0-.202.103-.245.267a2 2 0 0 0-.06.35c-.028.212-.104.725-.126.867-.153.895-.415 1.354-.982 1.615-.568.262-1.485.262-2.052.262-2.227 0-3.848-.327-3.892-1.833-.022-.634 0-2.642 0-3.384V19.04c0-.131.022-.218.131-.218.524 0 3.635.021 4.05.065.808.087 1.113.415 1.222.852.066.283.066.567.088.786 0 .109.043.196.196.196.197 0 .197-.24.197-.415 0-.153.043-1.026.087-1.462.066-1.114.175-1.463.175-1.594s-.066-.175-.153-.175c-.109 0-.197.11-.349.284-.197.218-.524.284-1.048.327-.502.044-3.963.044-4.443.044-.131 0-.153-.087-.153-.24v-5.529c0-.153.044-.218.153-.218.437 0 3.679.043 4.05.087 1.091.131 1.31.393 1.462.786.11.262.131.633.131.786 0 .197.044.306.197.306s.196-.131.218-.24c.044-.262.088-1.223.109-1.441.066-1.005.175-1.266.175-1.42 0-.108-.022-.196-.131-.196s-.24.066-.349.088c-.175.043-.524.087-.939.13-.415.022-5.709.022-6.408.022-.305 0-.807-.021-1.375-.043-.447 0-.955-.017-1.452-.022-.022-.11-.065-.159-.158-.159-.169 0-.688.219-2.079.219h-7.352c-.715 0-1.539-.044-2.161-.11-.541-.037-.748-.18-.923-.18-.12 0-.191.044-.251.279h-.213c-.289 0-.578.01-.851.022-.47.016-.868.038-1.119.043-.442-.005-1.31-.065-2.249-.065-.289 0-.502.022-.502.196 0 .126.077.197.306.197.267 0 .731 0 1.02.13.415.197.595.541.644 1.556l.066 8.793c-.327-.344-9.857-10.949-10.135-11.161-.36-.273-.737-.022-.737.322l-.186 5.687-.262 7.515c-.021 1.878-.387 2.249-.889 2.55-.229.135-.633.201-.912.217-.087 0-.982.044-1.364-.043-.579-.142-.923-.53-.988-1.114-.087-.933-.087-2.641-.087-4.743v-3.81c0-3.29 0-3.896.043-4.59.044-.758.219-1.123.797-1.233a3.5 3.5 0 0 1 .644-.065c.218 0 .344-.044.344-.219 0-.13-.169-.174-.448-.174-.818 0-2.09.065-2.63.065-.628 0-1.981-.065-2.8-.065-.344 0-.519.043-.519.174 0 .175.131.219.35.219.256 0 .54.022.775.087.469.11.687.475.731 1.212.044.693.044 1.299.044 4.59v3.81c0 2.1 0 3.809-.104 4.72-.065.628-.196.994-.628 1.087a3.5 3.5 0 0 1-.775.081c-.256 0-.343.066-.343.175 0 .153.152.218.431.218.862 0 2.221-.065 2.718-.065.578 0 3.826.065 3.929.065 1.119 0 2.249-.032 2.44-.032.409 0 1.266.065 2.663.065.301 0 .497-.043.497-.218 0-.131-.131-.175-.366-.175-.343 0-.753-.022-1.118-.153-.432-.152-.71-.71-.754-2.396l-.081-4.246-.071-4.23c.349.41 8.956 9.825 10.173 11.118.213.24.442.475.655.475.175 0 .251-.191.251-.672l.213-13.628c0-.169.011-.327.016-.47.066-.823.251-1.123.628-1.304.202-.092.486-.114.731-.125-.016.622 0 1.888 0 2.161 0 .24.044.344.197.344.131 0 .196-.087.24-.262s.153-.437.366-.764c.322-.475.846-.584 2.101-.633l2.167-.087v8.918c0 2.003 0 3.722-.11 4.633-.065.633-.322 1.108-.753 1.196-.196.043-.889.087-1.211.087-.262 0-.344.066-.344.175 0 .152.153.218.431.218.862 0 2.789-.066 3.286-.066.605 0 1.975.066 3.4.066.24 0 .415-.066.415-.218 0-.11-.11-.175-.35-.175a9 9 0 0 1-1.102-.087c-.644-.088-.781-.568-.846-1.174-.109-.933-.109-2.652-.109-4.655v-8.918l2.134.065c1.926.044 2.587.655 2.625 1.217l.022.24c.022.328.065.437.24.437.131 0 .169-.131.191-.35 0-.529-.005-1.866-.005-2.417.163.01.316.027.409.049.72.153.895.502.939 1.244.043.699.043 1.31.043 4.634v3.842c0 2.009 0 3.733-.109 4.65-.087.634-.196 1.114-.633 1.201a3.6 3.6 0 0 1-.786.087c-.262 0-.349.066-.349.175 0 .153.153.218.436.218.437 0 1.005-.021 1.507-.043.524 0 1.004-.022 1.244-.022.655 0 1.332.022 2.271.065.938.022 3.405.066 5.048.066.83 0 1.026 0 1.179-.568.071.088.175.153.349.219 1.043.415 2.14.573 3.548.573 1.288 0 2.647-.197 3.859-.9 1.746-1.032 2.281-2.544 2.281-3.821 0-2.085-1.042-3.602-3.984-5.6M280.251 27.483c1.354 0 2.964-.152 3.81-.502.36-.153.442-.262.551-.627.213-.737.464-2.631.464-2.893 0-.175-.044-.327-.191-.327-.169 0-.213.087-.273.436a3.6 3.6 0 0 1-.72 1.436c-.846.998-1.987 1.217-3.87 1.217-2.838 0-6.664-2.566-6.664-7.74 0-2.106.404-4.175 1.948-5.632.934-.868 2.14-1.348 3.979-1.348 1.949 0 3.597.59 4.295 1.348.53.567.803 1.326.825 2.003 0 .306.043.48.212.48.192 0 .235-.175.257-.502.044-.437.022-1.632.066-2.347.043-.758.103-1.02.103-1.195 0-.131-.087-.24-.316-.262-.633-.066-1.31-.262-2.118-.371a20 20 0 0 0-3.067-.219c-3.155 0-5.163.868-6.686 2.304-2.031 1.91-2.478 4.48-2.478 5.954 0 2.107.551 4.541 2.625 6.413 1.927 1.72 4.361 2.369 7.259 2.369M233.439 11.847c0-.24.044-.328.197-.377.218-.044.42-.044.725-.044 1.889 0 2.746 1.932 2.746 3.4 0 1.081-.333 1.873-.901 2.331-.376.328-.857.42-1.583.42-.502 0-.835-.022-1.031-.065-.087-.022-.153-.066-.153-.246zm-2.636 8.912c0 2.02 0 3.76-.109 4.678-.093.638-.197 1.118-.633 1.206a3.6 3.6 0 0 1-.797.087c-.262 0-.35.066-.35.175 0 .153.153.218.437.218.879 0 2.26-.065 2.762-.065.666 0 2.658.13 3.187.13 4.044 0 5.867-2.434 5.867-4.786 0-2.57-2.199-4.132-3.995-4.748 1.206-.96 2.238-2.036 2.238-3.837 0-1.163-.699-3.291-4.683-3.291-.742 0-1.599.065-2.674.065-.437 0-1.818-.065-2.986-.065-.327 0-.485.043-.485.196s.131.197.376.197c.306 0 .677.022.857.065.72.153.901.502.944 1.25.044.704.044 1.315.044 4.656v3.869m7.668 2.636c0 2.287-1.675 2.811-2.658 2.811-.507 0-1.01-.022-1.604-.267-.704-.29-.765-.66-.765-2.112v-5.202c0-.109.044-.153.126-.153.333 0 .551 0 .944.022.857.044 1.359.197 1.823.53 1.67 1.162 2.134 3.007 2.134 4.366M290.61 20.334c-.087 0-.109-.066-.087-.153l1.997-5.349c.022-.087.066-.196.131-.196.066 0 .087.109.109.196l1.96 5.37c.022.066 0 .132-.109.132zm4.415 1.086c.109 0 .175.043.219.153l1.741 4.606c.109.262-.044.458-.197.502-.218.022-.305.066-.305.197 0 .152.262.152.655.174 1.741.044 3.323.044 4.109.044s.999-.044.999-.218c0-.153-.109-.175-.284-.175-.262 0-.589-.022-.911-.087-.459-.131-1.086-.432-1.916-2.38-1.392-3.291-4.868-12.166-5.392-13.36-.219-.503-.35-.694-.546-.694-.218 0-.349.24-.611.868l-5.458 13.655c-.437 1.087-.846 1.829-1.561 1.96a2 2 0 0 1-.442.043c-.175 0-.262.044-.262.175 0 .175.131.218.415.218 1.129 0 1.812-.065 2.046-.065.677 0 1.61.065 2.304.065.24 0 .371-.043.371-.218 0-.131-.066-.175-.328-.175h-.327c-.672 0-.868-.283-.868-.676 0-.262.109-.78.327-1.327l1.174-3.11c.043-.132.087-.175.196-.175h4.852"/><path fill="#fff" d="M249.114 20.35h-4.001c-.087 0-.109-.066-.087-.153l1.998-5.349c.021-.087.065-.196.131-.196.065 0 .087.11.109.196l1.959 5.371c.022.065 0 .13-.109.13m21.171-9.83h-.562c-.661.017-2.773-.005-3.712-.005-.289 0-.502.022-.502.196 0 .131.077.197.306.197.267 0 .617 0 .906.13.415.197.595.656.644 1.67l.066 8.848c-.328-.344-9.857-11.003-10.136-11.221-.36-.273-.737-.022-.737.322l-.185 5.747-.262 7.515c-.022 1.845-.197 2.691-.868 2.691s-.95-.813-1.61-2.363c-1.392-3.291-4.868-12.166-5.392-13.361-.219-.502-.35-.693-.546-.693-.218 0-.349.24-.606.868l-5.458 13.65c-.436 1.086-.846 1.828-1.85 1.96-.175.021-.48.043-.677.043-.174 0-.262.044-.262.175 0 .174.131.218.415.218 1.13 0 2.325-.066 2.565-.066.672 0 1.61.066 2.303.066.241 0 .372-.044.372-.218 0-.131-.066-.175-.328-.175h-.327c-.672 0-.868-.284-.868-.677 0-.262.109-.78.327-1.326l1.174-3.111c.043-.131.087-.175.196-.175h4.847c.109 0 .174.044.218.153l1.741 4.552a.403.403 0 0 1-.229.535c-.218.021-.306.065-.306.196 0 .153.262.153.655.175.972.022 1.9.022 2.675.022h.142c.463 0 .927-.006 1.326-.011.202 0 .365 0 .496-.011.312-.006.541-.011.617-.011.41 0 1.266.065 2.658.065.3 0 .497-.043.497-.218 0-.13-.131-.175-.366-.175-.344 0-.753-.021-1.119-.152-.431-.153-.709-.71-.753-2.396l-.082-4.247-.071-4.23c.35.41 8.957 9.765 10.174 11.058.213.24.442.475.655.475.174 0 .251-.191.251-.671l.076-4.989.148-8.847c.049-1.015.229-1.479.644-1.675.289-.131.638-.131.906-.131.229 0 .305-.066.305-.197 0-.175-.213-.197-.502-.197"/></g><defs><linearGradient id="b" x1="27.25" x2="35.244" y1="17.707" y2="23.317" gradientUnits="userSpaceOnUse"><stop offset=".12" stop-color="#d20000"/><stop offset=".87" stop-color="#770606"/></linearGradient><linearGradient id="c" x1="16.591" x2="50.25" y1="41.549" y2="31.171" gradientUnits="userSpaceOnUse"><stop offset=".365" stop-color="#d20000"/><stop offset="1" stop-color="#640000"/></linearGradient><linearGradient id="d" x1="34.263" x2="52.775" y1="5.506" y2="31.171" gradientUnits="userSpaceOnUse"><stop offset=".37" stop-color="#c20000"/><stop offset="1" stop-color="#690000"/></linearGradient><clipPath id="a"><path fill="#fff" d="M0 0h390.29v50H0z"/></clipPath></defs></svg>