<svg xmlns="http://www.w3.org/2000/svg" width="429" height="50" fill="none" viewBox="0 0 429 50"><g clip-path="url(#a)"><path fill="#d51f26" d="M211.792 17.33h-8.691v15.331h2.044v-6.13h6.647a4.6 4.6 0 0 0 4.596-4.596 4.6 4.6 0 0 0-4.596-4.596m0 7.156h-6.647v-5.113h6.647a2.55 2.55 0 0 1 2.553 2.553 2.55 2.55 0 0 1-2.553 2.552M175.001 17.33a7.664 7.664 0 0 0-7.666 7.666 7.664 7.664 0 0 0 7.666 7.665 7.663 7.663 0 0 0 7.665-7.665 7.663 7.663 0 0 0-7.665-7.665m0 13.288a5.625 5.625 0 0 1-5.622-5.622 5.625 5.625 0 0 1 5.622-5.622 5.625 5.625 0 0 1 5.621 5.622 5.625 5.625 0 0 1-5.621 5.622M164.266 21.935a4.594 4.594 0 0 0-4.596-4.596h-8.691v15.33h2.043v-6.13h5.056l3.783 6.13h2.405l-3.825-6.204a4.59 4.59 0 0 0 3.825-4.53m-4.596 2.552h-6.648v-5.113h6.648a2.55 2.55 0 0 1 2.552 2.552 2.55 2.55 0 0 1-2.552 2.553M197.996 25.513a5.113 5.113 0 0 1-10.225 0v-8.174h-2.044v8.174a7.158 7.158 0 0 0 14.313 0v-8.174h-2.044zM141.787 24.487v2.044h3.874a5.62 5.62 0 0 1-5.408 4.087 5.625 5.625 0 0 1-5.622-5.622 5.625 5.625 0 0 1 5.622-5.622c1.912 0 3.603.96 4.62 2.421l1.683-1.165c-1.387-1.995-3.685-3.308-6.303-3.308a7.664 7.664 0 0 0-7.666 7.666 7.664 7.664 0 0 0 7.666 7.665 7.664 7.664 0 0 0 7.665-7.665c0-.173-.016-.345-.025-.51h-6.106zM83.411 17.33h-2.946v15.331h14.74v-2.946H83.41zM58.643 32.662h3.405l5.442-9.43 5.44 9.43h3.407l-8.847-15.33zm53.657-15.33H95.205v2.946h7.074V32.66h2.946V20.277h7.075zm8.256 0-8.847 15.33h3.406l5.441-9.43 5.441 9.43h3.406zM10 48s10.644-15.454 26.09-25.762l.443-20.23z"/><path fill="#d51f26" d="M10 48s15.61-15.33 44.227-15.33l-17.686-9.636C21.088 33.342 10.008 48 10.008 48M36.935 22.23 54.22 32.661 36.533 2z"/><path fill="#58595b" d="M382.586 37.657c.022.917-.458 2.205-1.61 2.205-1.212 0-1.714-1.201-1.714-2.172 0-1.087.562-2.195 1.725-2.195 1.162 0 1.621 1.108 1.599 2.162m-4.399 5.338h1.075v-3.199h.022c.333.535.917.939 1.943.939 1.757 0 2.5-1.556 2.5-3.155s-.824-2.947-2.511-2.947c-1.026 0-1.692.524-1.976.96h-.021v-.824h-1.027v8.226zm-1.692-8.225h-1.075v2.696c0 1.419-.551 2.401-1.768 2.401-.939-.054-1.234-.72-1.234-2.08V34.77h-1.075v3.46c0 1.566.677 2.5 2.183 2.5.813 0 1.588-.399 1.91-1.065h.022v.928h1.043v-5.829zm-11.243 2.914c0-1.108.677-2.183 1.828-2.183s1.818 1.075 1.818 2.183c0 1.037-.562 2.183-1.818 2.183-1.255 0-1.828-1.14-1.828-2.183m-1.141 0c0 1.67 1.212 3.05 2.969 3.05 1.758 0 2.958-1.38 2.958-3.05 0-1.768-1.189-3.05-2.958-3.05-1.768 0-2.969 1.276-2.969 3.05m-3.919 2.915h1.076v-2.653c0-1.463.627-2.374 1.588-2.374.185 0 .398.022.595.103v-.96c-.229-.044-.388-.082-.71-.082-.616 0-1.233.437-1.517 1.042h-.022v-.9h-1.004v5.829zm-1.861-7.712c-.66-.23-1.179-.399-2.341-.399-2.434 0-4.214 1.632-4.214 4.088s1.681 4.159 4.203 4.159c1.244 0 1.998-.207 2.434-.355v-4.148h-2.822v.939h1.682v2.423c-.284.055-.492.137-1.278.137-1.659 0-3.001-1.245-3.001-3.117s1.222-3.116 3.061-3.116c1.026 0 1.632.18 2.194.546l.093-1.152zm-15.374 4.797c0-1.108.676-2.183 1.828-2.183s1.817 1.075 1.817 2.183c0 1.037-.562 2.183-1.817 2.183s-1.828-1.14-1.828-2.183m-1.141 0c0 1.67 1.212 3.05 2.969 3.05s2.958-1.38 2.958-3.05c0-1.768-1.19-3.05-2.958-3.05s-2.969 1.276-2.969 3.05m-2.511 2.915h1.075v-8.57h-1.075zm-6.227-2.915c0-1.108.677-2.183 1.828-2.183s1.818 1.075 1.818 2.183c0 1.037-.562 2.183-1.818 2.183-1.255 0-1.828-1.14-1.828-2.183m-1.141 0c0 1.67 1.212 3.05 2.969 3.05 1.758 0 2.958-1.38 2.958-3.05 0-1.768-1.189-3.05-2.958-3.05-1.768 0-2.969 1.276-2.969 3.05m-2.363.65c0 .867-.562 1.533-1.621 1.533-.491 0-1.086-.333-1.086-.95 0-1.026 1.441-1.118 2.019-1.118.229 0 .459.021.688.021zm-3.127-2.238c.436-.366 1.086-.595 1.692-.595 1.075 0 1.44.513 1.44 1.517-.42-.022-.72-.022-1.14-.022-1.108 0-2.707.459-2.707 1.921 0 1.267.878 1.818 2.134 1.818.982 0 1.555-.535 1.806-.89h.022v.754h1.004c-.022-.17-.043-.48-.043-1.141v-2.413c0-1.588-.677-2.412-2.342-2.412-.742 0-1.381.23-1.921.551zm-2.778 1.566c.021.917-.459 2.205-1.611 2.205-1.211 0-1.713-1.2-1.713-2.172 0-1.086.562-2.194 1.724-2.194 1.163 0 1.621 1.108 1.6 2.161m-4.4 5.338h1.076v-3.198h.022c.332.535.911.938 1.943.938 1.757 0 2.499-1.555 2.499-3.154 0-1.6-.824-2.947-2.516-2.947-1.026 0-1.692.523-1.976.96h-.021v-.824h-1.027zm-6.844-2.401h1.076v-2.697c0-1.419.551-2.401 1.768-2.401.939.054 1.233.72 1.233 2.08v3.017h1.076v-3.46c0-1.566-.672-2.5-2.184-2.5-.813 0-1.588.399-1.91 1.065h-.022v-.928h-1.037v5.829zm-2.75-2.26c0 .868-.563 1.534-1.621 1.534-.492 0-1.087-.333-1.087-.95 0-1.026 1.441-1.119 2.02-1.119.229 0 .458.022.688.022zm-3.128-2.238c.437-.365 1.086-.595 1.692-.595 1.075 0 1.441.513 1.441 1.518-.42-.022-.72-.022-1.141-.022-1.108 0-2.707.458-2.707 1.92 0 1.267.879 1.818 2.134 1.818.983 0 1.556-.535 1.807-.89h.022v.754h1.004c-.022-.17-.044-.48-.044-1.14V37.05c0-1.588-.677-2.413-2.341-2.413-.742 0-1.381.23-1.921.552zm-2.025-3.324a5.3 5.3 0 0 0-1.702-.283c-1.441 0-2.56.753-2.56 2.172 0 2.478 3.427 1.987 3.427 3.771 0 .939-.911 1.305-1.566 1.305-.584 0-1.266-.23-1.654-.388l-.114 1.064c.524.17 1.075.333 1.631.333 1.6 0 2.915-.671 2.915-2.374 0-2.625-3.428-2.27-3.428-3.804 0-.835.754-1.064 1.392-1.064.595 0 .912.103 1.496.333l.158-1.054zm-9.676 5.562c0 .868-.563 1.534-1.621 1.534-.492 0-1.086-.333-1.086-.95 0-1.026 1.44-1.119 2.019-1.119.229 0 .458.022.688.022zm-3.128-2.238c.437-.365 1.086-.595 1.692-.595 1.075 0 1.441.513 1.441 1.518-.42-.022-.72-.022-1.141-.022-1.108 0-2.707.458-2.707 1.92 0 1.267.879 1.818 2.134 1.818.983 0 1.556-.535 1.807-.89h.022v.754h1.004c-.022-.17-.044-.48-.044-1.14V37.05c0-1.588-.677-2.413-2.341-2.413-.742 0-1.381.23-1.921.552zm-5.13 4.317c.491.262 1.053.322 1.599.322 1.037 0 2.036-.573 2.036-1.817 0-1.861-2.527-1.517-2.527-2.707 0-.48.48-.71 1.026-.71.251 0 .89.148 1.13.295l.092-.939c-.42-.125-.835-.229-1.337-.229-1.151 0-2.057.584-2.057 1.796 0 1.632 2.527 1.544 2.527 2.603 0 .628-.606.835-1.097.835-.311 0-.917-.136-1.338-.41zm-4.972-3.29c.082-.754.513-1.622 1.566-1.622.928 0 1.452.732 1.452 1.621zm3.711 2.16c-.262.219-1.086.585-1.796.585a1.91 1.91 0 0 1-1.921-1.943h4.159c0-1.872-.627-3.291-2.57-3.291-1.643 0-2.729 1.222-2.729 2.947 0 1.894.949 3.154 3.018 3.154.96 0 1.43-.229 1.839-.376zm-5.676-4.513h-1.545v-1.692l-1.075.344v1.348h-1.315v.868h1.315v3.405c0 1.168.688 1.692 1.796 1.692.344 0 .677-.092.911-.158v-.911a1.3 1.3 0 0 1-.731.207c-.491 0-.901-.366-.901-1.042v-3.188h1.545v-.873m-9.939 5.829h1.075v-2.696c0-1.42.546-2.402 1.769-2.402.939.055 1.233.72 1.233 2.08v3.018h1.075v-3.46c0-1.567-.671-2.5-2.183-2.5-.813 0-1.588.398-1.91 1.064h-.022v-.928h-1.037v5.83zm-2.936 0h1.141V32.63h-1.141z"/><path fill="#e8b909" d="m257.459 13.637-.005-.006c-.142-.087-.36-.136-.502-.07-.928-.088-1.818-.077-2.756-.072h-.066c-.469.006-.955.011-1.441 0l-3.935-.082a44 44 0 0 0-2.925.022c-.732.006-1.447.028-2.172.044-.759.022-2.566.027-3.641.027h-.917c-.131.006-.284.186-.284.328 0 .082.044.169.181.185.103.011.753.011 1.937.011h1.212c.322-.005.475 0 .54-.005h.006c.889-.093 1.784-.088 2.652-.082h.066c.562 0 1.14.005 1.719-.016.12.027.251 0 .371-.022h.016a.6.6 0 0 1 .164-.028c.131.039.284.039.442.033.153 0 .311-.005.453.027h.027c.126-.049.241-.027.361 0h.021a1 1 0 0 0 .164.022c1.124-.032 2.369.011 3.919.131l.731.082h.011c.65-.065 1.326-.016 1.981.033h.017c.491.038.955.07 1.413.06h.028l.245-.202.011-.01a.346.346 0 0 0-.054-.421"/><path fill="#007638" d="m250.948 21.998.022-.01v-.05l-.017-1.534v-.01c-.027-.23-.032-.486-.038-.754a7 7 0 0 0-.054-.895c-.006-.398-.088-.824-.164-1.233l-.049-.279v-.027l-.022-.022c-.06-.06-.082-.136-.104-.229a.6.6 0 0 0-.087-.224 3.2 3.2 0 0 0-.409-.53v-.01c-.044-.05-.088-.076-.12-.098-.022-.017-.044-.027-.066-.044l-.033-.027h-.022l-.027-.017c-.131-.103-.251-.141-.393-.19-.038-.06-.12-.066-.169-.072v-.038l-.071-.01-.338-.05h-.049l-.033.033c-.011.016-.017.022-.087-.006a1 1 0 0 0-.11-.027h-.038l-.016.017c-.011-.006-.022-.017-.038-.022l-.142-.044-.011.066a.4.4 0 0 0-.164.032h-.431l.022.082c-.093-.022-.164.038-.202.071-.006 0-.017.011-.017.017-.076.01-.114.043-.147.065-.022.016-.027.022-.049.022h-.033l-.022.027c-.032.038-.131.082-.18.104l-.114.049.027.027-.055.033h-.109v.087h-.011l-.065-.027-.044.055a2.3 2.3 0 0 1-.251.283 3 3 0 0 0-.306.366l-.027.038.016.039s-.071.043-.081.109c-.044.043-.055.109-.06.147 0 .01 0 .027-.006.038-.044.055-.054.11-.065.153a.2.2 0 0 1-.022.066l-.055.07.027.017c-.016.043-.016.082-.016.109v.033l-.038.022.011.054c.016.11 0 .208-.011.311a1.3 1.3 0 0 0-.016.322c-.044.066-.033.137-.028.186v.049l-.054.044.038.065c.027.05.005.126-.017.202-.021.071-.049.158-.021.24l-.022.022q-.017.017-.017.066c0 .06 0 .076-.005.081l-.038.082v.033l.065.05c-.005.048 0 .097 0 .136.011.054.011.076-.005.098l-.044.082.044.054v.017c0 .038-.006.103.038.152 0 .011 0 .017.005.028l-.081.022.054.114s0 .017-.005.027c-.011.033-.022.104.011.159a.26.26 0 0 0 0 .174c0 .011.005.028.011.039-.077.082-.039.19-.017.25-.038.055-.027.12-.022.164l-.103.039.109.109s-.006.054.011.082a.1.1 0 0 0 .043.038l-.032.01v.012l.038.098v.01q-.016.092.033.16-.017.015-.017.048l-.043.044.043.06c.033.044.022.104 0 .202-.022.082-.043.19 0 .278l-.06.06.077.055v.01c-.022.039-.055.104-.011.175 0 0 .011.082 0 .142a.55.55 0 0 0 .022.295l-.017.104v-.011a.14.14 0 0 0 .011.098l-.033.016.022.071c.022.077.027.17.027.262 0 .186 0 .393.17.552l.038.032.049-.016c.125-.038.131-.158.136-.23v-.07c-.049-.17-.027-.393-.011-.584q.01-.082.011-.148v-.021l-.005-.022c-.033-.071-.027-.137-.016-.213a.6.6 0 0 0-.006-.235c.027-.36.011-.78 0-1.157l-.016-.447v-.011a3.6 3.6 0 0 1-.011-.551c0-.164.011-.333-.006-.492.039-.18.039-.344.033-.518v-.278c.038-.05.049-.093.027-.142a.7.7 0 0 0 .022-.186c0-.044 0-.087.011-.126v-.043c-.011-.038 0-.082.011-.126.011-.054.027-.125 0-.19.066-.137.082-.301.093-.46v-.054q.015-.049-.027-.098c0-.076.038-.131.081-.207.05-.077.11-.17.12-.29v-.022l.017-.016c.033-.027.076-.065.076-.13q.001-.018-.005-.034a.7.7 0 0 0 .131-.169c.049-.082.082-.136.18-.17l.049-.01.011-.05c.016-.054.06-.081.131-.13a.5.5 0 0 0 .158-.131c.06.005.098-.011.12-.033.077-.016.131-.06.18-.098.077-.066.104-.076.159-.055l.054.022.033-.033h.005a.14.14 0 0 0 .093-.06c.022 0 .044-.01.066-.016.043-.016.054-.016.071-.01.016.01.043.021.082.01h.065l.082-.01c.246-.034.458-.06.649.043l.066.038.044-.06s.016.022.027.027c.049.055.136.148.262.131.027.022.06.044.087.06a.2.2 0 0 1 .033.022l.016.027c.038.05.12.077.186.077.147.153.289.36.289.453v.087h.066v.006c.021.109.054.25.142.343-.022.055 0 .126.005.153 0 .011.005.022.005.033l-.021.066.054.054h.011c0 .066.022.12.044.158l.016.033-.011.033c-.076.147.027.23.077.267l.016.017c-.038.027-.038.06-.044.114v.066l.033.043v.011c0 .011.011.028.022.05l-.027.027-.022.076.043.06.033.017c0 .032.011.065.022.087v.049c-.033.142-.071.322.016.47l-.005.005a.19.19 0 0 0-.022.158c0 .016.006.038 0 .044l-.022.087s.028.011.055.016c0 .011-.006.017-.011.028l-.016.098h.032c0 .033-.005.066-.005.098 0 .05 0 .088-.022.11v.01l-.011.011c-.027.093.011.18.038.246 0 .016.011.027.017.038a.1.1 0 0 0-.028.071v.022l-.016.016.016.05a.1.1 0 0 0 .05.054h-.017v.098l-.054.017.027.054s-.027.066-.011.104l-.038.065s.005.038.038.055c-.033.114.049.202.104.25.021.023.032.04.043.05h-.043l.032.11s-.016.016-.021.026l-.071.033.021.099v.021a.12.12 0 0 0 0 .104l.011.01a.17.17 0 0 0-.06.121v.082l.06.01-.016.05c-.011.027-.016.055-.027.076q.001.002-.006.011l.115.066a.4.4 0 0 0-.033.082c0 .01-.011.027-.011.032h-.104v.11l.017.06q.001.03.011.07v.17h-.011l.011.065v.148l-.077.038.093.103a.3.3 0 0 0-.022.104h-.071l.115.142s.016.044.027.066v.01c-.049.044-.054.115-.06.148 0 .016 0 .038-.011.049l.028.038s-.039.038-.044.05c-.011.026-.011.054-.011.081h-.109l.093.093-.088.027.071.06v.23a.1.1 0 0 0 .055.092c.044.033.098.027.136.017v.092l.109-.032a.5.5 0 0 1 .208-.017l.093.017.011-.093c.043-.344.032-.671.027-.988a5.3 5.3 0 0 1 .022-.895c.027-.055 0-.11-.017-.137"/><path fill="#0061af" d="m244.421 21.998.022-.01v-.05l-.017-1.534v-.01c-.027-.23-.032-.486-.038-.754a7 7 0 0 0-.054-.895c-.006-.398-.088-.824-.164-1.233l-.049-.279v-.027l-.022-.022c-.06-.06-.082-.136-.104-.229-.022-.076-.038-.153-.087-.224a3.3 3.3 0 0 0-.409-.53v-.01c-.044-.05-.088-.076-.121-.098-.021-.017-.043-.027-.065-.044l-.033-.027h-.022l-.027-.017c-.131-.103-.251-.141-.393-.19-.038-.06-.12-.066-.169-.072v-.038l-.076-.01-.339-.05h-.049l-.033.033c-.011.016-.016.022-.087-.006-.033-.01-.066-.021-.109-.027h-.038l-.022.017c-.011-.006-.022-.017-.038-.022l-.142-.044-.011.066q-.099 0-.164.032h-.437l.028.082c-.093-.022-.164.038-.202.071-.006 0-.017.011-.022.017-.077.01-.115.043-.147.065-.022.016-.028.022-.05.022h-.032l-.022.027a.6.6 0 0 1-.186.104l-.114.049.027.027-.055.033h-.109v.087h-.011l-.06-.027-.043.055c-.066.092-.159.185-.246.283a3 3 0 0 0-.306.366l-.027.038.016.039s-.071.043-.081.109c-.044.043-.055.109-.06.147 0 .01 0 .027-.006.038-.044.055-.054.11-.065.153a.2.2 0 0 1-.022.066l-.055.07.027.017c-.016.043-.016.082-.016.109v.033l-.038.022.011.054c.016.11 0 .208-.011.311-.016.104-.027.208-.016.322-.044.066-.033.137-.028.186 0 .016.006.038 0 .049l-.054.044.038.065c.027.05.005.126-.017.202-.021.071-.049.158-.021.24-.006.006-.017.011-.022.022q-.017.017-.017.066c0 .06 0 .076-.005.081l-.038.082v.033l.065.05c-.005.048 0 .097 0 .136.006.054.011.076-.005.098l-.049.082.049.054v.017c0 .038 0 .103.038.152 0 .011 0 .017.005.028l-.081.022.054.114s0 .017-.005.027c-.011.033-.022.104.011.159a.26.26 0 0 0 0 .174c0 .011.005.028.011.039-.077.082-.039.19-.022.25-.038.055-.028.12-.022.164l-.104.039.109.109s0 .054.011.082a.1.1 0 0 0 .044.038l-.033.01v.012l.038.098v.01q-.017.092.033.16-.016.015-.016.048l-.044.044.044.06c.033.044.022.104 0 .202-.022.082-.049.19 0 .278l-.06.06.076.055q.001.001-.005.01c-.017.039-.055.104-.011.175 0 0 .011.082 0 .142a.55.55 0 0 0 .022.295l-.017.104v-.011a.14.14 0 0 0 .011.098l-.033.016.022.071c.022.077.028.17.028.262 0 .186 0 .393.169.552l.038.032.049-.016c.126-.038.131-.158.131-.23v-.07c-.049-.17-.027-.393-.011-.584 0-.055.011-.104.011-.148v-.021l-.005-.022a.35.35 0 0 1-.017-.213.5.5 0 0 0-.011-.235c.028-.36.011-.78 0-1.157l-.016-.447v-.011c-.022-.175-.016-.366-.011-.551.005-.164.011-.333-.005-.492.038-.18.038-.344.032-.518v-.279c.033-.049.044-.092.022-.141a.8.8 0 0 0 .022-.186c0-.044 0-.087.011-.126v-.043c-.011-.038 0-.082.011-.126.011-.054.027-.125 0-.19.065-.137.082-.301.093-.46v-.054q.014-.049-.028-.098c0-.076.038-.131.082-.207.049-.077.109-.17.12-.29v-.022c.006-.005.017-.01.022-.016.033-.027.076-.065.076-.13v-.034a.7.7 0 0 0 .131-.169c.05-.082.082-.136.175-.17l.049-.01.011-.05c.011-.054.06-.081.131-.13a.5.5 0 0 0 .158-.131c.06.005.099-.011.12-.033.077-.016.131-.06.181-.098.076-.066.103-.076.158-.055l.054.022.033-.033h.006c.027-.005.071-.016.092-.06.022 0 .044-.01.06-.016.044-.016.055-.016.071-.01.017.01.044.021.082.01h.066l.082-.01c.245-.034.458-.06.649.043l.071.038.044-.06s.016.022.027.027c.049.055.136.148.262.131.027.022.06.044.087.06a.2.2 0 0 1 .033.022l.016.027c.039.05.121.077.186.077.147.153.289.36.289.453v.087h.066v.006c.022.109.054.25.142.343-.028.055 0 .126.005.153 0 .011.006.022.006.033l-.022.066.054.054h.011c0 .066.022.12.044.158 0 .011.011.022.016.033l-.011.033c-.076.147.028.23.077.267l.016.017c-.038.027-.038.06-.044.114v.066l.033.043v.011c0 .011.011.028.022.05l-.027.027-.022.076.044.06.032.017c0 .032.011.065.022.087 0 0 0 .01.006.01v.039c-.039.142-.071.322.016.47l-.005.005c-.039.054-.028.114-.022.158 0 .016.005.038 0 .044l-.022.087s.027.011.054.016c0 .011-.005.017-.005.028l-.016.098h.038a.6.6 0 0 0-.011.098c0 .05 0 .088-.022.11v.01l-.011.011a.4.4 0 0 0 .038.246l.017.038a.1.1 0 0 0-.028.071q-.002.014.006.022l-.022.016.016.05a.1.1 0 0 0 .05.054h-.017v.098l-.054.017.027.054s-.027.066-.011.104l-.033.065s.006.038.038.055c-.032.114.05.202.104.25.022.023.033.04.044.05h-.044l.033.11s-.016.016-.022.026l-.071.033.022.099v.021a.11.11 0 0 0 0 .104q.001.002.011.01a.17.17 0 0 0-.06.121l-.011.082.065.01-.016.05c-.011.027-.016.055-.027.076 0 0-.006.006-.006.011l.115.066a1 1 0 0 0-.033.082c0 .01-.011.027-.011.032h-.103v.11l.016.06c0 .021 0 .043.011.07v.17h-.011l.011.065v.148l-.077.038.099.103a.3.3 0 0 0-.022.099h-.071l.115.142s.016.043.027.065v.011c-.049.044-.055.115-.06.147 0 .017 0 .039-.006.05l.028.038s-.039.038-.044.049c-.011.027-.011.054-.011.082h-.115l.093.092-.087.028.071.06v.229q-.001.067.054.093c.05.032.099.027.137.016v.093l.109-.033a.5.5 0 0 1 .207-.016l.093.016.011-.093c.044-.343.033-.67.027-.988a5.4 5.4 0 0 1 .022-.895c.022-.054 0-.109-.016-.136"/><path fill="#f37021" d="m257.367 22.113.021-.011v-.05l-.016-1.533v-.01a8 8 0 0 1-.038-.754 8 8 0 0 0-.055-.895c-.011-.399-.087-.824-.164-1.234l-.049-.278v-.027l-.021-.022c-.06-.06-.082-.136-.104-.23-.022-.076-.038-.152-.087-.223a3.2 3.2 0 0 0-.41-.53v-.01c-.043-.05-.087-.077-.12-.099-.022-.016-.044-.027-.065-.043l-.033-.028h-.022l-.027-.016c-.131-.104-.251-.142-.393-.191-.044-.06-.12-.071-.169-.071v-.038l-.071-.011-.344-.05h-.049l-.033.034c-.011.016-.016.021-.087-.006a1 1 0 0 0-.11-.027h-.038l-.022.016c-.011-.005-.021-.016-.038-.022l-.142-.043-.011.065a.3.3 0 0 0-.163.038h-.432l.028.082c-.093-.022-.164.033-.202.066-.006.005-.017.01-.017.016-.076.011-.114.044-.147.066-.022.016-.027.021-.049.021h-.033l-.022.028c-.032.038-.131.082-.18.103l-.114.05.027.027s-.038.022-.055.038h-.109v.087h-.011l-.06-.027-.043.055a3 3 0 0 1-.246.284 3 3 0 0 0-.306.365l-.027.038.016.039s-.071.043-.081.109c-.044.043-.05.109-.06.147 0 .011 0 .027-.006.038a.3.3 0 0 0-.06.153.14.14 0 0 1-.022.066l-.054.07.021.017c-.016.038-.016.087-.016.11v.032l-.038.022v.054a.8.8 0 0 1-.006.311c-.01.099-.027.208-.016.322-.044.066-.033.137-.027.186 0 .016.005.038 0 .049l-.055.044.038.065c.028.05.006.126-.016.202-.022.071-.044.164-.022.24-.005 0-.016.011-.022.022-.011.011-.016.038-.016.066 0 .06-.005.076-.005.081l-.039.082v.033l.066.05c-.011.048 0 .097 0 .136.011.054.011.076 0 .103l-.044.082.044.055v.016c0 .038-.006.104.038.153 0 .01 0 .016.005.027l-.081.022.054.115s0 .016-.005.027c-.006.033-.022.104.011.164-.028.065-.011.13 0 .174 0 .011.005.028.005.039-.076.082-.038.19-.016.25-.038.055-.028.12-.022.164l-.109.039.109.109s-.006.054.011.082a.1.1 0 0 0 .043.038l-.032.01v.012l.038.098v.01q-.016.091.033.16-.017.015-.017.048l-.043.044.043.06c.033.044.017.104 0 .202-.022.082-.043.185 0 .278l-.06.06.077.055q.001.001-.006.01c-.016.034-.054.104-.011.175v-.01a.4.4 0 0 1 0 .147.55.55 0 0 0 .022.295l-.016.103v-.01a.14.14 0 0 0 .011.098l-.033.016.022.07c.022.077.022.17.022.268 0 .186 0 .393.169.552l.038.032.049-.01c.126-.039.131-.164.131-.23v-.071c-.049-.169-.027-.387-.011-.584 0-.049.011-.103.017-.147v-.022l-.011-.022a.35.35 0 0 1-.017-.213.46.46 0 0 0-.011-.229c.028-.36.011-.78 0-1.157l-.016-.447v-.011c-.022-.175-.016-.366-.011-.552a4 4 0 0 0-.005-.49c.038-.18.038-.345.032-.514v-.278c.039-.05.049-.093.028-.142a.8.8 0 0 0 .021-.186c0-.043 0-.087.011-.125v-.044c-.011-.038 0-.082.011-.125.011-.055.028-.126 0-.191.066-.131.082-.3.093-.459v-.055a.1.1 0 0 0-.027-.098c0-.076.038-.13.082-.207.049-.082.109-.17.12-.29v-.021c.005-.006.016-.011.022-.017.032-.027.076-.065.076-.13V17.2c.06-.055.093-.115.131-.17.049-.081.082-.136.175-.163l.043-.011.011-.05c.011-.054.06-.081.131-.125a.5.5 0 0 0 .158-.13q.09 0 .121-.034c.076-.016.131-.06.18-.098.076-.065.103-.076.158-.049l.055.022.032-.033h.006a.14.14 0 0 0 .093-.06c.021 0 .043-.01.06-.016.043-.017.054-.017.07-.006s.044.022.082.011h.066l.082-.01c.245-.033.458-.06.649.043l.071.038.038-.06s.017.022.028.027c.049.055.136.148.262.131.027.022.06.044.082.06.01.006.027.017.038.022l.016.028c.038.049.12.076.186.076.142.153.289.36.289.448v.087h.065c.022.12.055.256.142.35-.022.054 0 .125.006.152q.001.016.011.033l-.022.065.054.055h.011c0 .065.022.12.044.158 0 .011.011.022.016.033l-.011.033c-.076.147.028.229.077.267l.016.016c-.038.028-.038.06-.043.115v.066l.032.043v.011c0 .011.011.033.022.05l-.027.026-.022.077.044.06.032.016a.2.2 0 0 0 .028.099v.038c-.038.142-.071.322.016.47-.044.054-.033.12-.027.163 0 .016.005.038 0 .049l-.022.087s.027.011.055.017c0 .01-.006.016-.011.027l-.017.104h.033c-.005.032-.005.065-.011.092 0 .05 0 .082-.022.115v.011l-.011.01c-.027.094.011.181.039.252 0 .01.01.027.016.038a.1.1 0 0 0-.027.071q-.001.007.005.022l-.016.016.016.05a.1.1 0 0 0 .049.054h-.016v.093l-.055.016.028.055s-.028.065-.011.103l-.039.066s.006.038.039.055c-.033.114.049.201.103.25.022.022.033.039.044.05h-.044l.033.109s-.016.016-.022.027l-.071.033.022.093v.021a.11.11 0 0 0 0 .104l.011.011a.2.2 0 0 0-.06.12l-.011.082.066.011-.017.05a.2.2 0 0 1-.027.076q.001.001-.006.01l.115.066a.4.4 0 0 0-.033.082c0 .01-.011.027-.011.033h-.103v.114s.011.033.016.06c0 .022 0 .044.011.071v.17h-.011l.011.07v.148l-.076.038.092.104v.005a.3.3 0 0 0-.021.098h-.071l.114.142s.017.044.022.066v.01c-.049.044-.055.115-.06.148 0 .016 0 .038-.005.044l.027.038a.13.13 0 0 0-.044.054c-.011.028-.011.055-.011.082h-.114l.092.093-.087.027.071.06v.23c0 .038.022.076.055.092h.005a.17.17 0 0 0 .137.017v.092l.109-.032a.45.45 0 0 1 .202-.017l.092.017.011-.093c.044-.338.039-.671.028-.988a5.4 5.4 0 0 1 .021-.895c.028-.055 0-.11-.016-.136"/><path fill="#f37021" d="M237.67 8.239h21.029v21.034H237.67zm-1.239 22.273h23.518V7h-23.518z"/><path fill="#007638" d="M406.601 20.334c-.088 0-.109-.066-.088-.153l1.998-5.349c.022-.087.065-.196.131-.196.065 0 .087.109.109.196l1.954 5.37c.022.066 0 .132-.109.132h-4.001zm4.415 1.086c.109 0 .175.043.218.152l1.741 4.607c.11.262-.043.458-.196.502-.218.022-.306.066-.306.197 0 .152.262.152.655.174 1.741.044 3.324.044 4.11.044s.999-.044.999-.218c0-.153-.109-.175-.284-.175-.262 0-.589-.022-.911-.087-.459-.131-1.087-.432-1.916-2.38-1.392-3.291-4.869-12.166-5.393-13.36-.218-.503-.349-.694-.545-.694-.219 0-.35.24-.612.868l-5.457 13.655c-.437 1.087-.846 1.829-1.851 1.96-.174.021-.48.043-.676.043-.175 0-.262.044-.262.175 0 .175.131.218.414.218 1.13 0 2.325-.065 2.566-.065.676 0 1.61.065 2.303.065.24 0 .371-.043.371-.218 0-.131-.066-.175-.328-.175h-.327c-.671 0-.868-.283-.868-.676 0-.262.109-.78.328-1.327l1.173-3.11c.044-.132.087-.175.197-.175h4.857"/><path fill="#007638" d="m398.436 17.059-.683-.459c-2.014-1.38-2.576-2.15-2.576-3.16 0-1.315 1.092-2.26 2.893-2.26 1.577 0 2.281.661 2.647 1.076.508.573.633 1.25.633 1.446 0 .262.071.393.246.393.196 0 .267-.175.267-.66 0-1.714.098-2.347.098-2.636 0-.153-.12-.219-.338-.262-.633-.153-1.654-.372-3.231-.372-3.373 0-5.611 1.736-5.611 4.149 0 1.779.923 3.312 3.597 5.2l1.119.792c2.014 1.425 2.38 2.434 2.38 3.515 0 1.163-1.07 2.5-3.253 2.5-1.507 0-2.942-.595-3.472-2.216-.12-.371-.218-.835-.218-1.119 0-.175-.022-.371-.24-.371-.126 0-.202.104-.246.267a2.4 2.4 0 0 0-.06.35c-.027.213-.103.726-.125.867-.153.895-.415 1.354-.983 1.616-.567.262-1.484.262-2.052.262-2.227 0-3.848-.328-3.891-1.834-.022-.633 0-2.642 0-3.384v-1.724c0-.131.022-.219.131-.219.524 0 3.635.022 4.05.066.807.087 1.113.415 1.222.851.066.284.066.568.087.786 0 .11.044.197.197.197.196 0 .196-.24.196-.415 0-.153.044-1.026.088-1.463.065-1.113.174-1.463.174-1.594 0-.13-.065-.174-.152-.174-.11 0-.197.109-.35.284-.196.218-.524.283-1.048.327-.502.044-3.962.044-4.442.044-.131 0-.153-.088-.153-.24v-5.53c0-.152.043-.218.153-.218.436 0 3.678.044 4.049.088 1.092.13 1.31.393 1.463.786.109.262.131.633.131.786 0 .196.044.305.197.305.152 0 .196-.13.218-.24.043-.262.087-1.223.109-1.44.065-1.005.175-1.267.175-1.42 0-.109-.022-.196-.131-.196s-.24.065-.35.087c-.174.044-.524.087-.938.131-.415.022-5.709.022-6.408.022-.306 0-.808-.022-1.375-.044-.448 0-.955-.016-1.452-.022-.022-.109-.066-.158-.158-.158-.17 0-.688.218-2.08.218h-7.352c-.715 0-1.539-.043-2.161-.109-.54-.038-.748-.18-.922-.18-.12 0-.191.044-.251.278h-.213c-.289 0-.579.011-.852.022-.469.017-.867.039-1.118.044-.443-.005-1.31-.066-2.249-.066-.289 0-.502.022-.502.197 0 .125.076.196.305.196.268 0 .732 0 1.021.131.415.197.595.54.644 1.556l.066 8.793c-.328-.344-9.857-10.949-10.136-11.162-.36-.273-.736-.022-.736.322l-.186 5.687-.262 7.516c-.022 1.877-.387 2.248-.89 2.549-.229.136-.633.201-.911.218-.087 0-.982.043-1.365-.044-.578-.142-.922-.53-.987-1.113-.088-.934-.088-2.642-.088-4.743v-3.81c0-3.29 0-3.897.044-4.59.044-.758.218-1.124.797-1.233.256-.044.425-.066.644-.066.218 0 .344-.043.344-.218 0-.131-.17-.175-.448-.175-.819 0-2.09.066-2.631.066-.627 0-1.981-.066-2.799-.066-.344 0-.519.044-.519.175 0 .175.131.218.349.218.257 0 .541.022.775.088.47.109.688.474.732 1.211.043.693.043 1.3.043 4.59v3.81c0 2.101 0 3.81-.103 4.721-.066.628-.197.993-.628 1.086a3.5 3.5 0 0 1-.775.082c-.257 0-.344.065-.344.175 0 .152.153.218.431.218.863 0 2.222-.066 2.718-.066.579 0 3.826.066 3.93.066 1.119 0 2.249-.033 2.44-.033.409 0 1.266.066 2.663.066.3 0 .497-.044.497-.219 0-.13-.131-.174-.366-.174-.344 0-.753-.022-1.119-.153-.431-.153-.709-.71-.753-2.396l-.082-4.246-.071-4.23c.35.41 8.957 9.824 10.174 11.118.213.24.442.474.655.474.174 0 .251-.19.251-.671l.213-13.628c0-.17.01-.328.016-.47.065-.824.251-1.124.628-1.304.201-.093.485-.115.731-.126-.016.623 0 1.889 0 2.162 0 .24.044.344.196.344.131 0 .197-.088.241-.262s.152-.437.365-.764c.322-.475.846-.585 2.101-.634l2.167-.087v8.918c0 2.003 0 3.722-.109 4.634-.065.633-.322 1.108-.753 1.195-.197.044-.89.088-1.212.088-.262 0-.344.065-.344.174 0 .153.153.218.432.218.862 0 2.789-.065 3.285-.065.606 0 1.976.065 3.4.065.241 0 .415-.065.415-.218 0-.109-.109-.174-.349-.174-.328 0-.802-.044-1.103-.088-.644-.087-.78-.567-.846-1.173-.109-.934-.109-2.653-.109-4.656v-8.918l2.134.066c1.927.043 2.587.655 2.626 1.217l.021.24c.022.327.066.436.241.436.131 0 .169-.13.191-.349 0-.53-.006-1.867-.006-2.418.164.011.317.028.409.05.721.152.896.502.939 1.244.044.698.044 1.31.044 4.634v3.842c0 2.008 0 3.733-.109 4.65-.088.633-.197 1.113-.633 1.2a3.6 3.6 0 0 1-.786.088c-.262 0-.35.066-.35.175 0 .152.153.218.437.218.437 0 1.004-.022 1.506-.044.524 0 1.005-.022 1.245-.022.655 0 1.331.022 2.27.066.939.022 3.406.065 5.049.065.829 0 1.026 0 1.179-.567.071.087.174.153.349.218 1.042.415 2.139.573 3.548.573 1.288 0 2.647-.196 3.858-.9 1.747-1.032 2.282-2.544 2.282-3.82 0-2.086-1.043-3.603-3.985-5.6M318.391 27.483c1.354 0 2.964-.152 3.81-.502.36-.153.442-.262.551-.627.213-.737.464-2.631.464-2.893 0-.175-.044-.328-.191-.328-.169 0-.213.088-.273.437a3.6 3.6 0 0 1-.72 1.436c-.846.998-1.987 1.217-3.87 1.217-2.838 0-6.664-2.566-6.664-7.74 0-2.106.404-4.175 1.949-5.632.933-.868 2.139-1.348 3.978-1.348 1.949 0 3.597.59 4.296 1.348.529.567.802 1.326.824 2.003 0 .306.043.48.213.48.191 0 .234-.175.256-.502.044-.437.022-1.632.066-2.347.043-.758.103-1.02.103-1.195 0-.131-.087-.24-.316-.262-.633-.066-1.31-.262-2.118-.371a20 20 0 0 0-3.067-.219c-3.155 0-5.163.868-6.686 2.304-2.03 1.91-2.478 4.48-2.478 5.954 0 2.107.551 4.541 2.625 6.413 1.927 1.72 4.361 2.369 7.259 2.369M271.579 11.847c0-.24.044-.328.197-.377.218-.044.42-.044.726-.044 1.888 0 2.745 1.932 2.745 3.4 0 1.081-.333 1.873-.901 2.331-.376.328-.857.42-1.582.42-.503 0-.836-.022-1.032-.065-.087-.022-.153-.066-.153-.246zm-2.636 8.912c0 2.02 0 3.76-.109 4.678-.093.638-.197 1.118-.633 1.206a3.6 3.6 0 0 1-.797.087c-.262 0-.349.066-.349.175 0 .153.152.218.436.218.879 0 2.26-.065 2.762-.065.666 0 2.658.13 3.187.13 4.045 0 5.867-2.434 5.867-4.786 0-2.57-2.199-4.132-3.995-4.748 1.207-.96 2.238-2.036 2.238-3.837 0-1.163-.699-3.291-4.683-3.291-.742 0-1.599.065-2.674.065-.437 0-1.818-.065-2.986-.065-.327 0-.485.043-.485.196s.131.197.376.197c.306 0 .677.022.857.065.721.153.901.502.944 1.25.044.704.044 1.315.044 4.656v3.869m7.668 2.636c0 2.287-1.675 2.811-2.658 2.811-.507 0-1.009-.022-1.604-.267-.704-.29-.764-.66-.764-2.113v-5.2c0-.11.043-.154.125-.154.333 0 .551 0 .944.022.857.044 1.359.197 1.823.53 1.67 1.162 2.134 3.007 2.134 4.366M328.75 20.334c-.087 0-.109-.066-.087-.153l1.997-5.349c.022-.087.066-.196.131-.196.066 0 .088.109.109.196l1.96 5.37c.022.066 0 .132-.109.132zm4.415 1.086c.11 0 .175.043.219.152l1.741 4.607c.109.262-.044.458-.197.502-.218.022-.305.066-.305.197 0 .152.262.152.655.174 1.741.044 3.323.044 4.109.044s.999-.044.999-.218c0-.153-.109-.175-.284-.175-.262 0-.589-.022-.911-.087-.459-.131-1.086-.432-1.916-2.38-1.392-3.291-4.868-12.166-5.392-13.36-.218-.503-.349-.694-.546-.694-.218 0-.349.24-.611.868l-5.458 13.655c-.437 1.087-.846 1.829-1.561 1.96a2 2 0 0 1-.442.043c-.175 0-.262.044-.262.175 0 .175.131.218.415.218 1.13 0 1.812-.065 2.046-.065.677 0 1.61.065 2.304.065.24 0 .371-.043.371-.218 0-.131-.066-.175-.328-.175h-.327c-.671 0-.868-.283-.868-.676 0-.262.109-.78.327-1.327l1.174-3.11c.044-.132.087-.175.196-.175h4.852"/><path fill="#007638" d="M287.254 20.35h-4.001c-.087 0-.109-.066-.087-.153l1.998-5.349c.022-.087.065-.196.131-.196.065 0 .087.11.109.196l1.959 5.37c.022.066 0 .132-.109.132m21.171-9.83h-.562c-.66.017-2.773-.005-3.711-.005-.29 0-.503.022-.503.196 0 .131.077.197.306.197.268 0 .617 0 .906.13.415.197.595.656.644 1.67l.066 8.848c-.328-.344-9.857-11.003-10.136-11.221-.36-.273-.736-.022-.736.322l-.186 5.747-.262 7.515c-.022 1.845-.196 2.691-.868 2.691s-.949-.813-1.61-2.363c-1.392-3.291-4.868-12.166-5.392-13.361-.218-.502-.349-.693-.546-.693-.218 0-.349.24-.606.868l-5.458 13.65c-.436 1.086-.846 1.828-1.85 1.96-.174.021-.48.043-.677.043-.174 0-.262.044-.262.174 0 .175.131.219.415.219 1.13 0 2.325-.066 2.565-.066.672 0 1.61.066 2.304.066.24 0 .371-.044.371-.219 0-.13-.066-.174-.328-.174h-.327c-.672 0-.868-.284-.868-.677 0-.262.109-.78.327-1.326l1.174-3.111c.044-.131.087-.175.196-.175h4.847c.109 0 .175.044.218.153l1.741 4.552a.4.4 0 0 1-.229.535c-.218.021-.306.065-.306.196 0 .153.262.153.655.175.972.022 1.9.022 2.675.022h.142c.464 0 .928-.006 1.326-.011.202 0 .366 0 .497-.011.311-.006.54-.011.616-.011.41 0 1.267.065 2.658.065.3 0 .497-.043.497-.218 0-.13-.131-.175-.366-.175-.344 0-.753-.021-1.119-.152-.431-.153-.709-.71-.753-2.396l-.082-4.247-.071-4.23c.35.41 8.957 9.765 10.174 11.058.213.24.442.475.655.475.174 0 .251-.191.251-.671l.076-4.989.148-8.847c.049-1.015.229-1.48.644-1.675.289-.131.638-.131.906-.131.229 0 .305-.066.305-.197 0-.175-.213-.197-.502-.197"/></g><defs><clipPath id="a"><path fill="#fff" d="M0 0h428.43v50H0z"/></clipPath></defs></svg>