<svg xmlns="http://www.w3.org/2000/svg" width="421" height="50" fill="none" viewBox="0 0 421 50"><g clip-path="url(#a)"><path fill="#fff" d="M25.416 30.812a.82.82 0 0 1-.576-.223.82.82 0 0 1-.223-.577V17.086a.78.78 0 0 1 .223-.577.78.78 0 0 1 .576-.223h8.612a.78.78 0 0 1 .576.223.7.7 0 0 1 .223.54q0 .315-.223.54a.82.82 0 0 1-.576.204h-7.812v4.947h5.673q.353 0 .558.223a.74.74 0 0 1 .223.54q0 .334-.223.558-.205.204-.558.204h-5.673v5.747q0 .334-.242.577a.76.76 0 0 1-.558.223M38.566 30.812a.78.78 0 0 1-.577-.223.78.78 0 0 1-.223-.577V17.086a.78.78 0 0 1 .223-.577.78.78 0 0 1 .577-.223.78.78 0 0 1 .576.223.78.78 0 0 1 .223.577v12.926a.78.78 0 0 1-.223.577.78.78 0 0 1-.576.223M44.26 30.812a.78.78 0 0 1-.577-.223.78.78 0 0 1-.223-.577V17.086a.78.78 0 0 1 .223-.577.78.78 0 0 1 .576-.223q.372 0 .614.298l8.649 11.4V17.087a.78.78 0 0 1 .223-.577.78.78 0 0 1 .576-.223q.336 0 .558.223a.75.75 0 0 1 .242.577v12.926a.75.75 0 0 1-.242.577.76.76 0 0 1-.558.223q-.167 0-.334-.056a.7.7 0 0 1-.28-.223L45.06 19.132v10.88a.75.75 0 0 1-.242.577.76.76 0 0 1-.558.223M58.49 30.812q-.466 0-.688-.372a.87.87 0 0 1-.037-.781l5.393-12.833q.242-.54.782-.54t.743.54l5.413 12.851a.77.77 0 0 1-.056.781.72.72 0 0 1-.651.354.8.8 0 0 1-.446-.13.87.87 0 0 1-.317-.354L63.68 18.202h.558l-5.021 12.126a.74.74 0 0 1-.298.372.9.9 0 0 1-.428.112m1.153-3.385.614-1.358h7.458l.632 1.358zM73.464 30.812a.78.78 0 0 1-.576-.223.78.78 0 0 1-.223-.577V17.086a.78.78 0 0 1 .223-.577.78.78 0 0 1 .576-.223q.372 0 .614.298l8.649 11.4V17.087a.78.78 0 0 1 .223-.577.78.78 0 0 1 .576-.223q.336 0 .558.223a.75.75 0 0 1 .242.577v12.926q0 .354-.242.577a.76.76 0 0 1-.558.223q-.167 0-.334-.056a.7.7 0 0 1-.28-.223l-8.648-11.401v10.88q0 .354-.242.577a.76.76 0 0 1-.558.223M94.949 30.998a7 7 0 0 1-2.827-.577 7.4 7.4 0 0 1-2.306-1.6 7.6 7.6 0 0 1-1.544-2.361 7.8 7.8 0 0 1-.54-2.92q0-1.544.54-2.883a7.3 7.3 0 0 1 1.543-2.362 7.2 7.2 0 0 1 2.288-1.6 6.84 6.84 0 0 1 2.846-.595q1.357 0 2.436.39 1.08.373 2.102 1.228.167.13.204.298a.4.4 0 0 1 0 .298.64.64 0 0 1-.13.26.5.5 0 0 1-.223.335.72.72 0 0 1-.41.111.8.8 0 0 1-.483-.186 4.7 4.7 0 0 0-1.525-.93q-.818-.316-1.971-.316-1.172 0-2.213.484a5.8 5.8 0 0 0-1.805 1.283 6.1 6.1 0 0 0-1.227 1.897 6.2 6.2 0 0 0-.428 2.288q0 1.245.428 2.325.446 1.078 1.227 1.897.782.818 1.805 1.283 1.041.465 2.213.465.986 0 1.878-.335a6.9 6.9 0 0 0 1.711-.948q.26-.206.521-.168a.74.74 0 0 1 .465.242q.205.186.205.52a.8.8 0 0 1-.056.298q-.056.13-.168.28a6.3 6.3 0 0 1-2.138 1.227 7.8 7.8 0 0 1-2.418.372M103.941 30.812a.78.78 0 0 1-.577-.223.78.78 0 0 1-.223-.577V17.086q0-.354.223-.577a.78.78 0 0 1 .577-.223h8.63q.334 0 .558.223a.7.7 0 0 1 .223.54q0 .315-.223.54a.8.8 0 0 1-.558.204h-7.83v4.947h5.672q.354 0 .577.223a.73.73 0 0 1 .223.54q0 .334-.223.558a.82.82 0 0 1-.577.204h-5.672v5.04h7.83q.334 0 .558.224.223.204.223.52a.76.76 0 0 1-.223.558.8.8 0 0 1-.558.205z"/><path fill="#fff" fill-rule="evenodd" d="M69.28 45.37c0 .265.028.52.509.52.48 0 .582-.273.582-.52v-1.965c.233.006.673.003 1.044.001l.427-.001c.7 0 2.064-.358 2.01-2.223-.039-1.336-1.139-1.89-2.01-1.89h-2.103c-.4 0-.473.409-.46.614zm3.433-4.188c-.08-.819-.747-.79-2.342-.819v1.943q.176 0 .359.005c1.04.021 2.097.035 1.983-1.129" clip-rule="evenodd"/><path fill="#fff" d="M86.032 39.271c-.37-.004-.56.355-.56.526v5.586c0 .338.356.517.538.517h3.11c.327 0 .56-.21.573-.607.01-.319-.324-.516-.574-.516h-2.483c.002-1.61.004-4.861 0-4.98a.58.58 0 0 0-.604-.526"/><path fill="#fff" fill-rule="evenodd" d="M91.767 45.257a.524.524 0 0 0 .29.607c.324.16.63-.073.72-.226l.574-1.394h2.536l.586 1.396c.1.17.398.371.72.226.33-.15.357-.521.293-.695l-2.3-5.54c-.157-.362-.405-.378-.552-.387l-.023-.002c-.226 0-.424.11-.588.541-.086.227-.61 1.493-1.167 2.837-.394.954-.805 1.946-1.089 2.637m3.667-2.128h-1.619l.792-1.927zM76.257 42.6c0 2.01 1.359 3.347 3.102 3.399 2.077.06 3.312-1.513 3.312-3.4 0-1.886-1.216-3.399-3.312-3.399-1.787 0-3.102 1.39-3.102 3.4m3.102 2.25c-1.136 0-1.907-1.008-1.907-2.25 0-1.134.687-2.28 1.907-2.28 1.118 0 2.118.691 2.118 2.28 0 1.496-.98 2.25-2.118 2.25M107.46 42.584c0 2.01 1.359 3.348 3.103 3.399 2.076.061 3.312-1.513 3.312-3.4 0-1.886-1.216-3.398-3.312-3.398-1.788 0-3.103 1.389-3.103 3.399m3.103 2.25c-1.137 0-1.907-1.008-1.907-2.25 0-1.133.687-2.28 1.907-2.28 1.118 0 2.117.691 2.117 2.28 0 1.497-.98 2.25-2.117 2.25" clip-rule="evenodd"/><path fill="#fff" d="M100.664 45.893c-.391.013-.534-.353-.557-.537l.005-5.576c0-.163.189-.505.56-.51.372-.003.591.273.591.51v2.542c.967-.927 2.938-2.815 3.086-2.948.186-.166.516-.147.709.05.268.272.17.603.034.752L103 42.16c.655.839 2 2.556 2.139 2.72.174.205.327.594-.043.901a.564.564 0 0 1-.849-.127l-2.113-2.682-.871.81c.005.468.01 1.437 0 1.574-.012.17-.111.522-.599.537"/><path fill="#fff" d="M119.896 42.058c-.378 0-.451.33-.451.516 0 .163.073.542.451.542h5.655c1.726-.067 2.517-1.803 2.499-2.745V28.753l.009-10.39V6.745c.018-.941-.773-2.678-2.498-2.745H12.498C10.773 4.067 10 5.526 10 6.745v11.618l.01 10.39v11.618c0 1.17.773 2.678 2.498 2.745h50.658c.378 0 .452-.38.452-.542 0-.186-.074-.516-.452-.516H12.508c-.767 0-1.452-.678-1.452-1.687V28.753l-.01-10.39V6.745c0-1.01.642-1.687 1.452-1.687h113.063c.665 0 1.452.678 1.452 1.687v11.618l-.009 10.39v11.618c0 1.01-.834 1.62-1.453 1.687z"/><path fill="#ff5f00" d="M183.518 11.91h-14.694v26.405h14.694z"/><path fill="#eb001b" d="M169.757 25.113a16.77 16.77 0 0 1 6.414-13.203 16.79 16.79 0 0 0-17.717-1.902A16.8 16.8 0 0 0 149 25.113a16.8 16.8 0 0 0 9.454 15.104 16.79 16.79 0 0 0 17.717-1.901 16.772 16.772 0 0 1-6.414-13.203"/><path fill="#f79e1b" d="M203.341 25.113a16.79 16.79 0 0 1-27.17 13.203 16.8 16.8 0 0 0 6.414-13.203 16.8 16.8 0 0 0-6.414-13.203 16.79 16.79 0 0 1 24.612 4.293 16.8 16.8 0 0 1 2.558 8.91M201.739 35.518v-.54h.218v-.11h-.556v.11h.218v.54zm1.077 0v-.652h-.17l-.196.449-.195-.449h-.171v.652h.121v-.492l.183.424h.125l.183-.425v.493z"/><path fill="#fff" d="M220.447 42h-.622V8h.622v34M237.657 35.519h-1.745V15.49h1.745zm12.732-20.028a13.6 13.6 0 0 1 4.506.701 9.6 9.6 0 0 1 3.405 2.003 8.8 8.8 0 0 1 2.16 3.154 11.77 11.77 0 0 1 0 8.312 8.8 8.8 0 0 1-2.16 3.154 9.6 9.6 0 0 1-3.405 2.003 13.6 13.6 0 0 1-4.506.7h-7.31V15.492zm-5.565 1.66v16.708h5.565a11.5 11.5 0 0 0 3.863-.593 7.8 7.8 0 0 0 2.818-1.681 7 7 0 0 0 1.731-2.633 10.44 10.44 0 0 0 0-6.895 7.1 7.1 0 0 0-1.731-2.639 7.7 7.7 0 0 0-2.818-1.68 11.7 11.7 0 0 0-3.863-.587zm36.679-1.889c.838-.002 1.674.094 2.489.286.781.184 1.538.46 2.253.823a9 9 0 0 1 1.903 1.295 8 8 0 0 1 1.452 1.716l-1.459.973c-.343-.524-.755-1-1.223-1.416a7.7 7.7 0 0 0-1.56-1.073 8 8 0 0 0-1.831-.68 8.6 8.6 0 0 0-2.024-.236 8.9 8.9 0 0 0-3.326.615 7.9 7.9 0 0 0-2.675 1.746 8.2 8.2 0 0 0-1.788 2.704 9.68 9.68 0 0 0 0 6.98 8.2 8.2 0 0 0 1.788 2.704 7.9 7.9 0 0 0 2.675 1.745 8.9 8.9 0 0 0 3.326.616 8.8 8.8 0 0 0 2.017-.23 7.8 7.8 0 0 0 1.824-.672 7.7 7.7 0 0 0 1.559-1.072 6.9 6.9 0 0 0 1.224-1.431l1.43 1.044a8.5 8.5 0 0 1-1.481 1.688c-.574.5-1.208.929-1.888 1.273a9.8 9.8 0 0 1-2.224.809 11.2 11.2 0 0 1-6.531-.48 9.8 9.8 0 0 1-3.254-2.11 9.7 9.7 0 0 1-2.153-3.233 11.37 11.37 0 0 1 0-8.275 9.7 9.7 0 0 1 2.153-3.24 9.8 9.8 0 0 1 3.254-2.11 10.8 10.8 0 0 1 4.07-.759m13.461 9.127a5.029 5.029 0 0 1 2.103-1.938 5.8 5.8 0 0 1 1.316-.458c.451-.1.912-.15 1.374-.15.784-.01 1.563.119 2.303.379a5.2 5.2 0 0 1 1.795 1.08 4.7 4.7 0 0 1 1.159 1.71c.28.717.419 1.482.408 2.252v8.255h-1.631v-7.754a5.5 5.5 0 0 0-.286-1.831 3.66 3.66 0 0 0-.844-1.38 3.7 3.7 0 0 0-1.359-.866 5.2 5.2 0 0 0-1.831-.3 4.8 4.8 0 0 0-1.767.321 4.21 4.21 0 0 0-2.389 2.332 4.6 4.6 0 0 0-.351 1.81v7.668h-1.631v-20.6h1.631zm20.157-2.546a6.1 6.1 0 0 1 2.496.508 5.9 5.9 0 0 1 1.988 1.416 6.7 6.7 0 0 1 1.324 2.174 7.86 7.86 0 0 1 .472 3.44h-11.287c.042.724.219 1.432.522 2.09a4.9 4.9 0 0 0 1.138 1.551 4.8 4.8 0 0 0 1.609.966 5.7 5.7 0 0 0 1.938.329 6 6 0 0 0 2.532-.515 7.1 7.1 0 0 0 2.017-1.402l.873 1.116a8 8 0 0 1-1.309 1.073 7 7 0 0 1-1.359.687q-.686.256-1.409.357-.72.1-1.445.1a7.1 7.1 0 0 1-2.718-.508 6.3 6.3 0 0 1-2.146-1.423 6.45 6.45 0 0 1-1.402-2.189 7.6 7.6 0 0 1-.501-2.818 7.5 7.5 0 0 1 .508-2.797 6.7 6.7 0 0 1 1.402-2.203 6.3 6.3 0 0 1 2.117-1.437 6.7 6.7 0 0 1 2.64-.515m-.029 1.445a4.9 4.9 0 0 0-1.881.35 4.7 4.7 0 0 0-1.495.973 5 5 0 0 0-1.051 1.48 5.9 5.9 0 0 0-.522 1.889h9.627a5.8 5.8 0 0 0-.472-1.91 4.8 4.8 0 0 0-1.009-1.48 4.48 4.48 0 0 0-3.197-1.302m15.721-1.445c.954-.01 1.9.173 2.783.536a5.96 5.96 0 0 1 2.181 1.552l-1.058 1.102a5.9 5.9 0 0 0-1.767-1.223 5.3 5.3 0 0 0-2.182-.437 5.15 5.15 0 0 0-2.052.408 5.05 5.05 0 0 0-1.653 1.13 5.2 5.2 0 0 0-1.094 1.717 6.17 6.17 0 0 0 0 4.334 5 5 0 0 0 2.747 2.833 5.15 5.15 0 0 0 2.052.408 5.3 5.3 0 0 0 2.211-.458 6.1 6.1 0 0 0 1.78-1.216l1.016 1.116a6.1 6.1 0 0 1-2.189 1.552 7.5 7.5 0 0 1-5.557.007 6.5 6.5 0 0 1-3.605-3.655 7.74 7.74 0 0 1 0-5.515 6.47 6.47 0 0 1 3.605-3.662 7.15 7.15 0 0 1 2.782-.53m9.871 5.894h2.188l5.665-5.68h2.06l-6.408 6.352 6.523 7.11h-2.075l-5.765-6.309h-2.188v6.309h-1.631v-20.6h1.631zM409 7h-36v36h36z"/><path fill="#1434cb" d="M408.006 24.667h-34.009v17.337h34.009zM387.342 12.033l-3.389 8.083h-2.211l-1.667-6.45c-.102-.397-.189-.542-.496-.712-.504-.272-1.333-.529-2.064-.687l.049-.234h3.558c.453 0 .862.302.966.823l.88 4.679 2.176-5.502zm8.662 5.445c.009-2.133-2.949-2.25-2.929-3.205.007-.29.282-.598.887-.677.3-.038 1.126-.069 2.062.362l.368-1.714a5.7 5.7 0 0 0-1.957-.357c-2.067 0-3.522 1.098-3.533 2.673-.012 1.164 1.039 1.813 1.831 2.2.817.396 1.089.65 1.086 1.004-.006.541-.651.781-1.251.79-1.053.017-1.662-.283-2.147-.51l-.38 1.772c.489.224 1.391.419 2.325.43 2.198 0 3.635-1.086 3.642-2.766m5.46 2.64h1.934l-1.689-8.084h-1.783a.95.95 0 0 0-.891.593l-3.138 7.49h2.196l.436-1.206h2.684l.253 1.207zm-2.335-2.864 1.102-3.036.633 3.036zm-8.798-5.22-1.729 8.084h-2.091l1.729-8.084z"/><path fill="#fff" d="M380.52 32.284q0-.387.187-.655a1.17 1.17 0 0 1 .513-.405q.325-.137.733-.137.455 0 .727.09.27.088.417.18l.049.676h-.017a1.4 1.4 0 0 0-.329-.198 2.3 2.3 0 0 0-.416-.137 2 2 0 0 0-.435-.05q-.337 0-.547.109t-.209.383q0 .21.1.328a.7.7 0 0 0 .298.192q.198.075.493.157.278.075.523.152.244.079.428.204a.9.9 0 0 1 .287.333q.104.207.105.529 0 .622-.405.953t-1.135.329q-.364 0-.734-.1a1.9 1.9 0 0 1-.6-.266l-.044-.682h.017q.267.227.643.355.375.128.757.129.81 0 .809-.558a.53.53 0 0 0-.091-.322.7.7 0 0 0-.295-.207 5 5 0 0 0-.531-.17 6 6 0 0 1-.487-.15 1.7 1.7 0 0 1-.413-.21.9.9 0 0 1-.287-.332 1.15 1.15 0 0 1-.105-.52zM383.958 35.238v-4.076h2.627v.59h-1.909v1.09h1.507v.569h-1.507v1.238h1.909v.59h-2.627M387.676 33.2q0 .461.169.804.17.343.486.53.317.189.762.188c.296 0 .556-.046.756-.137q.3-.136.525-.356h.017l-.075.713a2.2 2.2 0 0 1-.558.265 2.5 2.5 0 0 1-.751.106q-.483 0-.865-.164a1.92 1.92 0 0 1-1.068-1.124 2.4 2.4 0 0 1-.141-.825c0-.293.047-.573.141-.83q.143-.384.413-.67t.651-.45q.382-.165.858-.165.43 0 .74.09.311.089.531.254l.075.73h-.017a1.7 1.7 0 0 0-.531-.352 1.8 1.8 0 0 0-.712-.13q-.445-.001-.758.187-.315.187-.48.53-.166.344-.166.804zM392.658 34.702q.553 0 .804-.238.252-.24.253-.813v-2.49h.6v2.526q0 .859-.433 1.242-.431.384-1.258.384c-.551 0-.973-.128-1.277-.38q-.455-.383-.456-1.244v-2.525h.718v2.472q0 .574.244.82.243.247.802.248zM395.019 35.238v-4.076h1.721q.402 0 .695.16t.447.442q.156.281.157.636 0 .418-.231.729a1.1 1.1 0 0 1-.628.413l1.046 1.694h-.826l-.943-1.598h-.718v1.598h-.719zm1.529-3.507h-.811v1.373h.811q.39 0 .565-.17.174-.168.175-.518 0-.348-.175-.518t-.565-.169zM398.762 35.238v-4.076h2.629v.59h-1.909v1.09h1.507v.569h-1.507v1.238h1.909v.59h-2.629"/></g><defs><clipPath id="a"><path fill="#fff" d="M0 0h421v50H0z"/></clipPath></defs></svg>