<svg xmlns="http://www.w3.org/2000/svg" width="329" height="50" fill="none" viewBox="0 0 329 50"><g clip-path="url(#a)"><path fill="#fff" d="M24.57 30.258a.74.74 0 0 1-.521-.202.74.74 0 0 1-.202-.521V17.84q0-.32.202-.522a.7.7 0 0 1 .521-.202h7.791q.32 0 .522.202a.63.63 0 0 1 .202.488q0 .285-.202.488a.74.74 0 0 1-.522.185h-7.067v4.476h5.132q.32 0 .505.202a.67.67 0 0 1 .202.488q0 .303-.202.505-.185.185-.505.185h-5.132v5.2a.71.71 0 0 1-.219.521.69.69 0 0 1-.505.202M36.467 30.258a.7.7 0 0 1-.521-.202.7.7 0 0 1-.202-.521V17.84q0-.32.202-.522a.7.7 0 0 1 .521-.202q.32 0 .522.202a.7.7 0 0 1 .202.522v11.695a.7.7 0 0 1-.202.521.7.7 0 0 1-.522.202M41.619 30.258a.7.7 0 0 1-.522-.202.7.7 0 0 1-.202-.521V17.84q0-.32.202-.522a.7.7 0 0 1 .521-.202q.337 0 .556.27L49.999 27.7V17.84q0-.32.201-.522a.7.7 0 0 1 .522-.202q.303 0 .505.202a.68.68 0 0 1 .219.522v11.695a.68.68 0 0 1-.22.521.69.69 0 0 1-.504.202 1 1 0 0 1-.303-.05.63.63 0 0 1-.252-.202L42.342 19.69v9.844a.68.68 0 0 1-.219.521.69.69 0 0 1-.505.202M54.494 30.258q-.42 0-.623-.336a.79.79 0 0 1-.033-.707l4.88-11.61q.217-.489.706-.489t.673.488l4.897 11.628a.7.7 0 0 1-.05.707.65.65 0 0 1-.59.32.74.74 0 0 1-.403-.119.8.8 0 0 1-.286-.32l-4.476-10.97h.505L55.15 29.82a.67.67 0 0 1-.27.337.8.8 0 0 1-.386.101m1.043-3.062.556-1.229h6.747l.572 1.229zM68.042 30.258a.7.7 0 0 1-.522-.202.7.7 0 0 1-.202-.521V17.84q0-.32.202-.522a.7.7 0 0 1 .522-.202q.337 0 .555.27L76.422 27.7V17.84q0-.32.202-.522a.7.7 0 0 1 .522-.202q.302 0 .504.202a.68.68 0 0 1 .22.522v11.695a.68.68 0 0 1-.22.521.69.69 0 0 1-.505.202 1 1 0 0 1-.302-.05.63.63 0 0 1-.253-.202L68.766 19.69v9.844a.68.68 0 0 1-.22.521.69.69 0 0 1-.504.202M87.48 30.427a6.3 6.3 0 0 1-2.558-.522 6.7 6.7 0 0 1-2.086-1.447 6.8 6.8 0 0 1-1.397-2.137 7.1 7.1 0 0 1-.488-2.642q0-1.396.488-2.608a6.6 6.6 0 0 1 1.397-2.138 6.5 6.5 0 0 1 2.07-1.447 6.2 6.2 0 0 1 2.574-.538q1.229 0 2.204.353.977.337 1.902 1.11a.47.47 0 0 1 .185.27q.051.135 0 .27a.6.6 0 0 1-.118.235.46.46 0 0 1-.202.303.65.65 0 0 1-.37.1.7.7 0 0 1-.437-.167 4.2 4.2 0 0 0-1.38-.842q-.74-.286-1.784-.286-1.06 0-2.002.438a5.2 5.2 0 0 0-1.633 1.16 5.5 5.5 0 0 0-1.11 1.717 5.6 5.6 0 0 0-.387 2.07q0 1.127.387 2.103.404.975 1.11 1.717.707.74 1.633 1.16.942.421 2.002.421a4.8 4.8 0 0 0 1.7-.302 6.2 6.2 0 0 0 1.548-.859q.236-.185.47-.151a.67.67 0 0 1 .422.219q.185.168.185.47a.7.7 0 0 1-.05.27 1.3 1.3 0 0 1-.152.252 5.7 5.7 0 0 1-1.935 1.111 7.1 7.1 0 0 1-2.188.337M95.616 30.258a.7.7 0 0 1-.522-.202.7.7 0 0 1-.202-.521V17.84q0-.32.202-.522a.7.7 0 0 1 .522-.202h7.808q.302 0 .504.202a.63.63 0 0 1 .202.488q0 .285-.202.488a.72.72 0 0 1-.504.185h-7.085v4.476h5.133q.32 0 .521.202a.66.66 0 0 1 .202.488q0 .303-.202.505a.74.74 0 0 1-.521.185h-5.133v4.56h7.085q.302 0 .504.202a.61.61 0 0 1 .202.471q0 .303-.202.505a.72.72 0 0 1-.504.185z"/><path fill="#fff" fill-rule="evenodd" d="M64.256 43.43c0 .24.026.47.46.47.436 0 .528-.247.528-.47v-1.778c.21.005.608.003.945.001l.385-.001c.634 0 1.868-.324 1.819-2.011-.035-1.21-1.03-1.71-1.819-1.71h-1.903c-.36 0-.427.37-.415.555zm3.106-3.789c-.072-.741-.675-.716-2.118-.741v1.757q.158.001.324.005c.941.02 1.898.032 1.794-1.021" clip-rule="evenodd"/><path fill="#fff" d="M79.413 37.912c-.334-.004-.506.321-.506.476v5.053c0 .306.322.468.486.468h2.813c.296 0 .508-.189.52-.549.009-.288-.294-.466-.52-.466H79.96c.002-1.458.004-4.399 0-4.506a.525.525 0 0 0-.546-.476"/><path fill="#fff" fill-rule="evenodd" d="M84.602 43.328a.475.475 0 0 0 .261.549c.294.145.57-.066.653-.205l.518-1.261h2.295l.53 1.263c.09.154.36.336.652.205.298-.135.323-.472.265-.63l-2.081-5.012c-.142-.327-.366-.341-.5-.35l-.02-.001c-.205 0-.383.098-.532.49-.078.205-.552 1.35-1.056 2.566-.357.863-.729 1.76-.985 2.386m3.317-1.926h-1.464l.716-1.743zM70.568 40.923c0 1.819 1.23 3.03 2.807 3.075 1.879.056 2.997-1.368 2.997-3.075s-1.1-3.075-2.997-3.075c-1.617 0-2.807 1.257-2.807 3.075m2.807 2.036c-1.028 0-1.725-.912-1.725-2.036 0-1.025.621-2.062 1.725-2.062 1.011 0 1.916.625 1.916 2.062 0 1.355-.887 2.036-1.916 2.036M98.8 40.91c0 1.818 1.23 3.028 2.807 3.075 1.879.055 2.997-1.369 2.997-3.076s-1.1-3.075-2.997-3.075c-1.617 0-2.807 1.257-2.807 3.075m2.807 2.035c-1.028 0-1.725-.912-1.725-2.036 0-1.025.621-2.062 1.725-2.062 1.011 0 1.916.625 1.916 2.062 0 1.354-.887 2.036-1.916 2.036" clip-rule="evenodd"/><path fill="#fff" d="M92.65 43.903c-.352.012-.482-.32-.503-.486l.004-5.044c0-.148.171-.458.507-.461.337-.004.535.246.535.46v2.3c.875-.839 2.658-2.546 2.792-2.667.168-.15.467-.133.641.045a.49.49 0 0 1 .031.68l-1.892 1.796c.593.758 1.81 2.312 1.935 2.46.158.186.295.538-.04.816a.51.51 0 0 1-.767-.115l-1.912-2.427-.788.734c.004.423.01 1.3 0 1.423-.01.155-.1.472-.542.486"/><path fill="#fff" d="M110.051 40.433c-.342 0-.408.299-.408.467 0 .148.066.49.408.49h5.117c1.561-.06 2.276-1.631 2.26-2.483V28.396l.009-9.401V8.483c.016-.851-.7-2.422-2.261-2.483H12.883c-1.561.06-2.26 1.38-2.26 2.483v10.512l.008 9.4v10.512c0 1.058.7 2.423 2.26 2.484h45.833c.342 0 .409-.344.409-.491 0-.168-.067-.467-.409-.467H12.891c-.694 0-1.314-.613-1.314-1.526V28.396l-.009-9.401V8.483c0-.913.58-1.526 1.315-1.526h102.293c.602 0 1.314.614 1.314 1.526v10.512l-.008 9.401v10.511c0 .913-.755 1.465-1.314 1.526z"/><path fill="#ff5f00" d="M160.834 17.3h-8.644v15.533h8.644z"/><path fill="#eb001b" d="M152.739 25.066a9.85 9.85 0 0 1 3.773-7.766 9.879 9.879 0 1 0 0 15.533 9.86 9.86 0 0 1-3.773-7.767"/><path fill="#f79e1b" d="M172.494 25.066a9.88 9.88 0 0 1-5.56 8.885 9.88 9.88 0 0 1-10.422-1.118 9.888 9.888 0 0 0 2.78-12.084 9.9 9.9 0 0 0-2.78-3.45 9.876 9.876 0 0 1 14.478 2.526 9.9 9.9 0 0 1 1.504 5.241M171.551 31.187v-.318h.129v-.064h-.327v.064h.128v.318zm.634 0v-.383h-.1l-.115.264-.115-.264h-.1v.383h.07v-.289l.108.25h.074l.108-.25v.29z"/><path fill="#fff" d="M182.556 35h-.366V15h.366v20M192.68 31.188h-1.026V19.407h1.026zm7.49-11.781c.9-.013 1.796.126 2.65.412.743.25 1.425.65 2.003 1.178a5.2 5.2 0 0 1 1.271 1.855 6.92 6.92 0 0 1 0 4.89 5.2 5.2 0 0 1-1.271 1.855 5.6 5.6 0 0 1-2.003 1.178 8 8 0 0 1-2.65.413h-4.3V19.407zm-3.274.976v9.829h3.274a6.8 6.8 0 0 0 2.272-.35 4.6 4.6 0 0 0 1.657-.988 4.1 4.1 0 0 0 1.019-1.549 6.15 6.15 0 0 0 0-4.056 4.16 4.16 0 0 0-1.019-1.552 4.5 4.5 0 0 0-1.657-.99 6.9 6.9 0 0 0-2.272-.344zm21.576-1.111c.493-.001.984.055 1.464.168.46.108.905.27 1.325.484q.61.308 1.12.762c.331.294.618.634.854 1.01l-.859.572a4.1 4.1 0 0 0-.719-.833 4.5 4.5 0 0 0-.917-.631 4.7 4.7 0 0 0-1.077-.4 5 5 0 0 0-1.191-.139 5.2 5.2 0 0 0-1.957.362 4.67 4.67 0 0 0-2.625 2.617 5.7 5.7 0 0 0 0 4.106 4.664 4.664 0 0 0 2.625 2.617 5.2 5.2 0 0 0 1.957.362 5.2 5.2 0 0 0 1.186-.134 4.57 4.57 0 0 0 1.991-1.027c.277-.246.519-.53.719-.842l.842.615a5 5 0 0 1-.871.993 5.4 5.4 0 0 1-1.111.749c-.415.21-.855.37-1.309.475a6.58 6.58 0 0 1-3.841-.282 5.8 5.8 0 0 1-1.914-1.241 5.7 5.7 0 0 1-1.267-1.902 6.7 6.7 0 0 1 0-4.868 5.7 5.7 0 0 1 1.267-1.906 5.8 5.8 0 0 1 1.914-1.241 6.4 6.4 0 0 1 2.394-.446m7.918 5.369q.227-.377.552-.673.31-.283.685-.468.372-.18.775-.269.399-.088.807-.088c.462-.006.92.07 1.355.223.392.138.751.354 1.056.635.299.281.532.624.682 1.006.165.422.246.872.24 1.325v4.855h-.959v-4.56a3.2 3.2 0 0 0-.169-1.078 2.15 2.15 0 0 0-.496-.811 2.2 2.2 0 0 0-.8-.51 3 3 0 0 0-1.077-.176 2.8 2.8 0 0 0-1.039.189 2.48 2.48 0 0 0-1.405 1.372c-.141.337-.211.699-.207 1.064v4.51h-.959V19.07h.959zm11.857-1.498a3.6 3.6 0 0 1 1.468.299c.444.193.842.477 1.17.833.339.373.603.807.779 1.279a4.6 4.6 0 0 1 .277 2.024h-6.639c.025.425.129.841.307 1.228a2.823 2.823 0 0 0 1.616 1.481c.365.13.751.196 1.14.194a3.5 3.5 0 0 0 1.49-.303c.44-.204.841-.483 1.186-.825l.513.656a4.7 4.7 0 0 1-.77.632 3.948 3.948 0 0 1-1.628.614q-.424.06-.85.059a4.2 4.2 0 0 1-1.599-.299 3.7 3.7 0 0 1-1.262-.837 3.8 3.8 0 0 1-.825-1.288 4.5 4.5 0 0 1-.294-1.658 4.4 4.4 0 0 1 .299-1.645c.186-.482.466-.922.824-1.296a3.7 3.7 0 0 1 1.246-.845 4 4 0 0 1 1.552-.303m-.017.85a2.776 2.776 0 0 0-1.986.778c-.257.25-.466.546-.618.871a3.4 3.4 0 0 0-.307 1.11h5.663a3.4 3.4 0 0 0-.278-1.123 2.8 2.8 0 0 0-.593-.87 2.63 2.63 0 0 0-1.881-.766m9.248-.85a4.2 4.2 0 0 1 1.637.315c.491.203.93.516 1.283.914l-.623.647a3.4 3.4 0 0 0-1.039-.72 3.1 3.1 0 0 0-1.283-.256 3 3 0 0 0-1.208.24 2.97 2.97 0 0 0-1.616 1.675 3.63 3.63 0 0 0 0 2.55 2.95 2.95 0 0 0 1.616 1.666c.382.161.793.243 1.208.24.448.004.891-.088 1.3-.27a3.6 3.6 0 0 0 1.047-.715l.598.656a3.6 3.6 0 0 1-1.288.913 4.42 4.42 0 0 1-3.269.004 3.81 3.81 0 0 1-2.12-2.15 4.55 4.55 0 0 1 0-3.244 3.82 3.82 0 0 1 2.12-2.154 4.2 4.2 0 0 1 1.637-.311m5.806 3.467h1.288l3.332-3.341h1.212l-3.77 3.736 3.837 4.183h-1.22l-3.391-3.711h-1.288v3.71h-.959V19.07h.959zM317 7h-36v36h36z"/><path fill="#1434cb" d="M316.006 24.667h-34.009v17.337h34.009zM295.342 12.033l-3.389 8.083h-2.211l-1.667-6.45c-.102-.397-.189-.542-.496-.712-.504-.272-1.333-.529-2.064-.687l.049-.234h3.558c.453 0 .862.302.966.823l.88 4.679 2.176-5.502zm8.662 5.445c.009-2.133-2.949-2.25-2.929-3.205.007-.29.282-.598.887-.677.3-.038 1.126-.069 2.062.362l.368-1.714a5.7 5.7 0 0 0-1.957-.357c-2.067 0-3.522 1.098-3.533 2.673-.012 1.164 1.039 1.813 1.831 2.2.817.396 1.089.65 1.086 1.004-.006.541-.651.781-1.251.79-1.053.017-1.662-.283-2.147-.51l-.38 1.772c.489.224 1.391.419 2.325.43 2.198 0 3.635-1.086 3.642-2.766m5.46 2.64h1.934l-1.689-8.084h-1.783a.95.95 0 0 0-.891.593l-3.138 7.49h2.196l.436-1.206h2.684l.253 1.207zm-2.335-2.864 1.102-3.036.633 3.036zm-8.798-5.22-1.729 8.084h-2.091l1.729-8.084z"/><path fill="#fff" d="M288.52 32.284q0-.387.187-.655a1.17 1.17 0 0 1 .513-.405q.324-.137.733-.137.455 0 .727.09.27.088.417.18l.049.676h-.017a1.4 1.4 0 0 0-.329-.198 2.3 2.3 0 0 0-.416-.137 2 2 0 0 0-.435-.05q-.337 0-.547.109t-.209.383q0 .21.1.328a.7.7 0 0 0 .298.192q.198.075.493.157.278.075.523.152.244.079.428.204a.9.9 0 0 1 .287.333q.104.207.105.529 0 .622-.405.953t-1.135.329q-.364 0-.734-.1a1.9 1.9 0 0 1-.6-.266l-.044-.682h.017q.267.227.643.355.375.128.757.129.81 0 .809-.558a.53.53 0 0 0-.091-.322.7.7 0 0 0-.295-.207 5 5 0 0 0-.531-.17 6 6 0 0 1-.487-.15 1.7 1.7 0 0 1-.413-.21.9.9 0 0 1-.287-.332 1.15 1.15 0 0 1-.105-.52zM291.958 35.238v-4.076h2.627v.59h-1.909v1.09h1.507v.569h-1.507v1.238h1.909v.59h-2.627M295.676 33.2q0 .461.169.804.17.343.486.53.316.189.762.188c.296 0 .556-.046.756-.137q.3-.136.525-.356h.017l-.075.713a2.2 2.2 0 0 1-.558.265 2.5 2.5 0 0 1-.751.106q-.483 0-.865-.164a1.92 1.92 0 0 1-1.068-1.124 2.4 2.4 0 0 1-.141-.825c0-.293.047-.573.141-.83q.143-.384.413-.67t.651-.45q.382-.165.858-.165.43 0 .74.09.311.089.531.254l.075.73h-.017a1.7 1.7 0 0 0-.531-.352 1.8 1.8 0 0 0-.712-.13q-.445-.001-.758.187-.315.187-.48.53-.166.344-.166.804zM300.658 34.702q.553 0 .804-.238.252-.24.253-.813v-2.49h.6v2.526q0 .859-.433 1.242-.431.384-1.258.384c-.551 0-.973-.128-1.277-.38q-.455-.383-.456-1.244v-2.525h.718v2.472q0 .574.244.82.243.247.802.248zM303.019 35.238v-4.076h1.721q.402 0 .695.16t.447.442q.156.281.157.636 0 .418-.231.729a1.1 1.1 0 0 1-.628.413l1.046 1.694h-.826l-.943-1.598h-.718v1.598h-.719zm1.529-3.507h-.811v1.373h.811q.39 0 .565-.17.174-.168.175-.518 0-.348-.175-.518t-.565-.169zM306.762 35.238v-4.076h2.629v.59h-1.909v1.09h1.507v.569h-1.507v1.238h1.909v.59h-2.629"/></g><defs><clipPath id="a"><path fill="#fff" d="M0 0h329v50H0z"/></clipPath></defs></svg>