<svg xmlns="http://www.w3.org/2000/svg" width="318" height="50" fill="none" viewBox="0 0 318 50"><g clip-path="url(#a)"><path fill="#ff5f00" d="M58.549 11.14H42.99v27.959H58.55z"/><path fill="#eb001b" d="M43.978 25.119a17.75 17.75 0 0 1 6.791-13.98 17.781 17.781 0 1 0 0 27.96 17.75 17.75 0 0 1-6.79-13.98"/><path fill="#f79e1b" d="M79.538 25.119a17.781 17.781 0 0 1-28.768 13.98 17.783 17.783 0 0 0 0-27.96 17.781 17.781 0 0 1 28.768 13.98M77.842 36.137v-.572h.23v-.117h-.587v.117h.23v.572zm1.141 0v-.69h-.18l-.207.475-.208-.475h-.18v.69h.127v-.52l.195.449h.132l.194-.45v.521z"/><path fill="#000" d="M97.65 43h-.66V7h.66v36M115.872 36.138h-1.848V14.932h1.848zm13.481-21.206a14.4 14.4 0 0 1 4.771.742 10.1 10.1 0 0 1 3.605 2.121 9.3 9.3 0 0 1 2.287 3.34 12.45 12.45 0 0 1 0 8.8 9.3 9.3 0 0 1-2.287 3.34 10.1 10.1 0 0 1-3.605 2.12c-1.537.515-3.15.766-4.771.743h-7.74V14.932zm-5.892 1.757v17.692h5.892a12.2 12.2 0 0 0 4.09-.629 8.3 8.3 0 0 0 2.984-1.78 7.4 7.4 0 0 0 1.832-2.787 11.04 11.04 0 0 0 0-7.3 7.5 7.5 0 0 0-1.832-2.795 8.16 8.16 0 0 0-2.984-1.78 12.4 12.4 0 0 0-4.09-.62zm38.836-2c.888-.002 1.772.1 2.636.304a10.7 10.7 0 0 1 2.385.87c.728.37 1.405.83 2.015 1.372a8.4 8.4 0 0 1 1.537 1.817l-1.545 1.03a7.4 7.4 0 0 0-1.295-1.5 8 8 0 0 0-1.651-1.136 8.5 8.5 0 0 0-1.938-.719 9 9 0 0 0-2.144-.25c-1.205-.01-2.4.21-3.521.651a8.4 8.4 0 0 0-2.833 1.849 8.6 8.6 0 0 0-1.893 2.862 10.25 10.25 0 0 0 0 7.392 8.6 8.6 0 0 0 1.893 2.863 8.4 8.4 0 0 0 2.833 1.847 9.4 9.4 0 0 0 3.521.652 9.3 9.3 0 0 0 2.136-.243 8.2 8.2 0 0 0 1.931-.711 8 8 0 0 0 1.651-1.136 7.3 7.3 0 0 0 1.295-1.515l1.515 1.106a9 9 0 0 1-1.568 1.787 9.8 9.8 0 0 1-1.999 1.348c-.748.38-1.538.667-2.355.856a11.84 11.84 0 0 1-6.915-.508 10.4 10.4 0 0 1-3.446-2.234 10.3 10.3 0 0 1-2.28-3.423 12.05 12.05 0 0 1 0-8.762 10.2 10.2 0 0 1 2.28-3.431 10.4 10.4 0 0 1 3.446-2.235 11.4 11.4 0 0 1 4.309-.802m14.253 9.664c.271-.45.605-.857.993-1.211.369-.337.785-.62 1.234-.841.443-.217.911-.38 1.393-.484a6.8 6.8 0 0 1 1.455-.16c.83-.01 1.655.127 2.439.402a5.5 5.5 0 0 1 1.9 1.143 5 5 0 0 1 1.228 1.81c.296.76.443 1.57.431 2.386v8.74h-1.727v-8.21a5.8 5.8 0 0 0-.303-1.939 3.9 3.9 0 0 0-.893-1.461 3.9 3.9 0 0 0-1.439-.917 5.5 5.5 0 0 0-1.939-.318 5.1 5.1 0 0 0-1.871.341 4.47 4.47 0 0 0-2.529 2.469 4.8 4.8 0 0 0-.372 1.916v8.119h-1.726V14.326h1.726zm21.343-2.696a6.5 6.5 0 0 1 2.643.538 6.3 6.3 0 0 1 2.105 1.5 7.1 7.1 0 0 1 1.401 2.302 8.3 8.3 0 0 1 .5 3.643h-11.951a6.1 6.1 0 0 0 .553 2.211 5.083 5.083 0 0 0 2.908 2.666 6 6 0 0 0 2.053.348 6.3 6.3 0 0 0 2.681-.545 7.5 7.5 0 0 0 2.135-1.484l.924 1.181q-.632.642-1.385 1.136a7.4 7.4 0 0 1-1.44.727c-.482.18-.982.307-1.492.379q-.76.105-1.529.106a7.6 7.6 0 0 1-2.878-.538 6.7 6.7 0 0 1-2.272-1.507 6.8 6.8 0 0 1-1.485-2.317 8.1 8.1 0 0 1-.53-2.984 8 8 0 0 1 .538-2.961c.336-.868.84-1.661 1.484-2.333a6.7 6.7 0 0 1 2.242-1.522 7.1 7.1 0 0 1 2.795-.546m-.031 1.53a5.2 5.2 0 0 0-1.992.371 5 5 0 0 0-1.582 1.03c-.463.451-.84.982-1.113 1.568a6.2 6.2 0 0 0-.553 2h10.194a6.2 6.2 0 0 0-.5-2.023 5.1 5.1 0 0 0-1.068-1.567 4.76 4.76 0 0 0-3.386-1.379m16.646-1.53a7.55 7.55 0 0 1 2.946.568 6.3 6.3 0 0 1 2.31 1.644l-1.121 1.166a6.2 6.2 0 0 0-1.87-1.295 5.6 5.6 0 0 0-2.31-.462 5.5 5.5 0 0 0-2.174.432 5.3 5.3 0 0 0-1.749 1.196 5.5 5.5 0 0 0-1.159 1.818 6.53 6.53 0 0 0 0 4.59 5.3 5.3 0 0 0 2.908 2.999c.688.29 1.428.438 2.174.431a5.6 5.6 0 0 0 2.34-.484 6.5 6.5 0 0 0 1.886-1.288l1.075 1.182a6.45 6.45 0 0 1-2.317 1.643 7.96 7.96 0 0 1-5.885.008 6.87 6.87 0 0 1-3.817-3.87 8.2 8.2 0 0 1 0-5.84 6.85 6.85 0 0 1 3.817-3.877 7.6 7.6 0 0 1 2.946-.56m10.451 6.24h2.318l5.998-6.012h2.181l-6.786 6.725 6.907 7.528h-2.196l-6.104-6.68h-2.318v6.68h-1.727V14.326h1.727z"/><path fill="#fff" d="M305.31 7h-36v36h36z"/><path fill="#1434cb" d="M305.31 25h-36v18h36zM283.652 12.033l-3.389 8.083h-2.211l-1.667-6.45c-.102-.397-.189-.542-.496-.712-.504-.272-1.333-.529-2.064-.687l.049-.234h3.558c.453 0 .862.302.966.823l.88 4.679 2.176-5.502zm8.662 5.445c.009-2.133-2.949-2.25-2.929-3.205.007-.29.282-.598.887-.677.3-.038 1.126-.069 2.062.362l.368-1.714a5.7 5.7 0 0 0-1.957-.357c-2.067 0-3.522 1.098-3.534 2.673-.013 1.164 1.038 1.813 1.831 2.2.816.396 1.089.65 1.085 1.004-.005.541-.651.781-1.251.79-1.053.017-1.662-.283-2.147-.51l-.38 1.772c.489.224 1.391.419 2.325.43 2.198 0 3.635-1.086 3.642-2.766m5.46 2.64h1.935l-1.689-8.084h-1.784a.95.95 0 0 0-.891.593l-3.138 7.49h2.196l.437-1.206h2.683l.253 1.207zm-2.334-2.864 1.101-3.036.633 3.036zm-8.799-5.22-1.729 8.084h-2.091l1.729-8.084z"/><path fill="#fff" d="M276.83 32.949q0-.387.188-.655t.512-.405q.324-.136.733-.136.455 0 .727.089.27.088.417.18l.049.676h-.017a1.4 1.4 0 0 0-.329-.198 2.3 2.3 0 0 0-.416-.136 2 2 0 0 0-.435-.051q-.337 0-.547.109-.21.11-.209.383 0 .21.1.328a.7.7 0 0 0 .298.192q.2.075.493.157.278.076.524.152.243.079.427.204a.9.9 0 0 1 .287.333q.105.207.106.529 0 .622-.406.953t-1.134.329q-.365 0-.735-.1a1.9 1.9 0 0 1-.6-.266l-.044-.682h.017q.267.227.643.355.375.128.757.129.81 0 .809-.558a.53.53 0 0 0-.091-.322.7.7 0 0 0-.295-.207 5 5 0 0 0-.531-.17 6 6 0 0 1-.487-.15 1.7 1.7 0 0 1-.413-.21.9.9 0 0 1-.287-.332 1.15 1.15 0 0 1-.105-.52zM280.268 35.904v-4.077h2.627v.591h-1.909v1.09h1.508v.568h-1.508v1.239h1.909v.59h-2.627zM283.986 33.865q0 .462.169.804.17.343.486.53.316.189.762.188c.296 0 .556-.045.756-.136q.3-.137.525-.357h.017l-.075.713a2.2 2.2 0 0 1-.558.266 2.5 2.5 0 0 1-.751.105q-.483 0-.865-.164a1.92 1.92 0 0 1-1.068-1.123 2.4 2.4 0 0 1-.141-.826c0-.293.047-.573.141-.829q.143-.385.413-.67.27-.288.651-.452.382-.163.858-.163.43 0 .74.089.311.089.531.254l.075.73h-.017a1.7 1.7 0 0 0-.531-.351 1.8 1.8 0 0 0-.712-.131q-.445 0-.758.187-.315.188-.48.53-.166.344-.166.805zM288.968 35.367q.554 0 .804-.238.252-.238.253-.813v-2.489h.6v2.526q0 .858-.433 1.241-.431.385-1.258.384c-.551 0-.973-.127-1.276-.38q-.457-.381-.457-1.243v-2.526h.718v2.473q0 .573.244.82.243.246.802.247zM291.329 35.904v-4.077h1.721q.402 0 .695.16.293.161.447.442.156.281.157.636 0 .418-.231.73a1.1 1.1 0 0 1-.628.412l1.046 1.695h-.826l-.943-1.598h-.718v1.598h-.719zm1.529-3.508h-.811v1.373h.811q.39 0 .565-.169t.175-.518-.175-.518q-.174-.17-.565-.17zM295.072 35.904v-4.077h2.629v.591h-1.909v1.09h1.507v.568h-1.507v1.239h1.909v.59h-2.629z"/></g><defs><clipPath id="a"><path fill="#fff" d="M0 0h317.31v50H0z"/></clipPath></defs></svg>