<svg xmlns="http://www.w3.org/2000/svg" width="441" height="50" fill="none" viewBox="0 0 441 50"><g clip-path="url(#a)"><path fill="#fff" d="M26.992 42.797v-2.38a1.412 1.412 0 0 0-1.491-1.508 1.47 1.47 0 0 0-1.333.675 1.39 1.39 0 0 0-1.254-.675 1.25 1.25 0 0 0-1.11.564v-.468h-.826v3.792h.833v-2.102a.886.886 0 0 1 .928-1.008c.548 0 .826.357.826 1v2.11h.833v-2.102a.894.894 0 0 1 .928-1.008c.564 0 .833.357.833 1v2.11zm4.65-1.896v-1.897h-.825v.46a1.44 1.44 0 0 0-1.198-.555 1.994 1.994 0 0 0 0 3.983 1.44 1.44 0 0 0 1.198-.555v.46h.825zm-3.07 0a1.149 1.149 0 1 1 1.15 1.214 1.137 1.137 0 0 1-1.15-1.214m20.727-1.996c.279-.003.555.049.814.152a1.921 1.921 0 0 1 1.075 1.051 2.1 2.1 0 0 1 0 1.585 1.92 1.92 0 0 1-1.075 1.051 2.25 2.25 0 0 1-1.628 0 2 2 0 0 1-.645-.42 1.9 1.9 0 0 1-.426-.631 2.1 2.1 0 0 1 0-1.584 1.94 1.94 0 0 1 1.071-1.052c.259-.103.535-.155.814-.152m0 .78a1.2 1.2 0 0 0-.471.09 1.12 1.12 0 0 0-.626.633 1.38 1.38 0 0 0 0 .986 1.115 1.115 0 0 0 .626.634c.303.118.64.118.942 0a1.14 1.14 0 0 0 .63-.634 1.38 1.38 0 0 0 0-.986 1.138 1.138 0 0 0-.63-.634c-.15-.06-.31-.09-.47-.089m-13.167 1.216c-.008-1.182-.738-1.992-1.8-1.992a1.993 1.993 0 0 0 .055 3.983c.566.02 1.12-.169 1.555-.531l-.405-.611c-.313.25-.701.39-1.103.397a1.054 1.054 0 0 1-1.134-.929h2.816c.008-.103.016-.206.016-.317m-2.824-.333a.976.976 0 0 1 1.007-.92.94.94 0 0 1 .96.92zm6.3-.596a2.44 2.44 0 0 0-1.183-.325c-.452 0-.722.167-.722.445 0 .254.286.325.643.372l.389.056c.825.119 1.325.468 1.325 1.135 0 .722-.635 1.237-1.73 1.237a2.74 2.74 0 0 1-1.642-.492l.388-.642c.364.27.809.41 1.262.396.563 0 .865-.166.865-.46 0-.214-.215-.333-.667-.397l-.389-.055c-.849-.119-1.309-.5-1.309-1.119 0-.754.62-1.214 1.58-1.214a2.84 2.84 0 0 1 1.547.397zm3.965-.214h-1.35v1.714c0 .38.136.635.548.635.258-.009.509-.082.73-.214l.238.706a1.94 1.94 0 0 1-1.031.293c-.976 0-1.317-.523-1.317-1.404v-1.73h-.77v-.754h.77v-1.15h.832v1.15h1.35zm2.855-.849c.2.001.399.036.588.103l-.254.778a1.3 1.3 0 0 0-.516-.095c-.54 0-.81.349-.81.976v2.126h-.825v-3.792h.818v.46a1.12 1.12 0 0 1 1-.556m5.713 3.336a.38.38 0 0 1 .272.11.38.38 0 0 1 .112.267.37.37 0 0 1-.112.267.4.4 0 0 1-.272.111.384.384 0 0 1-.386-.378.37.37 0 0 1 .234-.347.4.4 0 0 1 .152-.03m0 .672a.28.28 0 0 0 .206-.086.293.293 0 0 0-.322-.479.29.29 0 0 0-.18.27.3.3 0 0 0 .183.273.3.3 0 0 0 .113.022m.022-.471a.16.16 0 0 1 .105.03.1.1 0 0 1 .036.082.1.1 0 0 1-.03.071.14.14 0 0 1-.082.035l.115.132h-.09l-.106-.131h-.035v.131h-.075v-.35zm-.087.066v.093h.087a.1.1 0 0 0 .047-.012.04.04 0 0 0 .017-.035.04.04 0 0 0-.017-.035.1.1 0 0 0-.047-.012z"/><path fill="#7375cf" d="M42.399 10.058H29.884v22.49h12.515z"/><path fill="#eb001b" d="M30.679 21.303a14.28 14.28 0 0 1 5.463-11.245 14.303 14.303 0 1 0 0 22.49 14.28 14.28 0 0 1-5.463-11.245"/><path fill="#00a2e5" d="M57.918 30.166v-.46h.186v-.095h-.473v.094h.186v.46zm.918 0v-.556h-.145l-.167.382-.166-.382h-.145v.556h.102v-.42l.156.362h.106l.157-.362v.42zM59.282 21.303a14.302 14.302 0 0 1-23.14 11.244 14.305 14.305 0 0 0 0-22.49 14.303 14.303 0 0 1 23.14 11.246"/><path fill="#ff5f00" d="M121.418 10.848h-15.75v28.303h15.75z"/><path fill="#eb001b" d="M106.668 25a17.98 17.98 0 0 1 6.875-14.152 18 18 0 0 0-26.38 4.602 18 18 0 0 0 26.38 23.702A17.97 17.97 0 0 1 106.668 25"/><path fill="#f79e1b" d="M142.666 25a17.999 17.999 0 0 1-29.123 14.152 18 18 0 0 0 0-28.304 18 18 0 0 1 18.991-2.038A18 18 0 0 1 142.666 25M140.949 36.154v-.58h.233v-.118h-.595v.118h.234v.58zm1.155 0v-.699h-.182l-.21.48-.21-.48h-.182v.699h.128v-.527l.197.454h.134l.196-.455v.528z"/><path fill="#c52f33" fill-rule="evenodd" d="M231.054 17.955c-2.315-4.91-7.204-7.87-12.752-7.87-7.029 0-13.558 4.722-15.865 11.24C205.175 13.352 212.582 8 220.556 8c6.293 0 11.838 3.357 14.615 8.875l-1.04 1.633zm-1.969 12.432c.371-.336.629-.738.775-1.198q.219-.694.351-1.314l.733-3.23a6 6 0 0 0 .163-.809q.032-.285.032-.434 0-.145-.073-.368-.072-.219-.368-.497h2.366q.343 0 .653-.08.31-.081.636-.244l-.376 1.664q.164-.277.407-.562.246-.285.556-.514.311-.228.684-.368.375-.14.817-.122l.375.017-.539 2.448a1.4 1.4 0 0 0-.521-.294 1.6 1.6 0 0 0-.375-.066q-.472-.001-.841.229a2 2 0 0 0-.597.57q-.13.18-.229.416a9 9 0 0 0-.319.931 2 2 0 0 0-.073.32l-.212.996a14 14 0 0 0-.153.792q-.041.236-.073.458a3 3 0 0 0-.032.382q0 .358.097.57.098.212.181.31h-4.045zM175.43 28.69a3.072 3.072 0 0 0 .965.163q.588-.001 1.24-.326.653-.326 1.209-1.036.555-.708.921-1.812.366-1.1.368-2.65 0-.995-.271-1.543-.27-.548-.636-.8a1.7 1.7 0 0 0-.75-.301 5 5 0 0 0-.595-.049q-.178 0-.27.007-.09.008-.334.073zm-4.29 1.698q.36-.26.587-.538.23-.277.375-.595.148-.319.237-.66.091-.343.17-.719l1.421-6.397q.162-.717.187-1.029t.025-.406q0-.23-.09-.49-.091-.26-.383-.587h4.994a9 9 0 0 1 1.772.156 3.9 3.9 0 0 1 1.41.58q.865.588 1.24 1.55.376.96.376 2.17-.001.848-.188 1.688a8 8 0 0 1-.538 1.598 7 7 0 0 1-.882 1.42q-.53.662-1.216 1.15a5.5 5.5 0 0 1-1.876.858q-1.027.253-2.529.254h-5.092zm16.253-11.847q.686 0 1.094.399.408.4.407 1.084 0 .8-.49 1.306-.491.506-1.24.507-.734 0-1.16-.434-.424-.43-.424-1.118 0-.782.49-1.265.489-.48 1.323-.48m-.573 3.997q.636 0 1.004-.121.366-.12.546-.205l-1.223 5.547a4 4 0 0 0-.073.327 2 2 0 0 0-.042.375q0 .18.066.27.065.092.156.14a.5.5 0 0 0 .18.055q.09.008.156.008.26 0 .407-.049.145-.048.229-.083l-1.16 1.486a2.8 2.8 0 0 1-.833.278 5 5 0 0 1-.636.049q-.23 0-.497-.049a1.2 1.2 0 0 1-.497-.212 1.25 1.25 0 0 1-.382-.465q-.155-.302-.156-.81 0-.374.066-.67l.146-.652.684-3.116q.015-.098.049-.244a9 9 0 0 0 .122-.677q.025-.17.024-.32.001-.325-.163-.545a3 3 0 0 0-.261-.319h2.088zm1.486 7.85h4.047a1.5 1.5 0 0 1-.18-.31q-.099-.21-.098-.57 0-.163.032-.382a24 24 0 0 1 .154-.899q.04-.204.073-.35l.375-1.81q.179-.834.482-1.331.302-.497.955-.497.066 0 .188.017a.55.55 0 0 1 .236.09.7.7 0 0 1 .205.22q.09.145.09.423 0 .1-.017.212a.8.8 0 0 1-.049.195l-.57 2.515q-.08.343-.146.594a2.1 2.1 0 0 0 .007 1.062q.073.284.271.514.196.23.538.383.342.154.882.156a3 3 0 0 0 1.42-.327l1.16-1.5a3 3 0 0 1-.351.097 2 2 0 0 1-.416.049q-.344 0-.432-.18a.75.75 0 0 1-.09-.344q0-.048.008-.205.006-.154.09-.465l.489-2.237q.131-.555.156-.84.025-.286.025-.417 0-.442-.171-.792a1.9 1.9 0 0 0-.473-.611 2.2 2.2 0 0 0-.701-.4 2.6 2.6 0 0 0-.858-.139q-.13 0-.368.025a2.5 2.5 0 0 0-.555.139 3.3 3.3 0 0 0-.685.35 3.8 3.8 0 0 0-.743.66l.295-1.271a3.2 3.2 0 0 1-.636.244q-.31.08-.653.08h-2.365c.194.185.319.35.367.497q.073.219.073.368.001.145-.031.434a7 7 0 0 1-.163.808l-.734 3.23q-.13.621-.351 1.314a2.8 2.8 0 0 1-.782 1.201m14.686.08a7 7 0 0 1-.416.098 3.374 3.374 0 0 1-1.608-.114 2.6 2.6 0 0 1-.906-.507 2.4 2.4 0 0 1-.636-.897q-.238-.555-.237-1.337 0-.49.098-1.028c.066-.358.168-.72.309-1.077A5.308 5.308 0 0 1 201 23.597a6 6 0 0 1 .645-.497q.35-.238.799-.407.449-.171.997-.277.546-.107 1.233-.108.343 0 .645.032l.58.066q.343.033.604.066.261.032.522.031.324-.001.701-.056a2.5 2.5 0 0 0 .799-.285l-1.223 5.582-.073.326a1.6 1.6 0 0 0-.041.358q0 .212.114.359.115.146.441.146.18 0 .375-.042.197-.04.376-.107l-1.16 1.5a2.6 2.6 0 0 1-.726.262 3.7 3.7 0 0 1-.677.065q-.18 0-.483-.031a1.5 1.5 0 0 1-.587-.195 1.4 1.4 0 0 1-.49-.497q-.204-.335-.204-.938 0-.113.017-.212.015-.099.041-.23.025-.13.066-.309l.107-.458.833-3.703a2.5 2.5 0 0 0-.343-.17 1.15 1.15 0 0 0-.458-.09q-.443 0-.848.35a3.2 3.2 0 0 0-.709.897 5.4 5.4 0 0 0-.482 1.223q-.18.675-.181 1.33.001.769.407 1.101a1.47 1.47 0 0 0 1.101.327 1 1 0 0 0 .108-.024z" clip-rule="evenodd"/><path fill="#064b76" fill-rule="evenodd" d="M207.285 33.045c2.315 4.91 7.204 7.87 12.752 7.87 7.029 0 13.558-4.722 15.865-11.24C233.164 37.648 225.757 43 217.783 43c-6.293 0-11.838-3.357-14.615-8.876l1.038-1.632zm37.973-14.082q.277 0 .66-.082.384-.082.611-.23l-2.007 9.09a4 4 0 0 0-.098.483q-.015.153-.017.204 0 .18.066.278a.5.5 0 0 0 .146.146.6.6 0 0 0 .181.066q.097.016.18.017.13 0 .319-.024a3 3 0 0 0 .482-.122l-1.174 1.5q-.441.229-.799.278a5 5 0 0 1-.587.05q-.57 0-.914-.147a1.4 1.4 0 0 1-.531-.375 1.15 1.15 0 0 1-.243-.497 2.4 2.4 0 0 1-.056-.514q0-.294.056-.58l.155-.758.8-3.671a1.2 1.2 0 0 0-.441-.244 1.5 1.5 0 0 0-.327-.049q-.44 0-.833.351-.392.352-.685.897a5.2 5.2 0 0 0-.458 1.232 5.8 5.8 0 0 0-.163 1.338q0 .18.032.417.032.236.163.465t.375.383q.245.154.685.155.098 0 .163-.007.066-.009.132-.024l-.865 1.518a4.3 4.3 0 0 1-.997.114q-.213 0-.677-.066a2.4 2.4 0 0 1-.931-.35q-.464-.286-.816-.882t-.351-1.657q.001-1.16.473-2.251a5.4 5.4 0 0 1 1.337-1.876q.848-.767 1.689-.997a6.5 6.5 0 0 1 1.688-.229q.326 0 .539.017.212.016.635.098l.31-1.355q.131-.522.156-.767.025-.246.024-.327 0-.213-.066-.472-.065-.26-.375-.539h2.354zm-21.64 11.505.834-1.487a1 1 0 0 1-.108.025 1.475 1.475 0 0 1-1.101-.326q-.408-.336-.407-1.102 0-.654.181-1.33.179-.677.482-1.223.303-.547.709-.897.409-.35.848-.35.243 0 .458.09.212.09.343.17l-.833 3.703-.107.458q-.04.18-.066.31-.024.13-.041.229-.016.099-.017.212 0 .604.204.938.205.336.49.497.286.163.587.195t.483.031q.325 0 .677-.066a2.7 2.7 0 0 0 .726-.26l1.16-1.5a3 3 0 0 1-.376.106 2 2 0 0 1-.375.042q-.326 0-.441-.146a.57.57 0 0 1-.114-.359q0-.178.041-.358l.073-.326 1.223-5.582c-.282.151-.55.249-.799.285a4.6 4.6 0 0 1-.702.056q-.26 0-.521-.031a21 21 0 0 0-.604-.066l-.58-.066a6 6 0 0 0-.646-.032q-.686 0-1.232.108-.548.106-.997.277a4 4 0 0 0-.799.407 5.344 5.344 0 0 0-2.049 2.505 5.8 5.8 0 0 0-.407 2.105q0 .782.237 1.337.237.556.635.897a2.6 2.6 0 0 0 .907.507q.504.164 1.045.163a3 3 0 0 0 .563-.049q.237-.05.416-.097m-5.905-.473 1.223-2.203a8.4 8.4 0 0 1-1.216.653 8 8 0 0 1-.962.344q-.416.113-.695.131-.278.017-.407.018-.652 0-1.108-.195a2.36 2.36 0 0 1-1.25-1.216 4 4 0 0 1-.253-.75 5 5 0 0 1-.107-.678 6 6 0 0 1-.025-.472q0-1.224.327-2.186.326-.962.865-1.632.537-.67 1.24-1.028a3.1 3.1 0 0 1 1.435-.358q.114 0 .382.024.27.025.612.139.343.113.718.35c.251.16.485.383.702.678l.278-2.414a8 8 0 0 0-1.501-.368 10 10 0 0 0-1.289-.09 9.4 9.4 0 0 0-2.456.333q-1.231.335-2.324 1.299-.571.506-1.004 1.143a7 7 0 0 0-.718 1.347q-.285.71-.424 1.452a8 8 0 0 0-.139 1.46q0 .914.278 1.785.276.873.882 1.55.604.676 1.573 1.093.972.417 2.376.417a9 9 0 0 0 1.435-.122 6.1 6.1 0 0 0 1.552-.504" clip-rule="evenodd"/><path fill="#fff" d="M308.054 12.46 297.45 37.607h-6.919l-5.219-20.069c-.316-1.236-.592-1.689-1.555-2.21-1.574-.848-4.172-1.644-6.457-2.138l.155-.73h11.137c1.42 0 2.696.939 3.018 2.564l2.756 14.551 6.812-17.116zm27.109 16.936c.028-6.637-9.234-7.002-9.17-9.967.02-.903.884-1.862 2.776-2.107.938-.122 3.522-.215 6.453 1.126l1.149-5.333c-1.574-.568-3.601-1.115-6.122-1.115-6.469 0-11.022 3.418-11.06 8.313-.042 3.62 3.249 5.64 5.729 6.843 2.551 1.232 3.407 2.024 3.397 3.126-.018 1.686-2.034 2.431-3.919 2.46-3.29.05-5.199-.884-6.72-1.587l-1.187 5.509c1.53.697 4.352 1.305 7.279 1.336 6.876 0 11.374-3.376 11.395-8.604m17.083 8.211h6.054l-5.284-25.147h-5.587a2.98 2.98 0 0 0-2.786 1.845l-9.821 23.302h6.873l1.364-3.756h8.398l.79 3.756zm-7.303-8.91 3.445-9.442 1.983 9.442h-5.428M317.406 12.46l-5.412 25.147h-6.545l5.414-25.147zM392.93 7h35.691v35.825H392.93z"/><path fill="#1790cd" d="M390.637 42.084h-.314a1.8 1.8 0 0 1-.047-.42c0-.114-.019-.232-.233-.232h-.462v.652h-.277v-1.591h.739c.253 0 .534.09.534.443 0 .2-.084.297-.172.358.073.041.135.11.144.29l.011.275c.003.08.011.095.077.132zm-.343-1.127c0-.2-.138-.217-.237-.217h-.476v.443h.441c.146 0 .272-.034.272-.226m1.307.348c0-.942-.764-1.696-1.706-1.696s-1.705.754-1.705 1.696.763 1.695 1.705 1.695 1.706-.753 1.706-1.695m-.258 0c0 .8-.614 1.448-1.448 1.448a1.426 1.426 0 0 1-1.446-1.448c0-.8.611-1.447 1.446-1.447.837 0 1.448.647 1.448 1.447"/><path fill="url(#b)" d="M428.621 26.51h-1.859c-.556 0-.972.13-1.259.337v-.337h-2.741c-.435 0-.959.105-1.202.337v-.337h-4.9v.337c-.392-.277-1.048-.337-1.358-.337h-3.234v.337c-.31-.299-.989-.337-1.405-.337h-3.627l-.83.898-.771-.898h-5.408v5.856h5.307l.851-.912.805.909 3.268.003v-1.381h.325c.432 0 .943-.01 1.389-.202v1.583h2.707v-1.533h.132c.164-.002.177.013.177.169v1.364h8.193c.515 0 1.071-.134 1.37-.371v.37h2.597c.539 0 1.071-.078 1.473-.268v10.728H392.93V25.143h1.713l.386-.939h.864l.388.94h3.372v-.715l.303.716h1.746l.304-.727v.725h8.377l-.002-1.532h.164c.12 0 .149.014.149.2v1.332h4.334l-.001-.363c.345.187.887.363 1.609.363h1.823l.393-.939h.864l.388.94h3.503v-.89l.538.89h2.814v-5.856h-2.783v.69l-.399-.69h-2.859v.69l-.351-.69h-3.863c-.65 0-1.223.087-1.677.337v-.337h-2.663v.337c-.302-.256-.696-.337-1.136-.337h-9.738l-.659 1.51-.666-1.51H397.1v.69l-.346-.69h-2.615l-1.209 2.777V7h35.691zm-2.551-2.193h-1.429l-1.899-3.15.001 3.15h-2.041l-.387-.94h-2.088l-.385.94h-1.168c-.493 0-1.109-.114-1.458-.468-.353-.36-.532-.838-.532-1.602 0-.624.111-1.193.539-1.64.322-.335.835-.492 1.527-.492h.959v.9l-.939-.001c-.371 0-.58.055-.776.251-.176.175-.294.51-.294.952 0 .448.088.769.285.985.148.163.427.214.697.214h.45l1.413-3.301h1.495l1.7 3.973v-3.973h1.533l1.764 2.925-.001-2.925h1.034zm-12.903 0h1.027v-4.204h-1.027zm-1.094-4c-.324-.184-.7-.202-1.209-.202h-2.311v4.202h1.003v-1.53h1.077c.365 0 .585.032.729.184.186.198.164.564.164.814v.532h1.01v-.834c0-.365-.025-.559-.166-.762a1.13 1.13 0 0 0-.494-.356c.264-.104.714-.45.714-1.115 0-.47-.194-.746-.517-.932m-4.215 3.122-2.348.003v-.833l2.292.002v-.864h-2.292v-.757h2.348v-.875h-3.351v4.202h3.351zm-4.099-3.324h-1.671l-1.207 2.85-1.309-2.85h-1.642l.001 3.974-1.701-3.974h-1.495l-1.797 4.202h1.094l.385-.94h2.088l.387.94h2.041v-3.295l1.459 3.295h.882l1.455-3.29v3.29h1.03zm16.196 2.386-.685-1.669-.683 1.67zm-8.684-.663c-.135.08-.299.086-.492.086h-1.223v-.934h1.237c.178 0 .358.005.478.072a.41.41 0 0 1 .206.377c0 .18-.079.325-.206.399m-16.495.663.684-1.669.684 1.67zm34.064 7.714c0 .893-.561 1.322-1.577 1.322h-1.937v-.9h1.93c.186 0 .32-.026.404-.102a.37.37 0 0 0 .118-.275.35.35 0 0 0-.123-.278c-.075-.064-.177-.09-.349-.094-.938-.025-2.117.03-2.117-1.303 0-.602.382-1.25 1.438-1.25h2v.902h-1.831c-.18 0-.301.006-.399.072-.107.07-.149.168-.149.303 0 .157.091.266.22.312.102.035.217.044.385.046l.538.015c.557.012.921.105 1.147.338.198.209.302.454.302.892m-4.223-.892c-.226-.232-.593-.326-1.149-.338l-.537-.015a1.2 1.2 0 0 1-.385-.046.32.32 0 0 1-.219-.311c0-.136.042-.235.148-.305.098-.065.22-.07.402-.07h1.839v-.903h-2.01c-1.055 0-1.437.647-1.437 1.25 0 1.334 1.179 1.278 2.115 1.303.172.004.275.03.349.094.071.06.124.153.124.278a.37.37 0 0 1-.12.274c-.083.077-.215.103-.403.103h-1.948v.9h1.955c1.016 0 1.577-.429 1.577-1.322 0-.438-.102-.683-.301-.892m-3.827 1.34h-2.348v-.83h2.292v-.865l-2.292.001v-.757h2.348v-.877h-3.351v4.202h3.351zm-4.424-3.123c-.325-.186-.7-.205-1.207-.205h-2.313v4.202h1.001V30.01l1.08-.001c.365 0 .584.032.729.183.186.199.163.564.163.814v.531h1.012v-.832c-.002-.365-.026-.558-.168-.761a1.1 1.1 0 0 0-.491-.358c.261-.104.711-.448.711-1.116 0-.468-.194-.744-.517-.93m-5.679-.205h-3.208l-1.28 1.38-1.23-1.38h-4.04v4.202h3.977l1.283-1.385 1.235 1.385h1.953v-1.406h1.247c.877 0 1.746-.243 1.746-1.406s-.892-1.39-1.683-1.39m4.878 1.726c-.136.079-.3.084-.493.084l-1.225.002v-.935h1.239c.178 0 .358.006.479.07.125.072.205.201.205.379 0 .18-.079.325-.205.4m-4.89.208h-1.298v-1.057h1.31c.359 0 .606.149.606.513 0 .36-.235.544-.618.544m-3.838.177 1.537-1.655v3.363zm-2.439 1.216h-2.465v-.83h2.198v-.864l-2.198.001v-.757h2.509l1.101 1.221z"/></g><defs><radialGradient id="b" cx="0" cy="0" r="1" gradientTransform="rotate(46.984 185.197 464.896)scale(39.843 36.6115)" gradientUnits="userSpaceOnUse"><stop stop-color="#7fd3f3"/><stop offset="1" stop-color="#017cc2"/></radialGradient><clipPath id="a"><path fill="#fff" d="M0 0h440.36v50H0z"/></clipPath></defs></svg>