<svg xmlns="http://www.w3.org/2000/svg" width="60" height="50" fill="none" viewBox="0 0 60 50"><!-- Original logo design by Visa. All rights reserved. This SVG has been modified for layout consistency by Polako Finance. No claim of ownership or endorsement is implied. --><path fill="#fff" d="M48 7H12v36h36z"/><path fill="#1434cb" d="M48 25H12v18h36zM26.342 12.033l-3.389 8.083h-2.21l-1.668-6.45c-.102-.397-.189-.542-.496-.712-.504-.272-1.333-.529-2.064-.687l.05-.234h3.557c.453 0 .862.302.966.823l.88 4.679 2.176-5.502h2.198m8.662 5.445c.01-2.133-2.949-2.25-2.929-3.205.007-.29.282-.598.887-.677.3-.038 1.126-.069 2.062.362l.367-1.714a5.7 5.7 0 0 0-1.956-.357c-2.067 0-3.522 1.098-3.534 2.673-.013 1.164 1.038 1.813 1.83 2.2.817.396 1.09.65 1.086 1.004-.005.541-.651.781-1.251.79-1.053.017-1.662-.283-2.147-.51l-.38 1.772c.489.224 1.39.419 2.325.43 2.198 0 3.635-1.086 3.642-2.766m5.46 2.64h1.935l-1.69-8.084h-1.783a.95.95 0 0 0-.891.593l-3.138 7.49h2.196l.437-1.206h2.683l.253 1.207zm-2.334-2.864 1.101-3.036.633 3.036zm-8.799-5.22-1.729 8.084h-2.09l1.728-8.084z"/><path fill="#fff" d="M19.52 32.949q0-.387.188-.654.188-.269.512-.406.325-.136.733-.136.454 0 .727.089.27.088.417.18l.049.676h-.017q-.134-.112-.329-.198a2.3 2.3 0 0 0-.416-.136 2 2 0 0 0-.435-.051q-.337 0-.547.109-.21.11-.21.383 0 .21.1.328a.7.7 0 0 0 .3.192q.198.075.492.157.278.076.524.153.243.078.427.203a.9.9 0 0 1 .287.333q.105.207.105.529 0 .622-.405.953-.406.33-1.134.329a2.8 2.8 0 0 1-.735-.1 1.8 1.8 0 0 1-.6-.266l-.044-.681h.017q.267.226.643.354.376.129.757.13.81 0 .809-.559 0-.2-.091-.322a.7.7 0 0 0-.295-.207 5 5 0 0 0-.53-.17 6 6 0 0 1-.488-.15 1.7 1.7 0 0 1-.413-.21.9.9 0 0 1-.287-.332 1.14 1.14 0 0 1-.105-.52zM22.958 35.904v-4.077h2.627v.591h-1.909v1.09h1.508v.569h-1.508v1.238h1.91v.59h-2.628zM26.676 33.866q0 .462.17.803.168.344.485.531t.762.187c.296 0 .556-.045.756-.136q.3-.136.525-.356h.017l-.075.712a2.2 2.2 0 0 1-.558.266q-.322.104-.75.105a2.2 2.2 0 0 1-.866-.163 1.92 1.92 0 0 1-1.068-1.124 2.4 2.4 0 0 1-.141-.826c0-.292.047-.572.141-.829q.143-.384.413-.67t.651-.451.858-.164q.43 0 .74.09.31.089.531.254l.075.729h-.017a1.7 1.7 0 0 0-.53-.351 1.8 1.8 0 0 0-.713-.131q-.445 0-.759.187-.313.188-.48.531-.165.343-.165.804zM31.658 35.367q.554 0 .804-.238.252-.239.253-.812v-2.49h.6v2.526q0 .858-.433 1.242-.431.384-1.258.383c-.551 0-.973-.127-1.276-.38q-.456-.381-.457-1.243v-2.526h.718v2.473q0 .573.244.82.243.246.802.247zM34.019 35.904v-4.077h1.721q.402 0 .695.16.292.162.447.442.156.282.157.637 0 .417-.231.729a1.1 1.1 0 0 1-.628.412l1.046 1.695H36.4l-.943-1.598h-.718v1.598h-.719zm1.529-3.508h-.811v1.373h.81q.391 0 .566-.169t.175-.518-.175-.518q-.174-.17-.565-.17zM37.762 35.904v-4.077h2.629v.591h-1.91v1.09h1.508v.569h-1.507v1.238h1.909v.59h-2.63z"/></svg>