<svg xmlns="http://www.w3.org/2000/svg" width="60" height="50" fill="none" viewBox="0 0 60 50"><!-- Original logo design by Visa. All rights reserved. This SVG has been modified for layout consistency by Polako Finance. No claim of ownership or endorsement is implied. --><path fill="#fff" d="M50 5H10v40h40z"/><path fill="#1434cb" d="M50 25H10v20h40zM25.936 10.592l-3.766 8.982h-2.456l-1.853-7.168c-.113-.44-.21-.602-.552-.79-.56-.303-1.48-.588-2.292-.764l.054-.26h3.954c.503 0 .957.335 1.072.915l.978 5.198 2.418-6.113h2.443m9.624 6.05c.01-2.37-3.277-2.5-3.254-3.561.008-.322.313-.665.985-.752.334-.042 1.25-.077 2.291.402l.408-1.905a6.3 6.3 0 0 0-2.173-.396c-2.297 0-3.913 1.22-3.928 2.97-.014 1.293 1.154 2.014 2.035 2.444.907.44 1.21.723 1.206 1.115-.006.602-.724.87-1.39.88-1.17.017-1.847-.316-2.386-.568l-.422 1.97c.543.248 1.545.464 2.584.476 2.442 0 4.038-1.206 4.046-3.073m6.067 2.934h2.15L41.9 10.596H39.92c-.447 0-.823.258-.99.658l-3.487 8.324h2.44l.485-1.342h2.982l.28 1.342zm-2.594-3.182 1.224-3.374.703 3.374zm-9.776-5.8-1.921 8.982h-2.323l1.92-8.982z"/><path fill="#fff" d="M18.356 33.832q0-.431.208-.727.21-.299.57-.45.359-.152.814-.152.505 0 .808.099.3.099.462.2l.055.751h-.018a1.5 1.5 0 0 0-.366-.22 2.6 2.6 0 0 0-.462-.151 2 2 0 0 0-.483-.057q-.375 0-.608.121-.233.123-.233.427 0 .233.111.363.11.132.332.214.221.085.547.174.309.085.582.17.271.087.475.226a1 1 0 0 1 .319.37q.116.23.117.588 0 .691-.45 1.058-.451.367-1.26.366-.406 0-.817-.111a2 2 0 0 1-.667-.295l-.048-.758h.018q.297.252.715.394t.84.144q.9 0 .9-.62a.6.6 0 0 0-.102-.358.76.76 0 0 0-.327-.23 5 5 0 0 0-.59-.188 7 7 0 0 1-.541-.168 1.9 1.9 0 0 1-.459-.232 1 1 0 0 1-.319-.37 1.3 1.3 0 0 1-.117-.578zM22.176 37.115v-4.53h2.919v.657h-2.121v1.21h1.674v.633h-1.674v1.376h2.121v.656h-2.92zM26.307 34.85q0 .513.188.893.188.381.539.59t.847.208c.329 0 .618-.05.84-.151a2.1 2.1 0 0 0 .584-.396h.018l-.083.792q-.263.179-.62.295a2.7 2.7 0 0 1-.835.117q-.536 0-.961-.182a2.1 2.1 0 0 1-.727-.5 2.2 2.2 0 0 1-.459-.748 2.6 2.6 0 0 1-.158-.918c0-.325.053-.636.158-.92q.158-.428.459-.746.3-.319.723-.501.424-.182.953-.182.477 0 .823.099.344.1.59.283l.082.81h-.018a1.9 1.9 0 0 0-.59-.39 2 2 0 0 0-.792-.145q-.494-.001-.842.208-.348.208-.533.59a2 2 0 0 0-.184.892zM31.843 36.52q.614-.001.893-.265.279-.265.28-.903v-2.766h.667v2.806q0 .953-.48 1.38t-1.399.426c-.612 0-1.08-.141-1.418-.422q-.506-.425-.507-1.382v-2.806h.798v2.747q0 .638.27.911.27.274.892.275zM34.465 37.115v-4.53h1.913q.447 0 .772.179.324.178.497.49.173.313.173.708.001.464-.256.81-.258.346-.697.458l1.162 1.883h-.918l-1.048-1.776h-.798v1.776h-.798zm1.699-3.897h-.901v1.525h.9q.435 0 .63-.187.193-.188.193-.576t-.194-.576-.628-.188zM38.624 37.115v-4.53h2.921v.657h-2.121v1.21h1.675v.633h-1.675v1.376h2.121v.656h-2.921z"/></svg>
