<svg xmlns="http://www.w3.org/2000/svg" width="113" height="50" fill="none" viewBox="0 0 113 50"><!-- Original logo design by Visa. All rights reserved. This SVG has been modified for layout consistency by Polako Finance. No claim of ownership or endorsement is implied. --><path fill="#fff" d="M45.754 12.46 35.15 37.607H28.23l-5.218-20.069c-.317-1.236-.593-1.689-1.556-2.21-1.573-.848-4.171-1.644-6.457-2.138l.155-.73h11.137c1.42 0 2.696.939 3.018 2.564l2.756 14.551 6.812-17.116zm27.11 16.936c.027-6.637-9.235-7.002-9.17-9.967.019-.903.883-1.862 2.775-2.107.938-.122 3.522-.215 6.453 1.126l1.15-5.333C72.497 12.547 70.47 12 67.949 12c-6.469 0-11.022 3.418-11.06 8.313-.042 3.62 3.25 5.64 5.73 6.843 2.55 1.232 3.406 2.024 3.397 3.126-.019 1.686-2.035 2.431-3.92 2.46-3.29.05-5.198-.884-6.72-1.587l-1.186 5.509c1.529.697 4.352 1.305 7.278 1.336 6.876 0 11.374-3.376 11.395-8.604m17.083 8.211H96L90.716 12.46H85.13a2.98 2.98 0 0 0-2.785 1.845l-9.822 23.302h6.873l1.365-3.756h8.397zm-7.303-8.91 3.445-9.442 1.982 9.442zM55.106 12.46l-5.412 25.147H43.15l5.415-25.147z"/></svg>