<svg xmlns="http://www.w3.org/2000/svg" width="60" height="50" fill="none" viewBox="0 0 60 50"><!-- Original logo design by Visa. All rights reserved. This SVG has been modified for layout consistency by Polako Finance. No claim of ownership or endorsement is implied. --><path fill="#fff" d="M48 7H12v36h36z"/><path fill="#1434cb" d="M47.006 24.667h-34.01v17.337h34.01zM26.342 12.033l-3.389 8.083h-2.21l-1.668-6.45c-.102-.397-.189-.542-.496-.712-.504-.272-1.333-.529-2.064-.687l.05-.234h3.557c.453 0 .862.302.966.823l.88 4.679 2.176-5.502h2.198m8.662 5.445c.01-2.133-2.949-2.25-2.929-3.205.007-.29.282-.598.887-.677.3-.038 1.126-.069 2.062.362l.367-1.714a5.7 5.7 0 0 0-1.956-.357c-2.067 0-3.522 1.098-3.533 2.673-.012 1.164 1.039 1.813 1.831 2.2.817.396 1.09.65 1.086 1.004-.006.541-.651.781-1.251.79-1.053.017-1.662-.283-2.147-.51l-.38 1.772c.489.224 1.39.419 2.325.43 2.198 0 3.635-1.086 3.642-2.766m5.46 2.64h1.934l-1.689-8.084H38.93a.95.95 0 0 0-.891.593l-3.138 7.49h2.196l.436-1.206h2.684l.253 1.207zm-2.335-2.864 1.102-3.036.633 3.036zm-8.798-5.22-1.729 8.084h-2.09l1.728-8.084z"/><path fill="#fff" d="M19.52 32.284q0-.388.188-.655.188-.268.512-.405.325-.137.733-.137.454 0 .727.09.271.088.416.18l.05.676h-.017q-.134-.113-.329-.198a2.3 2.3 0 0 0-.416-.137 2 2 0 0 0-.435-.05q-.337 0-.547.108-.21.11-.21.384 0 .21.1.327a.7.7 0 0 0 .3.193q.198.075.492.157.278.075.524.152.243.079.427.204a.9.9 0 0 1 .287.333q.105.207.105.529 0 .621-.405.952-.404.33-1.134.33a2.8 2.8 0 0 1-.735-.1 1.8 1.8 0 0 1-.6-.266l-.044-.682h.017q.267.227.643.355t.757.129q.81 0 .809-.558 0-.2-.091-.322a.7.7 0 0 0-.295-.207 5 5 0 0 0-.53-.17 6 6 0 0 1-.488-.15 1.7 1.7 0 0 1-.413-.21.9.9 0 0 1-.287-.332 1.15 1.15 0 0 1-.105-.52zM22.958 35.238v-4.076h2.627v.59h-1.909v1.09h1.508v.569h-1.508v1.238h1.91v.591h-2.628zM26.676 33.2q0 .461.17.804.168.343.485.53.316.189.762.188c.296 0 .556-.046.756-.137q.3-.136.525-.356h.017l-.075.713a2.2 2.2 0 0 1-.558.265q-.322.105-.75.106a2.2 2.2 0 0 1-.866-.164 1.92 1.92 0 0 1-1.068-1.124 2.4 2.4 0 0 1-.141-.825c0-.293.047-.573.141-.83q.143-.384.413-.67t.651-.45.858-.165q.43 0 .74.09.31.089.531.254l.075.73h-.017a1.7 1.7 0 0 0-.53-.352 1.8 1.8 0 0 0-.713-.13q-.445-.001-.759.187-.313.187-.48.53-.165.344-.165.804zM31.658 34.702q.554 0 .804-.238.252-.24.253-.813v-2.49h.6v2.526q0 .859-.433 1.242-.431.384-1.258.384c-.551 0-.973-.128-1.276-.38q-.456-.383-.457-1.244v-2.525h.718v2.472q0 .574.244.82.243.247.802.248zM34.019 35.238v-4.076h1.721q.402 0 .695.16t.447.442q.156.281.157.636 0 .417-.231.73a1.1 1.1 0 0 1-.628.412l1.046 1.694H36.4l-.943-1.598h-.718v1.598h-.719zm1.529-3.507h-.811v1.373h.81q.391 0 .566-.17.175-.168.175-.518 0-.348-.175-.518-.174-.17-.565-.169zM37.762 35.238v-4.076h2.629v.59h-1.91v1.09h1.508v.569h-1.507v1.238h1.909v.591h-2.63z"/></svg>