<svg xmlns="http://www.w3.org/2000/svg" width="113" height="50" fill="none" viewBox="0 0 113 50"><!-- Original logo design by Visa. All rights reserved. This SVG has been modified for layout consistency by Polako Finance. No claim of ownership or endorsement is implied. --><path fill="#fff" d="M45.27 10.53 33.108 39.546h-7.934L19.189 16.39c-.363-1.426-.68-1.949-1.784-2.55-1.804-.978-4.784-1.896-7.405-2.466l.178-.844H22.95c1.628 0 3.092 1.084 3.461 2.959l3.161 16.79 7.812-19.75h7.885zm31.089 19.543c.032-7.658-10.59-8.08-10.517-11.501.023-1.041 1.014-2.148 3.184-2.431 1.076-.14 4.039-.248 7.4 1.299l1.318-6.154c-1.806-.655-4.13-1.286-7.02-1.286-7.42 0-12.641 3.944-12.685 9.592-.048 4.177 3.727 6.508 6.57 7.896 2.926 1.421 3.908 2.335 3.897 3.606-.021 1.946-2.334 2.806-4.495 2.84-3.773.058-5.962-1.021-7.707-1.833l-1.36 6.357c1.753.805 4.99 1.507 8.346 1.542 7.886 0 13.045-3.895 13.069-9.927m19.591 9.474h6.942l-6.06-29.016h-6.407c-1.44 0-2.656.839-3.194 2.128L75.967 39.548h7.882l1.565-4.335h9.63zm-8.375-10.282 3.95-10.894L93.8 29.265zM55.995 10.53l-6.207 29.016h-7.506l6.21-29.016z"/></svg>
